<svg xmlns="http://www.w3.org/2000/svg" viewBox="0 0 335.51 209.5"><defs><style>.a{fill:#050403;}.b{fill:#859b9a;}.c{fill:#067f87;}.d{fill:#047d84;}.e{fill:#dcfe64;}.f{fill:#202c2d;}.g{fill:#e9a83f;}.h{fill:#e8a73f;}.i{fill:#849a99;}.j{fill:#758549;}.k{fill:#d27f28;}.l{fill:#202b2c;}.m{fill:#2f3d3e;}.n{fill:#d17e28;}.o{fill:#9ba671;}.p{fill:#cea633;}.q{fill:#e5cb58;}.r{fill:#97a26f;}.s{fill:#ca7f2c;}.t{fill:#31b9c2;}.u{fill:#010202;}.v{fill:#758548;}.w{fill:#fefefe;}.x{fill:#040403;}.y{fill:#090602;}.z{fill:#698180;}.aa{fill:#d2fceb;}.ab{fill:#d2fae7;}.ac{fill:#ecf4d2;}</style></defs><path class="a" d="M73.88,168.54c1.77-3.89,4.11-7.26,8.11-9.2a1.74,1.74,0,0,0,.66-.91c1-2.77,2-5.53,3-8.32a1.69,1.69,0,0,1,1.51-1.31c1.19-.11,2.39-.16,3.58-.19q9.85-.24,19.71-.44c.64,0,1.27,0,1.91,0l.89,1.89-11.73.21-12.57.26a9.1,9.1,0,0,0-1.06.16c.72.47,1.15.81,1.63,1.06,2.49,1.26,5,2.42,7.48,3.76q11.69,6.42,23.28,12.95c1.54.87,3,1.79,4.86,1.26a6.66,6.66,0,0,1,1.41-.2c3-.13,6.08-.2,9.12-.36,5.25-.27,10.49-.58,15.73-.88,1.75-.09,3.5-.16,5.25-.26.81,0,1.62-.13,2.43-.19l4-.26,8.17-.5c4.92-.31,9.83-.64,14.75-.94,1.1-.06,2.2-.06,3.3-.06h6.94l.08-.26-15.08-7.52c-.77,1.21-1.42,2.25-2.08,3.28-.38.24-.75.67-1.14.7-2.18.14-4.37.21-6.55.24-3,.05-5.92,0-8.88.06s-6,.31-9,.43c-2,.08-4,0-6.05.12-2.5.09-5,.25-7.5.37a4.39,4.39,0,0,1-1.33-.32c-3.23-1.87-6.44-3.78-9.65-5.68l1.5-3.11c.22.2.56.4.7.69.41.88.78,1.8,1.11,2.72a1.93,1.93,0,0,0,2,1.5,1.8,1.8,0,0,0,1.6-2,3,3,0,0,0-.15-1.17c-.74-1.47-1.53-2.92-2.3-4.37a4.6,4.6,0,0,1,.89-.21c1.88,0,3.76,0,5.63,0a11.85,11.85,0,0,1-2.9,5.12c-.87.94-1,1.88-.28,2.64a2,2,0,0,0,2.79.12A5.16,5.16,0,0,0,141,158c1.18-2.06,2.29-4.16,3.42-6.25.44-.26,1.05-.4,1.3-.78,1.82-2.8,3.56-5.67,5.36-8.49.49-.76,1-1.61,2.12-1.48l1.72.22,1.63.07,1.54.16,4.12.45,1.69,0,5.38.54,2,.26,5.51.56c-1.75-1.56-3.39-3-5-4.44l-2.24-3.41c1-.24,2-.47,3-.74.83-.22,1.64-.49,2.46-.73l1.61-.25c-1,1.32-2.42,1.32-3.7,1.77h-1.35l-.22.36,3,2.77v0l.3.39a17.5,17.5,0,0,0,10.11,5.13c-1.59-2.57-1.54-4.53.06-6.8,1.1-1.55,2.28-3.05,3.43-4.57l.23-.33-.45.12a10.48,10.48,0,0,0-4.7,4.28c-.43.74-1,1.14-1.72.41a13.31,13.31,0,0,1-1.44-2.16,2.89,2.89,0,0,1,.49-3.81c1.36-1.41,2.65-2.88,4.07-4.23,2.16-2,2.19-2,.87-4.69a.73.73,0,0,0-.09-.08c-1.28-3.51-5-6-7.88-5.12l1.37,3.45a38.9,38.9,0,0,1-.31,4.6c-.47,2.53-1.13,5-3.41,6.67L174,130.9a13.1,13.1,0,0,0,2.48-2.45,14.09,14.09,0,0,0,1.71-6.66c-.24-.85-.44-1.72-.73-2.55-.07-.2-.37-.36-.6-.44a14,14,0,0,1-3.15-1.1c-1.72-1.14-3.25-2.57-4.91-3.81a2.35,2.35,0,0,0-1.58-.46,22.17,22.17,0,0,0-7.94,2.83c-.23.14-.53.3-.63.52-1.14,2.62-2.47,5.18-2.64,8.12-.48,3.27-.26,4.93.61,5.78,1.53-3,3.09-6,4.64-9a.81.81,0,0,0,0-.35,9.2,9.2,0,0,1,2.09-1c2.2-.43,4.09.37,6,1.53a1.87,1.87,0,0,1,.94,2.5c-.83,1.91-1.87,3.73-2.83,5.58l-1.73,1.46h3.65l-4.76,2.39a11.37,11.37,0,0,1-2,.39c-.49,0-1.31-.16-1.4-.45a2.21,2.21,0,0,1,.23-1.72,9.85,9.85,0,0,1,1.9-1.6l-3.74-.81a17.37,17.37,0,0,1-1,2,7.42,7.42,0,0,1-1.4,1.4c-.89.71-1.54.38-2-.57-.1-.21-.24-.4-.52-.86a13.32,13.32,0,0,1-1.49,1.63,1.55,1.55,0,0,1-1.26.33c-2.17-1.21-4.09-2.73-4.82-5.25a2.28,2.28,0,0,1,.16-1.67,43,43,0,0,1,3.63-5.29c3.89-4.54,8.24-8.5,14.39-9.72a7.12,7.12,0,0,1,2.13-.27,5.22,5.22,0,0,1,2.25.78c1.69,1.19,3.28,2.53,4.9,3.79a7.71,7.71,0,0,1,8.08-.07c.53-.83,1.17-1.61,2.18-1.23.82-1.61,1.58-3.07,2.34-4.56-15.57-.38-28.47-6.47-38-19a45.32,45.32,0,0,1-9.3-32.72C142.11,34,163,15.22,187.15,15.66c13.58.25,25.14,5.27,34.36,15.23S234.63,52.84,234,66c1,.91,1.77,1.65,2.57,2.38a1.47,1.47,0,0,0,.53.36c2.23.71,4.54,1.21,6.68,2.13,15,6.42,25.66,17.42,33,31.8a66.5,66.5,0,0,1,6.66,21.49,28.62,28.62,0,0,1-.45,11.06,2.14,2.14,0,0,0,.07,1.12c.84,2.53,1.61,5.09,2.59,7.57a39.12,39.12,0,0,0,2.61,5.17,2.28,2.28,0,0,0,1.51.75,13.12,13.12,0,0,0,14.32-9.72c.09-.39.6-1,.91-1s1,.52,1,.85a38.26,38.26,0,0,1,.09,6.42,21,21,0,0,1-4.37,10.46c-.14.19-.24.39-.41.66a23.72,23.72,0,0,0,11.45,0,2.44,2.44,0,0,0,1.09-.88,29.76,29.76,0,0,0,6.94-17c.16-1.59.46-2.06,1.59-2.26a41.32,41.32,0,0,1,2.65,14,3.58,3.58,0,0,0,.7-.42c1.87-2,3.76-4,5.55-6.1a2.69,2.69,0,0,0,.34-1.78,40.14,40.14,0,0,0-4.2-14.87,4.75,4.75,0,0,1-.1-1.62c.58.09,1.33,0,1.72.31,2.53,2.09,5,4.27,7.45,6.41a6.55,6.55,0,0,0-.42-3.56A26.83,26.83,0,0,0,329.9,119c-5.38-5.94-11.73-10.42-19.62-12.46-.77-.19-1.56-.29-2.35-.45s-1.46-.58-1.42-1.49.89-1,1.54-1a42.86,42.86,0,0,1,14.27,1l.85.19c-.91-1.35-1.65-2.5-2.44-3.61-.38-.53-1-1.12-.34-1.64a2.06,2.06,0,0,1,1.72,0,28.32,28.32,0,0,1,8.11,6.06l.6.58.31.45.16-.08-.23-.67a5.28,5.28,0,0,1-.72-1.22c-.12-.43-.19-1.11.05-1.34a1.39,1.39,0,0,1,1.34,0,29.16,29.16,0,0,1,3.15,2.94,31.64,31.64,0,0,1,5.2,8.13,6.31,6.31,0,0,0,.94,1.5,39,39,0,0,1,9.71,22.56c2.32,23.3-15.72,46.91-40.86,49.77a39.85,39.85,0,0,1-25.11-5.24l-.88-.5c-1.1,2-2.09,4.07-3.29,6a33.39,33.39,0,0,1-3.33,4.37,10.72,10.72,0,0,1-10.17,3.5,46.42,46.42,0,0,1-12.4-3.87c-.51-.22-1-.48-1.51-.72-.91,1.46-1.27,1.6-2.86,1.23a42.7,42.7,0,0,1-1.54,4.1,5.11,5.11,0,0,1-1.7,1.73,8.54,8.54,0,0,1-2.28,1c-4.71,1.48-8.13,4.62-11.06,8.42-.58.75-1.12,1.55-1.69,2.31-1.34,1.79-2.22,1.92-4,.61l-.52-.38c-1,1.1-1.94,2.21-3,3.25-3.58,3.64-5.75,3.74-9.52.34a62.69,62.69,0,0,1-8.9-10.79c-.15-.22-.36-.55-.3-.76.62-2.09-.82-3.29-2.15-4.22a12.08,12.08,0,0,1-3.24-3.6c-.64-1-1.24-2-1.95-3.17-.52,1-1,1.84-1.43,2.69a8.42,8.42,0,0,1-5.36,4.41c-7.21,1.9-14.39,4-21.6,5.84-3.78,1-7.62,1.8-11.43,2.69-.32-.66-.64-1.32-1-2,3.1-.72,6.2-1.42,9.29-2.16q7-1.67,13.91-3.36c2.31-.56,4.65-1.07,6.94-1.75s4.66-.92,6.12-2.94c1.08-1.5,1.77-3.28,2.71-4.89a2.3,2.3,0,0,0,0-2.22,67.58,67.58,0,0,1-2.76-8.36c-.38-1.65-.45-3.59,1.15-5a4.55,4.55,0,0,1,3.39-1.21c.82.06,1.22-.2,1.09-1.06a29.31,29.31,0,0,0-.62-3.88,2.26,2.26,0,0,0-1.37-1.28,12.84,12.84,0,0,0-3.49-.49q-5.92,0-11.85.23c-2.86.09-5.72.29-8.58.49-4.24.29-8.48.63-12.72.93-1.77.13-3.55.18-5.31.31-1.59.11-3.17.31-4.75.4-3.06.18-6.12.33-9.18.48-5.33.25-10.66.48-16,.74-1,.05-2,.2-2.91.29-.52,2.28-1,4.4-1.5,6.53q-1.68,7.61-3.33,15.22c-1,4.66-2,9.31-3,14a3.11,3.11,0,0,0,2.88,3.52c3.3-.15,6.6-.23,9.9-.46,3.76-.26,7.53-.56,11.27-1s7.31-1.1,10.95-1.67l.71,2.1c-8.43,1.34-16.87,2.74-25.43,3a63,63,0,0,1-7.53-.08,10.34,10.34,0,0,1-5.73-2.38c-3.06-2.49-6.36-4.69-9.55-7l-6.27-4.54c-1,.87-1.84,1.78-2.83,2.5-5.17,3.78-11.77,2.7-16.07-2.55a25.68,25.68,0,0,1-5.6-15.23c-.13-2.29.14-4.61.23-6.92l1.79.4-.27,2.25a71.79,71.79,0,0,0,.49,7.35c.8,4.8,2.63,9.16,6.45,12.44a9.39,9.39,0,0,0,6.29,2.48c.29,0,.59-.3.89-.46h.25a3.56,3.56,0,0,0,1.31.14,11.15,11.15,0,0,0,5.15-3.26A22.41,22.41,0,0,0,98.06,187l0-.46.21-.5c.1-1.46.32-2.93.29-4.39a71.62,71.62,0,0,0-.42-8,19.84,19.84,0,0,0-4.69-10.49c-2.35-2.74-7.26-4.29-10.79-2a.62.62,0,0,0-.19,0l-.27.23a4.22,4.22,0,0,0-.87.37A15.23,15.23,0,0,0,75.78,169ZM219.09,97.4l-.25.24-.89.81-.29.22-.36.35-.17.1.14.06V99l.51-.22.24-.24,1-.71.24-.23.26-.23.93-.75,5.76-5.95a35.8,35.8,0,0,0,6.22-9.11c1-2,1.61-4.18,2.41-6.28a8.55,8.55,0,0,0,.12-5.56c-.11-.42-.62-.73-1.1-1.27-.46,2.36-.84,4.34-1.22,6.32a53.28,53.28,0,0,1-6.19,14l-6.26,7.63-.89.83Zm115,11,.11.35c.58,1.72,1.26,3.41,1.72,5.15.31,1.17,0,2.54.5,3.62,1.71,4,2,8.19,2.27,12.43-.46,2.84-.34,5.8-1.56,8.57l-2.05-3a18.68,18.68,0,0,0-1.57-2.21c-.86-.92-1.86-1.71-2.8-2.56l-.1-.15.13.13a21,21,0,0,1,.71,2c.82,3.4,1.6,6.8,2.4,10.21a4.42,4.42,0,0,1-1.4,3.87c-1.83,2-3.71,3.92-5.69,5.76a47.76,47.76,0,0,1-3.95,3l.22-4-.27-7.66h-.38a1.5,1.5,0,0,0-.2.4,30.54,30.54,0,0,1-6.92,14.22,12.32,12.32,0,0,1-2.66,1,47.5,47.5,0,0,1-7.6.56,63.82,63.82,0,0,1-7.48-1.16l-.17-.53a5.48,5.48,0,0,0,1-.67,19.78,19.78,0,0,0,4.61-7.06l1.85-5.93-.41-.15-.71,1.05a14.72,14.72,0,0,1-10.6,6.66l-2.11.33c-1.33-.39-2.89-.24-3.83-1.67a3.57,3.57,0,0,0,0,1c.08.63.17,1.25.25,1.88.12,2.94.23,5.89.34,8.83,0,.36-.07.71-.09,1.07A57.16,57.16,0,0,1,285,179a1.28,1.28,0,0,0,.65,1.81,36.66,36.66,0,0,0,26.47,4.88,43.28,43.28,0,0,0,25.08-13.92c1.81-2,3.26-4.3,4.87-6.46a1.52,1.52,0,0,0,.25-.26c6.8-11.35,8.7-23.31,4.33-36a27,27,0,0,0-4.58-8.59l-2.16-3c.11,3.32.29,6.47-.67,9.57,0-2.49.12-5-.09-7.47a19.51,19.51,0,0,0-4.72-11l-.28-.19L334,108l-.11.05ZM106.74,170l-.13-.09.1.12.24.48.24.24a8.56,8.56,0,0,0,.35,1.12,20.3,20.3,0,0,1,1.39,12.64,48.38,48.38,0,0,1-1.73,5.4l-.23.48-.09,0s0,0,0,.06l.11-.1.25-.46a14.35,14.35,0,0,0,1.42-2.36,22,22,0,0,0,.53-11.84,29.83,29.83,0,0,0-2-5l-.23-.25ZM253,98.28h0l-.25-.49h0l-.27-.41c-.53-.92-1-1.86-1.59-2.73s-1.25-1.55-1.82-2.36c-.41-.58-.44-1.08.53-1a.85.85,0,0,0,.14.19c4.87,3.64,7.27,8.71,8.21,14.55a17.89,17.89,0,0,1-.19,3.78h-.65a15.79,15.79,0,0,0-.78-7.6c-1-2.9-2.74-6.05-4-6.82a29.69,29.69,0,0,1,3.91,10.67c.43,2.35-.08,4.09-1.52,4.78.25,13.08-3.36,24.86-11.51,34.94,2.46.86,4.88,1.64,7.24,2.56a19.48,19.48,0,0,0,10.52,1,33.74,33.74,0,0,0,14.3-6.46,11.12,11.12,0,0,0,4.35-5.45,25.21,25.21,0,0,0,1.49-10.92,63.55,63.55,0,0,0-7.66-24.88c-1.66-3-3.74-5.83-5.62-8.73l-.18-.26a3.29,3.29,0,0,0-.21-.42,62,62,0,0,0-27.87-20.88,17.69,17.69,0,0,0-2.2-.55.87.87,0,0,0-1.18.81c-.12.87-.17,1.74-.26,2.6-.29.94-.57,1.87-.87,2.81a44.11,44.11,0,0,1-5.55,10.71l-.29.39a5,5,0,0,1-.6,1.7c-.44.53-1.29.73-1.71,1.27a10,10,0,0,0-1,2.13c0,.06-.22,0-.34,0l-.06-.48-.24-.22a5,5,0,0,1-.68,1c-2.78,2.44-5.51,5-8.4,7.26-4.87,3.87-10.71,5.67-16.59,7.26a2.63,2.63,0,0,0-2.12,2.37,18.42,18.42,0,0,0,.55,8c.29,1.08.81,1.28,1.86,1.23,2.35-.09,4.7,0,7.06,0a2.29,2.29,0,0,0,1.44-.29,3.56,3.56,0,0,1,3.67-.75l3.49.85c.61.16,1.07,0,1.14-.67a2.74,2.74,0,0,1,2.82-2.65,2,2,0,0,0,.54-.18c-.39-.86-.81-1.63-1.09-2.45a2.05,2.05,0,0,1,.81-2.72,1.68,1.68,0,0,0,.59-1c.2-.86.3-1.73.44-2.6.56-3.42,1.09-6.85,1.69-10.27a1.67,1.67,0,0,1,.79-1.06c.2-.1.67.35,1,.56q-.72,7-1.46,13.92a13.16,13.16,0,0,1-.39,1.62,1.3,1.3,0,0,0-.59,2.16,4,4,0,0,1,.65,1.62,6,6,0,0,1-.31,1.69c-1.54.42-3.29.51-3.68,2.6,0,.31-.39.56-.6.85l-.7.58c-1.66-.15-3.31-.32-5-.42-.69,0-1.58-.18-2,.17-1.28,1-2.88,2-3.47,3.31a21.07,21.07,0,0,0-.14,17c.38.65.74,1.85,1.16,1.87,2.75.15,5.14,1.43,7.65,2.27a42.84,42.84,0,0,0,17.9,2.33,12.45,12.45,0,0,0,9.16-4.91A48.59,48.59,0,0,0,253,111.53c0-2-.07-2,1.87-2,.07,0,.13-.06.2-.1.88-2.86.11-7-1.61-10.18l-.27-.71Zm8.39,57.31.12.37c.93,1,1.86,1.95,2.8,2.92.65.66.75,1.29-.07,1.89l-2.86-2.05a36.41,36.41,0,0,0-16.16-10c-2-.57-4-1.28-5.95.18-.11.08-.3.07-.46.12a33.67,33.67,0,0,1-10.27,1.42,2.14,2.14,0,0,0-1.31.33,22.69,22.69,0,0,0-6.16,8.69h0l-.29.48c-.93,2.23-2,4.42-2.78,6.7-1.54,4.57-2.9,9.19-4.36,13.78-.25.81-.39,1.68-1.5,2-.64.16-.66.71,0,1.11.47.29.95.56,1.4.89a44,44,0,0,1,8.58,8.92l.19.23h0c.18.3.35.62.55.91a53.45,53.45,0,0,1,6.1,11.92c.33.94.66,1.87-.45,2.54,1.07.93,1.33.91,2.15-.19,2.06-2.8,4.18-5.62,7.13-7.5a63.22,63.22,0,0,1,7.75-3.92,3.18,3.18,0,0,0,2.07-2.62c.24-1.45.72-2.85,1.09-4.28l0,0,2.2.12c.48-.68.75-1.86,2.09-1.17a46.1,46.1,0,0,0,16,5,5.65,5.65,0,0,0,4.45-1.26c4.72-3.94,7.21-9.21,8.9-15a11.81,11.81,0,0,0,.55-1.39A59,59,0,0,0,284.91,158a67,67,0,0,0-3.27-19.35c-7.65,7.31-15.89,12.9-27.32,11.76,1.8,1.22,3.34,2.33,4.95,3.34s3.31,1.71,4.78,2.81a29.05,29.05,0,0,1,3.26,3.3l-.4.41-1.24-1.09-4-3.38-.27-.2-.32-.16,0,.1Zm-45.1,42.68.21.35a.11.11,0,0,0,.06.12l.2.3.24.43c2.14,4.18,4.28,8.36,6.49,12.66a28.47,28.47,0,0,1,3.2-3.8c1.33-1.13,1.23-2.19.67-3.56A50.42,50.42,0,0,0,217.46,189c-1.44-1.52-3.13-2.8-4.71-4.2h0l-.25-.24c-.34-.13-.77-.47-1-.37-.91.36-1.41-.15-2-.66-2.75-2.37-5.53-4.7-8.28-7.06a3.15,3.15,0,0,0-2.95-.7,50,50,0,0,1,11.12,11.74c2.31,3.36,4.47,6.83,6.69,10.25l.27.48Zm116.8-86.54-.16-.06.18,0,2.3,3.79C335.44,113.29,335.11,112.76,333.13,111.73Zm-140.32-4.2,2.18-.38a7.52,7.52,0,0,0,.83-.09c15.63-3.53,26.45-12.79,32.75-27.44a37.71,37.71,0,0,0,3-12.24,40.25,40.25,0,0,0-.12-10.63c-3.13-24.77-27-42.52-51.64-38.46-25.35,4.18-42.16,27.8-37.27,53,3.23,16.66,13.2,28,29.07,34.07A40.36,40.36,0,0,0,190,107.79Zm-37.88,12.58c-1.57,1.48-3.47,2.75-3.48,5.27,0,2-.54,4.07,1.17,6,.48-.78,1.1-1.37,1.17-2a46.54,46.54,0,0,0,.11-4.73c.37-1.48.75-3,1.12-4.44l.08-.27Zm31.5-1.76-.33-1.07.24-.14.74.78,1.37,3.93.39,1.59.47-.15-.7-1.59,0-.68.29-.07.85,1.54,6.54-2.83a21,21,0,0,1-.54-10.44l-5.12.68a3.1,3.1,0,0,0-.92.54,10.06,10.06,0,0,0-2.41,5c-.13.85-.56,1.65-1.52,1.53a1.9,1.9,0,0,0-2.09,1.26l1.41,1.67,2.34,5c.31-.65.73-1.11.65-1.43C187.62,121.76,187,120.06,186.43,118.35ZM97.19,167.06l-.16-.28-.08.07.15.28c.11.34.23.68.31,1,.64,2.84,1.27,5.69,1.91,8.53.07.95.21,1.9.2,2.85a41,41,0,0,1-1.32,10.35c-.42,1.5-1,3-1.42,4.41,2-1.08,3.87-2.27,5.9-3.13a5.68,5.68,0,0,0,2.93-2.61c1.78-3.2,2-6.66,1.78-10.2-.23-1.08-.37-2.2-.7-3.25-.94-3-2.07-5.83-5.82-6.44A16,16,0,0,1,97.19,167.06ZM324.5,103.33l-.15-.14,0,.11.18,0,1.83,4.53c-2-.56-3.95-1.21-5.92-1.63s-4-.63-6-.93c10.84,4.78,19.09,12,23.52,23.28a31.33,31.33,0,0,0-1.54-9c-1.26-3.84-3.73-7-5.8-10.37A19,19,0,0,0,324.5,103.33ZM192.83,135.67a1.65,1.65,0,0,1,.83,2c-.14.69-.24,1.39-.36,2.09-.39.95-.09,1.52.87,1.95a3.68,3.68,0,0,1,1.61,1.29c1.9,3.18,1.74,2.36,4.65,1.85l.43-.09c-.19-.41-.61-.92-.49-1.18a1.93,1.93,0,0,1,1.14-.82c1-.31,2.06-.49,3.21-.75l-.56-1.54c-.07-.35-.12-.7-.2-1a24.88,24.88,0,0,1-.28-10.89c.48-2.26,1.38-4.43,2.15-6.83-3.34.18-6.74.39-10.14.54a5.58,5.58,0,0,0-3.8,1.72,55.68,55.68,0,0,0-9.41,8.06c-.75.79-.89,1.51-.34,2.26,1.88-1.25,3.73-2.52,5.63-3.72.93-.59,1.94-1.06,2.91-1.59,1.34-.19,1.49.68,1.49,1.68-.51.71-1,1.44-1.52,2.14-1.37,1.85-2.84,3.65-4.12,5.56a13.26,13.26,0,0,0-1.09,2.84l.34.13a22.19,22.19,0,0,1,2.37-2.47C189.65,137.71,191.27,136.72,192.83,135.67ZM210,201.78l5.58-1.17.12.51-7.15,1.72a25.74,25.74,0,0,0,1.81,2.27,2,2,0,0,0,1.29.55c.9,0,1.8-.27,2.7-.37,1.21-.14,2.43-.22,3.64-.32l.06.53-6.72,1c.72.84,1.35,1.5,1.89,2.23a1.7,1.7,0,0,0,1.92.73c1.57-.26,3.17-.28,4.76-.4l.06.44c-1.62.76-3.47.41-5.39.74a19.31,19.31,0,0,0,5.12,4.34,1.26,1.26,0,0,0,.55.17,2.74,2.74,0,0,0,1.93-4c-.16-.27-.38-.51-.53-.79a175.94,175.94,0,0,0-8.87-15.85c-3.63-5.57-7.38-11-12.34-15.43a16.5,16.5,0,0,0-2.36-1.82c-1.37-.85-2.25-.36-2.26,1.23a21.1,21.1,0,0,0,.21,2.36l4.89-.64.08.52-4.72.92a13.05,13.05,0,0,0,.67,2,1.3,1.3,0,0,0,1,.56c.94,0,1.88-.27,2.83-.37,1.18-.12,2.37-.18,3.55-.26l.07.56-6.92.9c.28.63.49,1.15.73,1.65.75,1.59.74,1.51,2.55,1.28,2-.26,4-.36,6.06-.51.14,0,.3.17.45.26-.1.14-.19.37-.31.4a17.5,17.5,0,0,1-1.77.24c-1.91.19-3.82.36-5.85.54a30,30,0,0,0,1.53,2.76,1.45,1.45,0,0,0,1.09.54c2.72-.15,5.43-.38,8.15-.58-1,1.27-2.58.73-3.87,1a31.75,31.75,0,0,1-4.63.34c.49.78.91,1.36,1.23,2a1.84,1.84,0,0,0,2,1.11c2.47-.15,4.94-.19,7.42-.26a4.17,4.17,0,0,1,.78.1V196l-8.16.37,3.66,4.79,6.89-1.57.11.4c-1.73,1-3.82.93-5.66,1.61l-1.47.31,0,.26ZM110.36,177.4c0,1.74.11,3.49-.06,5.21a26.5,26.5,0,0,1-1.06,5.46c-.62,1.9-1.63,3.53-3.89,4.15a28,28,0,0,0-5.21,2.3,24.5,24.5,0,0,0-2.74,1.85L114,208.21c.3-1.88.62-4,1-6,.41-2.34.88-4.68,1.32-7,.37-1.67.71-3.34,1.09-5,1.43-6.15,2.86-12.31,4.33-18.45a1.5,1.5,0,0,0-.82-1.95c-1.85-1-3.65-2.13-5.48-3.17-5.06-2.87-10.1-5.79-15.21-8.58-4-2.17-8.06-4.18-12.12-6.22a1.11,1.11,0,0,0-1,.23c-.78,2.07-1.49,4.17-2.25,6.35a21.11,21.11,0,0,1,2.66,0,12.34,12.34,0,0,1,7.83,4.19,15,15,0,0,0,8.19,4.87,7.15,7.15,0,0,1,5.7,5.46C109.68,174.38,110,175.9,110.36,177.4Zm30.46-14.79c2.39-.11,4.39-.22,6.4-.29,3.25-.1,6.49-.16,9.74-.24,3.47-.08,6.93-.15,10.4-.25,1.67-.05,3.33-.17,5-.22,1.3,0,2.61,0,3.91,0a1.36,1.36,0,0,0,.89-.58c1.78-2.74,3.51-5.5,5.26-8.25,1.38-2.17,2.78-4.33,4.22-6.58a3.85,3.85,0,0,0-.59-.15c-2.14-.17-4.28-.31-6.41-.51-4.86-.45-9.72-.95-14.58-1.4-3.56-.34-7.12-.64-10.68-1a1.57,1.57,0,0,0-1.72.72c-2.95,4.68-5.95,9.33-8.92,14C142.81,159.32,141.93,160.81,140.82,162.61Zm46.24-3.69c-.37-4.8,3.05-7.13,5.74-9.85l-5.21-.75-5.35,8.33ZM160.18,127.4l5.11,1.66c2.15-1,2.22-3.37,3.17-5.47a25.29,25.29,0,0,0-3.34-1.42,2.16,2.16,0,0,0-1.86.36C162.13,124.07,161.2,125.76,160.18,127.4Zm28.7,19.24,6.83.45a20.49,20.49,0,0,1-1.3-2.14,2.33,2.33,0,0,0-1.63-1.53,2.07,2.07,0,0,1-1.65-2.31c0-.73,0-1.46,0-2.52L186,144c.8.11,1.3.19,1.8.24C189.58,144.46,189.75,144.76,188.88,146.64Z" transform="translate(-15.43 -15.65)"/><path class="b" d="M73.69,176.13l-1.79-.4c-3.18-.15-6.37-.49-9.54-.41-4.9.14-9.79.57-14.68.87a4.93,4.93,0,0,1-3.84-1.34,9,9,0,0,1-2.12-2.42c-.83-1.78-2.32-2-4-2.23A36.27,36.27,0,0,1,32.32,169c-1.78-.57-2.28-1.83-1.61-3.6,1.45-3.86,4.4-6,8.25-7.14.54-.15,1.08-.28,1.6-.47,1.87-.67,2.32-1.74,1-3.22A47,47,0,0,0,35.6,149a50.67,50.67,0,0,0-13-7.57,14.05,14.05,0,0,1-6.4-4.47,3.31,3.31,0,0,1-.28-4,11.46,11.46,0,0,1,5.21-4.6,37,37,0,0,1,12.69-3.64c6.1-.59,12.27-.42,18.39-.85a39.8,39.8,0,0,0,18.53-5.66c.14-.08.27-.18.4-.27,3.28-2.34,4.11-4.5,3-8.38a37.51,37.51,0,0,0-6.88-12.75c-1.76-2.29-4.27-3.54-6.4-5.3a21.64,21.64,0,0,1-2.84-2.74c-1.19-1.4-.92-3.37.52-5.1A12.89,12.89,0,0,1,64.06,80a9.79,9.79,0,0,0-2.2,6.23c-.13,2.43,1.3,4.08,2.57,5.86,1.82,2.55,4.41,4,7.1,5.5,4.06,2.2,8.09,4.47,12,6.88a17.07,17.07,0,0,1,4,3.53c2.41,2.88,2.14,6-.58,8.63a24.78,24.78,0,0,1-15.78,6.86c-4.56.33-9.12.69-13.66,1.16a73,73,0,0,0-11.19,1.53C41,127.61,36,129.78,31.9,133.72a9.52,9.52,0,0,0-2,3.08,2.08,2.08,0,0,0,1,2.95,44.18,44.18,0,0,0,5.89,2.16c7.45,2.16,14.72,4.75,21.36,8.81a18.32,18.32,0,0,1,4.34,3.86,5,5,0,0,1,.14,6.14,2.81,2.81,0,0,1-.35.48c-1,.91-1.19,1.68-.2,2.62a10.67,10.67,0,0,0,3.57,2.47c2.65.94,5.43,1.52,8.15,2.25l1.9.45,16.5,5.63L97.12,177c.08,1,.25,2,.24,3,0,1.86-.15,3.72-.23,5.58l-5.27-.4c-2.64-.56-5.31-1-7.94-1.72-2.18-.56-4.12-1.54-4.77-4a2,2,0,0,0-.94-1.18C76.73,177.43,75.2,176.8,73.69,176.13Z" transform="translate(-15.43 -15.65)"/><path class="c" d="M150.68,209c-.23-.7-.47-1.4-.71-2.1q-1.93-3.81-3.88-7.62l-.5-.73-.18-.23a6.38,6.38,0,0,0-.43-.71c-1.21-1.57-2.95-2.06-4.8-2.38a1.8,1.8,0,0,1-1.72-1.93,2,2,0,0,1,2-1.71c.47,0,.94,0,1.4,0,.38-2.42,1.51-3,3.69-1.93,1.07.53,2.09,1.16,3.13,1.75l.89.48.58.68.44.26.73.75c1.19,1.87,2.49,3.69,3.54,5.64s1.92,4.19,2.86,6.29c.33.66.65,1.32,1,2,.89,3.13,3.17,5,5.94,6.34a13.2,13.2,0,0,0,5.8,1.28l.12-.3a5.45,5.45,0,0,0-.72-.37c-1-.4-2.14-.69-3.13-1.19-2.49-1.26-2.78-3.85-.47-5.44a13.81,13.81,0,0,1,4.67-2,27.7,27.7,0,0,1,21.43,3.33,3.11,3.11,0,0,0,1.79.4,24.36,24.36,0,0,1,8.92.54,13.84,13.84,0,0,1,7.66,4.84c2,2.7,4.95,3.15,7.95,3.51,1,.12,1.91.18,2.86.29,1.46.16,2.29.93,2.21,2a2,2,0,0,1-2.43,1.77c-2.54-.25-5.09-.52-7.6-1s-4.45-2.08-6.11-4c-.44-.49-.8-1.05-1.26-1.66-.3.45-.38.51-.37.57.46,4.09-1.57,6.87-6.16,7.49a146,146,0,0,1-15.5,1.2c-5.31.14-10.64,0-15.93-.36s-10.39-1.26-15.59-1.81c-3.77-.39-7.56-.58-11.34-.88a13,13,0,0,1-1.54-.19,4.2,4.2,0,0,0-3.74.61,2.08,2.08,0,0,1-3.08-.34c-.7-1-.39-2.15.79-3.12a6.44,6.44,0,0,1,4.87-1.59c4.29.4,8.59.68,12.88,1.13,4.76.51,9.5,1.28,14.27,1.7,4.09.36,8.21.46,12.32.54s8,.1,12-.07c2.95-.12,5.88-.53,8.81-.94a6.56,6.56,0,0,0,2.38-1.05c.65-.4.7-1.08,0-1.39-1.66-.68-3.36-1.23-5.06-1.8a.66.66,0,0,0-.58.24c-.91,1.54-2.46,2-4,2.36a53.32,53.32,0,0,1-11.75,1.4,73,73,0,0,1-21.12-2.32,25.68,25.68,0,0,1-4.68-1.79,4.57,4.57,0,0,1-1.84-2,26.09,26.09,0,0,1-1.18-3.63A4.62,4.62,0,0,0,150.68,209Zm43.9,4.37c2.71,1,5.23,1.85,7.66,2.89a1.79,1.79,0,0,1,.51,3.13,7.94,7.94,0,0,1-3.5,1.88,77.6,77.6,0,0,1-16.61,1.06c-3.75-.19-7.5-.32-11.25-.22-4.62.12-9.08-1-13.64-1.34-3.56-.26-7.11-.76-10.67-1.1-2.17-.21-4.37-.23-6.54-.5s-4.07-.62-5.74,1a4.62,4.62,0,0,0-.64,1.34,9.9,9.9,0,0,0,1.34-.25c1-.33,2-1.09,2.94-1,4.16.24,8.3.7,12.45,1.11,4,.39,8,.53,11.84,1.31,5.14,1,10.32.8,15.47,1a108.24,108.24,0,0,0,20.51-.91,8.18,8.18,0,0,0,5.09-2.41,3.25,3.25,0,0,0-.61-5.05,49,49,0,0,0-6-2.35c-1.37-.49-3-.58-4.1-1.42a22.12,22.12,0,0,0-7.93-4,26.83,26.83,0,0,0-14.28-.24,13.78,13.78,0,0,0-3.89,1.75,1.57,1.57,0,0,0,.24,2.91,17.8,17.8,0,0,0,3.59,1.26,34.45,34.45,0,0,0,11.14.79c1.74-.19,3.49-.19,5-1.24a.71.71,0,0,1,.44-.13c1.66.2,3.31.39,5,.64a1,1,0,0,1,.62.47c.46.79.15,1.33-1.22,1.6a52.64,52.64,0,0,1-8.57,1.41c-6,.19-12.13.49-18.1-.89-3-.7-6-1.57-9-2.38a2.47,2.47,0,0,1-1.7-2.09,44.15,44.15,0,0,0-6.76-14.55,9.22,9.22,0,0,0-6.56-3.93c-.4-.05-.86.32-1.29.49.33.23.63.6,1,.65a8.44,8.44,0,0,1,6.06,3.84,46.77,46.77,0,0,1,6.59,14.78,2.26,2.26,0,0,0,1.35,1.64,41.16,41.16,0,0,0,15.73,3.6c6.9.35,13.89.78,20.71-1.08C192.89,216.29,194.78,216.11,194.58,213.32Zm-33.71-.08a14.9,14.9,0,0,1-3.89-5.77c-1.36-3.18-2.71-6.38-4.26-9.48a15.57,15.57,0,0,0-8.24-7.45c-.32-.13-.78.07-1.18.12.23.32.4.78.71.92,4.74,2.09,7.41,5.94,9.32,10.56,1.32,3.19,2.85,6.3,4.31,9.44C158.26,212.92,159.53,213.11,160.87,213.24Zm35-2.25c1.39.4,2.77.88,4.19,1.17,3.39.69,6.44,1.87,8.79,4.62a10.65,10.65,0,0,0,3.63,2.81,22.42,22.42,0,0,0,9.12,1.46c.27,0,.55-.31.83-.47-.27-.18-.53-.47-.82-.51-1.8-.26-3.61-.47-5.42-.7a8.69,8.69,0,0,1-6.05-3C206.5,211.72,201.51,210.59,195.92,211Zm-6.58,3.36-.1-.44-3.75.9,0,.21Z" transform="translate(-15.43 -15.65)"/><path class="d" d="M144.41,151.77c-1.13,2.09-2.24,4.19-3.42,6.25a5.16,5.16,0,0,1-1.29,1.39,2,2,0,0,1-2.79-.12c-.7-.76-.59-1.7.28-2.64a11.85,11.85,0,0,0,2.9-5.12,12.06,12.06,0,0,0,.91-7.78c-.84,1.39-1.54,2.72-2.4,3.94-1.22,1.73-2.8,2.95-5.1,2.63-.7-.1-1.38-.32-2.07-.48h0c0-.11,0-.27-.1-.33a4.78,4.78,0,0,1-1.55-5.66,36.75,36.75,0,0,1,2.14-4.31l.22-.26.09,0s0,0,0-.06l-.09.11-.28.2a19.75,19.75,0,0,1-2.44.88,3.87,3.87,0,0,1-3.88-.87,3.33,3.33,0,0,1-.52-3.78c.16-.4.27-.82.4-1.24l1-1.84,5.16-3.77c-.43-2.56-4.19-4.08-6.84-2.29a14.12,14.12,0,0,0-2.62,3c-.42.51-.7,1.28-1.23,1.53a2.29,2.29,0,0,1-2,0,2.53,2.53,0,0,1-.92-2,8,8,0,0,1,1.27-3c3.27-4.89,9.4-5.92,13.76-2.4a8.15,8.15,0,0,1,2.84,4.59c.09.39.29,1,.57,1.06,2.48.81,3.92,2.64,5,4.83l.51,2a3.36,3.36,0,0,0,1,3,9.11,9.11,0,0,1,1.82,3.28C145.89,145.55,145.25,148.68,144.41,151.77Zm-9.31-16.36L133.58,138l4.12-1.34-.42-1.16L136,133.64l-.37.13Zm4.09,2.7c-3.84-.08-6.32,1.81-7.73,5.2-.55,1.34-1,2.78-.09,4.13,1.34,2.06,4.12,1.95,5.77-.13a18.51,18.51,0,0,0,3.31-7.07c.38.45.64.74.86,1.06,1.55,2.18,1.6,4.6,1.15,7.1a16.92,16.92,0,0,1-4.43,9.21c-.18.17-.17.53-.24.8.32.07.71.28,1,.17a2.66,2.66,0,0,0,.95-.88,19.53,19.53,0,0,0,4.23-12.9,7.37,7.37,0,0,0-2.4-5.29,2.76,2.76,0,0,1-1-2.24,6.8,6.8,0,0,0-5-6.69,1.73,1.73,0,0,1-1-1.25,6.91,6.91,0,0,0-5.61-6.08c-4.43-1-8.14,1.92-9.48,5.45-.14.38.12.9.2,1.36a6.49,6.49,0,0,0,1.05-.89,23.63,23.63,0,0,1,2.21-3.06c3.5-3.35,9.3-1.47,10.24,2.79.23,1,.13,1.51-1,1.8a7.77,7.77,0,0,0-5.7,5.13c-.34.94-.73,1.9,0,2.69s2,.61,3.05.35a2.78,2.78,0,0,0,.44-.19c2.46-1.07,3.58-3.17,4.25-5.6.38-1.37.48-1.44,1.77-.91C138.08,133,139.41,135.45,139.19,138.11Z" transform="translate(-15.43 -15.65)"/><path class="d" d="M113.21,150.08l-.89-1.89a6.05,6.05,0,0,1,2.35-5.2A4.78,4.78,0,0,0,109,141.4a2,2,0,0,1-2.3-.51,2,2,0,0,1-.22-2.44,3.92,3.92,0,0,1,3.31-1.83,9.29,9.29,0,0,1,5.56,1.48c.38.21.75.43,1.12.65l2.51,2.52c.27.13.53.37.8.39a10.11,10.11,0,0,1,8.66,5.84,4,4,0,0,0,3,2.35h0l2.14,1.91c.77,1.45,1.56,2.9,2.3,4.37a3,3,0,0,1,.15,1.17,1.8,1.8,0,0,1-1.6,2,1.93,1.93,0,0,1-2-1.5c-.33-.92-.7-1.84-1.11-2.72-.14-.29-.48-.49-.7-.69l-1.5,3.11c-.18.14-.38.27-.56.42a3.82,3.82,0,0,1-6.35-2,16.32,16.32,0,0,1-.12-2.72l.51-1.7c.64-.74,1.29-1.47,2-2.32a6.33,6.33,0,0,0-3.83-3.13l-.3,2.14-1.52,2.34C116.48,151.91,115.42,151.82,113.21,150.08Zm3.74-6.66a4.6,4.6,0,0,0-3.12,3.47,2.51,2.51,0,0,0,1.61,3,2.85,2.85,0,0,0,3.74-2.81,24.57,24.57,0,0,0-.13-2.57c3.18-.28,6.35,2.12,7.55,5.73-.27.14-.54.3-.83.42-2.57,1.09-2.51,3-2.08,5.43a2.14,2.14,0,0,0,1.19,1.21,2.86,2.86,0,0,0,3.92-2.69c0-.89,0-1.79,0-2.85a7.26,7.26,0,0,1,4.77,5.32c.08.36.51.64.78,1,.13-.4.43-.84.37-1.2a7.43,7.43,0,0,0-4.7-5.9,5.11,5.11,0,0,1-2.84-2.73c-1.68-3.12-4.2-5-7.92-5.09a2.4,2.4,0,0,1-1.5-.92c-2.07-2.54-4.56-4.24-8-4a4.82,4.82,0,0,0-2,.87c-.15.09,0,.61-.07.94a4.13,4.13,0,0,0,.93,0c.71-.17,1.46-.68,2.12-.57A8.82,8.82,0,0,1,117,143.42Z" transform="translate(-15.43 -15.65)"/><path class="e" d="M119.38,80.07c1.34,6.46,2.68,12.91,4,19.44l7.19-1.73c-.4,6.67-.8,13.21-1.19,19.75l-.26,0-1.94-13.16-5.87,1.48c-.74-8.68-1.47-17.21-2.2-25.73Z" transform="translate(-15.43 -15.65)"/><path class="e" d="M138.06,86.62v11.5l5-.54c-1.94,5.57-3.82,11-5.69,16.36l-.24-.06c.69-3.86,1.37-7.72,2.09-11.79l-4.45.32c1.09-5.35,2.15-10.55,3.22-15.75Z" transform="translate(-15.43 -15.65)"/><path class="d" d="M174,130.9l1.27.95L175,134c-.82.24-1.63.51-2.46.73-1,.27-2,.5-3,.74l2.24,3.41a5.73,5.73,0,0,1-.49,3.88l-2-.26a2.81,2.81,0,0,0,.34-4.44,28.88,28.88,0,0,0-3-2.3,2,2,0,0,1,.35-.32,13.16,13.16,0,0,1,6.12-2.14,2.87,2.87,0,0,0,1-.46,10.28,10.28,0,0,0-.93-.7.75.75,0,0,0-.47,0,15.06,15.06,0,0,0-7.43,3,5,5,0,0,1-2.17,1,12.11,12.11,0,0,0-6,2.65,18.09,18.09,0,0,0-2.13,2.47l-1.72-.22,2.22-2.88,1.33-1.25c.5-.22,1-.48,1.51-.66,1.57-.53,3.16-1,4.73-1.57a10.67,10.67,0,0,0,1.59-.86l4.76-2.39Z" transform="translate(-15.43 -15.65)"/><path class="b" d="M65.6,78.51c.72-.83,1.44-1.66,2.14-2.5A10.58,10.58,0,0,0,70,70.09a2.63,2.63,0,0,0-.42-1.34A19.52,19.52,0,0,1,67,59c.66,1.74,1.33,3.66,2.12,5.54a3.81,3.81,0,0,0,3.25,2.31c2.07.29,2.55,1.05,1.8,3.07a15,15,0,0,1-5.73,7.15c-.85.6-1.77,1.11-2.66,1.67Z" transform="translate(-15.43 -15.65)"/><path class="a" d="M119,141.27l-2.51-2.52c-.34-1.55-.7-3.1-1-4.65s.3-2.45,2-2.3c3,.25,6,.56,9,.85l-1,1.84-7.93-.8C118,136.24,118.48,138.75,119,141.27Z" transform="translate(-15.43 -15.65)"/><path class="a" d="M156.74,136.89l-1.33,1.25a12.27,12.27,0,0,0-1.77-1,7.14,7.14,0,0,0-1.55-.1c-3.36-.3-6.72-.62-10.08-.93l-.51-2c4.54.42,9.08.86,13.63,1.25C156.1,135.5,156.74,135.81,156.74,136.89Z" transform="translate(-15.43 -15.65)"/><path class="e" d="M113,110.33l2.58-2.2c.85,3.62,1.67,7.1,2.48,10.58l-.28.1c-.86-2-1.73-4.06-2.64-6.23l-2.42,2L110,104.17l.3-.13Z" transform="translate(-15.43 -15.65)"/><path class="e" d="M118.09,119.29h.07a.2.2,0,0,1,0,.11l-.13,0Z" transform="translate(-15.43 -15.65)"/><path class="f" d="M146.09,199.23Q148,203,150,206.85c-3.64.57-7.28,1.23-10.95,1.67s-7.51.76-11.27,1c-3.3.23-6.6.31-9.9.46a3.11,3.11,0,0,1-2.88-3.52c1-4.66,2-9.31,3-14q1.65-7.62,3.33-15.22c.47-2.13,1-4.25,1.5-6.53.88-.09,1.89-.24,2.91-.29,5.33-.26,10.66-.49,16-.74,3.06-.15,6.12-.3,9.18-.48,1.58-.09,3.16-.29,4.75-.4,1.76-.13,3.54-.18,5.31-.31,4.24-.3,8.48-.64,12.72-.93,2.86-.2,5.72-.4,8.58-.49q5.92-.19,11.85-.23a12.84,12.84,0,0,1,3.49.49,2.26,2.26,0,0,1,1.37,1.28,29.31,29.31,0,0,1,.62,3.88c.13.86-.27,1.12-1.09,1.06a4.55,4.55,0,0,0-3.39,1.21c-1.6,1.38-1.53,3.32-1.15,5a67.58,67.58,0,0,0,2.76,8.36,2.3,2.3,0,0,1,0,2.22c-.94,1.61-1.63,3.39-2.71,4.89-1.46,2-3.93,2.3-6.12,2.94s-4.63,1.19-6.94,1.75q-7,1.69-13.91,3.36c-3.09.74-6.19,1.44-9.29,2.16-.94-2.1-1.78-4.26-2.86-6.29s-2.35-3.77-3.54-5.64a9.64,9.64,0,0,0,.32-1.39c.13-1.61.55-3.29.25-4.82-1-5-5.79-7.57-10.79-6.15a11.75,11.75,0,0,0-8.46,12.35,7.47,7.47,0,0,0,3.09,5.45C139.11,201.37,142.59,201.05,146.09,199.23Z" transform="translate(-15.43 -15.65)"/><path class="g" d="M222.13,193.25a44,44,0,0,0-8.58-8.92c-.45-.33-.93-.6-1.4-.89-.63-.4-.61-.95,0-1.11,1.11-.28,1.25-1.15,1.5-2,1.46-4.59,2.82-9.21,4.36-13.78.77-2.28,1.85-4.47,2.78-6.7l.29-.48h0a9,9,0,0,0,.81-.43c2.27-1.51,4.52-3.07,6.82-4.53a3,3,0,0,1,1.92-.47c1.6.26,3.15.79,4.74,1.1a4.69,4.69,0,0,0,2-.11,33.35,33.35,0,0,1,4.61-1.48,19.46,19.46,0,0,1,5,.2A32.21,32.21,0,0,1,259.72,158a13.72,13.72,0,0,0,1.7.76l2.86,2.05a7.09,7.09,0,0,1,.93,1.21c1.64,3.36,3.25,6.73,4.87,10.1.22.45.49.88.74,1.31l.47-.2a35.14,35.14,0,0,0-3.64-12.14,1.22,1.22,0,0,1,1.71.55q1.92,2.73,3.92,5.41c.4.55.87,1.05,1.35,1.62.83-.95.35-1.71,0-2.37q-1.39-2.72-3-5.32c-.47-.79-.53-1.29.3-1.88,3.28-2.34,4.94-5.73,6.07-9.48.55-1.84,1.32-3.62,2-5.42l.37.05c.3.76.64,1.52.89,2.3,1.22,3.82,2.41,7.66,3.61,11.49a59,59,0,0,1-2.05,18.74,11.81,11.81,0,0,1-.55,1.39c-2.75,1.66-5.42,3.49-8.29,4.91-2.41,1.19-5,2.08-7.83,1.28-4.13-1.17-8.26-2.34-12.37-3.57a1.51,1.51,0,0,1-.77-1c-.67-2.69-1.25-5.41-1.92-8.1a6.44,6.44,0,0,0-.85-1.47l-.27.16.38,9.41H250c-.29-1.66-.49-3.35-.88-5s-.9-2.92-1.37-4.37a15.16,15.16,0,0,0-1.93-2.7c-1.92-1.77-4-3.38-6-5-.14-.12-.42-.08-.63-.11a2.43,2.43,0,0,0,.14.82c1.53,2.78,3.26,5.46,4.58,8.32s2.39,6.18,3.56,9.27v1.49a37.54,37.54,0,0,1-2.53-3.66c-1.35-2-2.73-3.9-4.17-5.8-.22-.3-.8-.33-1.21-.49a4,4,0,0,0,.21,1.17,79.73,79.73,0,0,1,5.93,14.07c.15.47.23,1,.36,1.48l-.61.13c-2.42.56-4.82,1.18-6.41,3.31q-2,2.68-3.94,5.4c-1,1.47-2.06,3-3.15,4.55a4.66,4.66,0,0,1-.38-.48c-2.39-3.56-4.73-7.16-7.19-10.68a16.47,16.47,0,0,0-2.41-2.3c-.26-.31-.49-.62-.76-.91-1.6-1.72-3.18-3.45-4.83-5.11a6.61,6.61,0,0,0-1.69-.89c2.1,2.24,4,4.29,5.93,6.32.45.48,1,.91,1.44,1.36a2.77,2.77,0,0,0,.19.9c.72,1.18,1.53,2.31,2.23,3.5.84,1.44,1.61,2.93,2.4,4.4l-.28.16c-.7-1-1.36-2-2.1-2.93s-1.47-1.68-2.21-2.51h0Z" transform="translate(-15.43 -15.65)"/><path class="h" d="M222.56,112.19a13.16,13.16,0,0,0,.39-1.62q.75-7,1.46-13.92l1.27-3.27c.12,0,.32,0,.34,0a10,10,0,0,1,1-2.13c.42-.54,1.27-.74,1.71-1.27a5,5,0,0,0,.6-1.7h0l.38,1,1.54-1.65-.32-.34-1.09.76-.21-.17a44.11,44.11,0,0,0,5.55-10.71c.3-.94.58-1.87.87-2.81a4.1,4.1,0,0,1,.94.13c3.82,1.45,7.77,2.67,11.43,4.45a63.67,63.67,0,0,1,18,13,8.38,8.38,0,0,0,1.33.9l.18.26a5,5,0,0,0,.28,1,62.7,62.7,0,0,1,6,19.76,35.92,35.92,0,0,1-.56,14.31c-.42,1.53-1.06,3-1.67,4.7a15,15,0,0,1-1.74-1.41c-2-2.3-4.14-4.53-6-7-2.38-3.17-4.54-6.52-6.76-9.82a1.22,1.22,0,0,1-.05-1.11,9.32,9.32,0,0,0,1.69-6.56,32.1,32.1,0,0,0-1.64-7.52,16.28,16.28,0,0,0-4.55-7.34,2.78,2.78,0,0,0-3.27-.72c-1-.13-.94.37-.53,1,.57.81,1.26,1.54,1.82,2.36s1.06,1.81,1.59,2.73l.27.41h0l.25.49h0l.18.27.27.71c.23.93.39,1.88.7,2.78a4,4,0,0,1-.17,3.35c-.57,1-1.28,2-1.86,3a5.22,5.22,0,0,0-.77,2c-.31,3.27-.53,6.56-.75,9.84a24,24,0,0,1-2.35,9.17A30.94,30.94,0,0,1,243,137a49.43,49.43,0,0,1-4.09,3.55c-2.31-4.64-4.49-9.1-6.76-13.51a23.9,23.9,0,0,0-2.13-3h0l-.47-.74-.46-.71-.21-.27-.28-.44c.32,0,.74-.06.95.12a16.75,16.75,0,0,1,1.27,1.38c.61.62,1.25,1.22,1.88,1.83l.46.71.22.49a33.93,33.93,0,0,1,4.34,8.31c2.08-.62,2.57-1.47,1.77-3.29a37.43,37.43,0,0,0-14.33-16.68,4.46,4.46,0,0,0-1.35-.33Zm8.76,5.13c4.71,4,7.64,8.91,9.85,14.44,1.13-1.32,1.42-4,.68-5.15a38.21,38.21,0,0,0-3-4.58,39.91,39.91,0,0,0-4.42-4.3A2.75,2.75,0,0,0,231.32,117.32Zm.24-30.49.39.48L233.6,86l-.36-.46Zm2.51-1.54.28.57,1.89-1-.25-.51Zm7.85-.59.05-.36h-2.1v.36Z" transform="translate(-15.43 -15.65)"/><path class="i" d="M190,107.79a40.36,40.36,0,0,1-18.36-2.45c-15.87-6-25.84-17.41-29.07-34.07-4.89-25.18,11.92-48.8,37.27-53,24.68-4.06,48.51,13.69,51.64,38.46a40.25,40.25,0,0,1,.12,10.63h-.33c-.17-3.17-.28-6.35-.54-9.52a32.19,32.19,0,0,0-.81-4l-.34.05a53,53,0,0,1-1.26,13.47l-.45,0a36,36,0,0,0-2.69-13.52c.87-1,.81-1.35-.3-1.91L224,51.5a32.25,32.25,0,0,0-7-9.8,14.73,14.73,0,0,0,.9-2.33,1.91,1.91,0,0,0-.27-1.58c-.32-.26-1.11-.11-1.61.07a11,11,0,0,0-1.74,1c-.38-.2-.78-.37-1.15-.6-2.42-1.44-4.77-3-7.28-4.29a27.89,27.89,0,0,0-9.29-2.86c-.37-1.28-.66-2.6-1.15-3.83a1.67,1.67,0,0,0-1.3-.78c-.32,0-.73.6-1,1-.49.94-.88,1.93-1.32,2.9a46.12,46.12,0,0,0-5.39,0A43.09,43.09,0,0,0,170,35.57a34.39,34.39,0,0,0-14.64,15.9,33.93,33.93,0,0,0-3.12,18.22A36.21,36.21,0,0,0,157,84.21c.63,1.08,1.2,2.2,1.8,3.31a4.81,4.81,0,0,0-.5,1.53c.05,4.57,2.36,8.06,5.46,11.15a1.8,1.8,0,0,0,1.18.5,2.52,2.52,0,0,0,1.46-.55,29.62,29.62,0,0,0,2.19-2.44l.4.55c3.17,4.52,8.07,5.88,13.07,3.64a2.54,2.54,0,0,0,.76.46,44.81,44.81,0,0,0,4.58.69,26.17,26.17,0,0,0,3.53-.18l2.51,1.08ZM146,49.72A2.39,2.39,0,0,0,147.71,52c1.62.59,2.47.27,3.26-1.36A56.35,56.35,0,0,1,154,44.28c2.42-3.74,5.11-7.3,7.71-10.92.6-.83,1-1.66.34-2.61a2.59,2.59,0,0,0-3.21-.83A8.23,8.23,0,0,0,157,31.19a34.5,34.5,0,0,0-8.84,12.21C147.29,45.44,146.74,47.61,146,49.72ZM167.69,27c0-1.39-1.9-2.26-3.24-1.59a16.38,16.38,0,0,0-2.67,1.79,1.26,1.26,0,0,0-.32,1.06c.27,1.15,2.74,2.11,3.71,1.41a18.06,18.06,0,0,0,2.2-2A1.72,1.72,0,0,0,167.69,27Z" transform="translate(-15.43 -15.65)"/><path class="j" d="M342,165.3c-1.61,2.16-3.06,4.48-4.87,6.46a43.28,43.28,0,0,1-25.08,13.92,36.66,36.66,0,0,1-26.47-4.88A1.28,1.28,0,0,1,285,179a57.16,57.16,0,0,0,2.64-15.4c0-.36.06-.71.09-1.07.55.23,1.12.41,1.65.69a30.31,30.31,0,0,0,21.15,2.4,60.21,60.21,0,0,0,9.54-3.39,30.86,30.86,0,0,0,10.63-7.2,37.88,37.88,0,0,0,8-12.38,57.77,57.77,0,0,0,1.87-6c.11-.38-.25-.89-.4-1.34a5.91,5.91,0,0,0-1.13.81,4.91,4.91,0,0,0-.65,1.27,44.64,44.64,0,0,1-5.44,9.67,32.49,32.49,0,0,1-10.77,9.66A31.19,31.19,0,0,1,304,160.41a29,29,0,0,1-12.4-4c-1.45-.89-2.87-1.84-4.3-2.76-.08-.63-.17-1.25-.25-1.88a3.57,3.57,0,0,1,0-1c.94,1.43,2.5,1.28,3.83,1.67a7.73,7.73,0,0,0,6,.26c2-.57,4-1.46,6-2.22a19.78,19.78,0,0,1-4.61,7.06,5.48,5.48,0,0,1-1,.67l.17.53A63.82,63.82,0,0,0,305,160a47.5,47.5,0,0,0,7.6-.56,12.32,12.32,0,0,0,2.66-1,3.93,3.93,0,0,0,1.31-.5c1.72-1.56,3.39-3.16,5-4.78.52-.51.95-1.11,1.42-1.67-.07,1.22-.13,2.44-.22,4a47.76,47.76,0,0,0,3.95-3c2-1.84,3.86-3.78,5.69-5.76a4.42,4.42,0,0,0,1.4-3.87,10.19,10.19,0,0,0,1.12-6.61,3.38,3.38,0,0,1,.11-.83l2.05,3c1.22-2.77,1.1-5.73,1.56-8.57.06-.41.12-.82.19-1.23l.3-1.64c1-3.1.78-6.25.67-9.57l2.16,3a10,10,0,0,0,.39,1.35c.39.92.89,1.79,1.27,2.71a43.49,43.49,0,0,1,3.63,13.79,56.91,56.91,0,0,1,.12,9.5c-.55,5-2.33,9.65-4.21,14.27C342.79,163.14,342.42,164.23,342,165.3Zm-1.93-32.52a5.48,5.48,0,0,0-.67,1.34c0,.17.6.63.69.57a1.94,1.94,0,0,0,.85-.9C341,133.62,340.53,133.27,340.09,132.78Z" transform="translate(-15.43 -15.65)"/><path class="k" d="M249.66,91.36a2.78,2.78,0,0,1,3.27.72,16.28,16.28,0,0,1,4.55,7.34,32.1,32.1,0,0,1,1.64,7.52,9.32,9.32,0,0,1-1.69,6.56,1.22,1.22,0,0,0,.05,1.11c2.22,3.3,4.38,6.65,6.76,9.82,1.84,2.44,4,4.67,6,7a15,15,0,0,0,1.74,1.41c.61-1.69,1.25-3.17,1.67-4.7a35.92,35.92,0,0,0,.56-14.31,62.7,62.7,0,0,0-6-19.76,5,5,0,0,1-.28-1c1.88,2.9,4,5.7,5.62,8.73a63.55,63.55,0,0,1,7.66,24.88,25.21,25.21,0,0,1-1.49,10.92,11.12,11.12,0,0,1-4.35,5.45,33.74,33.74,0,0,1-14.3,6.46,19.48,19.48,0,0,1-10.52-1c-2.36-.92-4.78-1.7-7.24-2.56,8.15-10.08,11.76-21.86,11.51-34.94,1.44-.69,2-2.43,1.52-4.78a29.69,29.69,0,0,0-3.91-10.67c1.25.77,3,3.92,4,6.82a15.79,15.79,0,0,1,.78,7.6h.65a17.89,17.89,0,0,0,.19-3.78c-.94-5.84-3.34-10.91-8.21-14.55A.85.85,0,0,1,249.66,91.36Z" transform="translate(-15.43 -15.65)"/><path class="l" d="M140.82,162.61c1.11-1.8,2-3.29,2.92-4.75,3-4.67,6-9.32,8.92-14a1.57,1.57,0,0,1,1.72-.72c3.56.32,7.12.62,10.68,1,4.86.45,9.72,1,14.58,1.4,2.13.2,4.27.34,6.41.51a3.85,3.85,0,0,1,.59.15c-1.44,2.25-2.84,4.41-4.22,6.58-1.75,2.75-3.48,5.51-5.26,8.25a1.36,1.36,0,0,1-.89.58c-1.3.07-2.61,0-3.91,0-1.67,0-3.33.17-5,.22-3.47.1-6.93.17-10.4.25-3.25.08-6.49.14-9.74.24C145.21,162.39,143.21,162.5,140.82,162.61Z" transform="translate(-15.43 -15.65)"/><path class="m" d="M113.21,150.08c2.21,1.74,3.27,1.83,5.72.47.24,1.83,1.65,2.28,3.12,2.67a16.32,16.32,0,0,0,.12,2.72,3.82,3.82,0,0,0,6.35,2c.18-.15.38-.28.56-.42,3.21,1.9,6.42,3.81,9.65,5.68a4.39,4.39,0,0,0,1.33.32c.23.16.44.42.69.47,5.4,1.06,10.8,2.08,16.2,3.14a14.81,14.81,0,0,1,2.09.73c-.81.06-1.62.14-2.43.19-1.75.1-3.5.17-5.25.26-5.24.3-10.48.61-15.73.88-3,.16-6.08.23-9.12.36a6.66,6.66,0,0,0-1.41.2c-1.88.53-3.32-.39-4.86-1.26Q108.65,161.94,97,155.53c-2.44-1.34-5-2.5-7.48-3.76-.48-.25-.91-.59-1.63-1.06a9.1,9.1,0,0,1,1.06-.16l12.57-.26Z" transform="translate(-15.43 -15.65)"/><path class="h" d="M206.72,141.71a21.07,21.07,0,0,1,.14-17c.59-1.36,2.19-2.35,3.47-3.31.46-.35,1.35-.22,2-.17,1.65.1,3.3.27,5,.42-.24,3.87.91,7.5,1.95,11.15.07.27.45.44.69.66h0l.15.29.6.24c1.18-.35,1.43-1,1-2.64-.76-3-1.55-6-2.33-9l-.63-.56-.73-.76c.21-.29.55-.54.6-.85.39-2.09,2.14-2.18,3.68-2.6l1.21.37c5.56,7.51,8.82,15.91,12,24.45a11.12,11.12,0,0,1-5.32,1.59c-3,0-6-.1-9.07-.22A69.09,69.09,0,0,1,206.72,141.71Z" transform="translate(-15.43 -15.65)"/><path class="k" d="M222.33,193.49c.74.83,1.52,1.63,2.21,2.51s1.4,1.95,2.1,2.93l.28-.16c-.79-1.47-1.56-3-2.4-4.4-.7-1.19-1.51-2.32-2.23-3.5a2.77,2.77,0,0,1-.19-.9l-.09-.77a16.47,16.47,0,0,1,2.41,2.3c2.46,3.52,4.8,7.12,7.19,10.68a4.66,4.66,0,0,0,.38.48c1.09-1.57,2.1-3.08,3.15-4.55q2-2.72,3.94-5.4c1.59-2.13,4-2.75,6.41-3.31l.61-.13c-.13-.52-.21-1-.36-1.48a79.73,79.73,0,0,0-5.93-14.07,4,4,0,0,1-.21-1.17c.41.16,1,.19,1.21.49,1.44,1.9,2.82,3.83,4.17,5.8a37.54,37.54,0,0,0,2.53,3.66V181c.4,1.81.79,3.61,1.21,5.41a5.58,5.58,0,0,0,.48,1.06,5.85,5.85,0,0,0,.29-1.07,7.21,7.21,0,0,0-.05-1.31c-.31-3.12-.6-6.24-.94-9.36-.19-1.77-.47-3.53-.71-5.29.47,1.45,1,2.88,1.37,4.37s.59,3.32.88,5h.35l-.38-9.41.27-.16a6.44,6.44,0,0,1,.85,1.47c.67,2.69,1.25,5.41,1.92,8.1a1.51,1.51,0,0,0,.77,1c4.11,1.23,8.24,2.4,12.37,3.57,2.8.8,5.42-.09,7.83-1.28,2.87-1.42,5.54-3.25,8.29-4.91-1.69,5.74-4.18,11-8.9,15a5.65,5.65,0,0,1-4.45,1.26,46.1,46.1,0,0,1-16-5c-1.34-.69-1.61.49-2.09,1.17l-2.2-.12a19.53,19.53,0,0,0-.71-2.12q-3-6.47-6-12.92a5.7,5.7,0,0,0-.94-1.16l-.28.24c.27.52.58,1,.82,1.55,2,4.37,3.95,8.75,6,13.1a5.68,5.68,0,0,0,1.17,1.29c-.37,1.43-.85,2.83-1.09,4.28a3.18,3.18,0,0,1-2.07,2.62,63.22,63.22,0,0,0-7.75,3.92c-2.95,1.88-5.07,4.7-7.13,7.5-.82,1.1-1.08,1.12-2.15.19,1.11-.67.78-1.6.45-2.54a53.45,53.45,0,0,0-6.1-11.92C222.68,194.11,222.51,193.79,222.33,193.49Z" transform="translate(-15.43 -15.65)"/><path class="m" d="M110.36,177.4c-.36-1.5-.68-3-1.11-4.5a7.15,7.15,0,0,0-5.7-5.46,15,15,0,0,1-8.19-4.87,12.34,12.34,0,0,0-7.83-4.19,21.11,21.11,0,0,0-2.66,0c.76-2.18,1.47-4.28,2.25-6.35a1.11,1.11,0,0,1,1-.23c4.06,2,8.13,4.05,12.12,6.22,5.11,2.79,10.15,5.71,15.21,8.58,1.83,1,3.63,2.15,5.48,3.17a1.5,1.5,0,0,1,.82,1.95c-1.47,6.14-2.9,12.3-4.33,18.45-.38,1.67-.72,3.34-1.09,5a2.68,2.68,0,0,1-.39-.58c-1.68-5.41-3.34-10.83-5-16.23A4.53,4.53,0,0,0,110.36,177.4Z" transform="translate(-15.43 -15.65)"/><path class="n" d="M225.68,93.38l-1.27,3.27c-.35-.21-.82-.66-1-.56a1.67,1.67,0,0,0-.79,1.06c-.6,3.42-1.13,6.85-1.69,10.27-.14.87-.24,1.74-.44,2.6a1.68,1.68,0,0,1-.59,1,2.05,2.05,0,0,0-.81,2.72c.28.82.7,1.59,1.09,2.45a2,2,0,0,1-.54.18A2.74,2.74,0,0,0,216.8,119c-.07.65-.53.83-1.14.67l-3.49-.85a3.56,3.56,0,0,0-3.67.75,2.29,2.29,0,0,1-1.44.29c-2.36,0-4.71-.12-7.06,0-1.05,0-1.57-.15-1.86-1.23a18.42,18.42,0,0,1-.55-8,2.63,2.63,0,0,1,2.12-2.37c5.88-1.59,11.72-3.39,16.59-7.26,2.89-2.3,5.62-4.82,8.4-7.26a5,5,0,0,0,.68-1l.24.22Z" transform="translate(-15.43 -15.65)"/><path class="n" d="M206.72,141.71a69.09,69.09,0,0,0,14.44,2.14c3,.12,6.05.22,9.07.22a11.12,11.12,0,0,0,5.32-1.59c-3.21-8.54-6.47-16.94-12-24.45l-1.21-.37a6,6,0,0,0,.31-1.69,4,4,0,0,0-.65-1.62,1.3,1.3,0,0,1,.59-2.16c.4.73.81,1.45,1.21,2.17a5.85,5.85,0,0,0-.25.91c-.06.48-.07,1-.11,1.45.31-.41.61-.83.91-1.24,0-.06.13-.08.25-.15a37.2,37.2,0,0,1,14.36,16.76c.38.89-.08,1.2-.7,1.62a61.67,61.67,0,0,0-7.35-12.37l-.37.22,2.15,3.59c-.63-.61-1.27-1.21-1.88-1.83a16.75,16.75,0,0,0-1.27-1.38c-.21-.18-.63-.09-.95-.12l-.77.1c.21.34.35.57.48.81,1.73,3.25,3.58,6.45,5.15,9.78,1.42,3,2.51,6.16,3.77,9.24a7.38,7.38,0,0,0,.64,1l.32-.22c-1-2.53-1.89-5.09-3-7.56-1.65-3.69-3.44-7.31-5.18-11a23.9,23.9,0,0,1,2.13,3c2.27,4.41,4.45,8.87,6.76,13.51A49.43,49.43,0,0,0,243,137a30.94,30.94,0,0,0,5.34-7.57,24,24,0,0,0,2.35-9.17c.22-3.28.44-6.57.75-9.84a5.22,5.22,0,0,1,.77-2c.58-1,1.29-2,1.86-3a4,4,0,0,0,.17-3.35c-.31-.9-.47-1.85-.7-2.78,1.72,3.22,2.49,7.32,1.61,10.18-.07,0-.13.1-.2.1-1.94,0-1.91,0-1.87,2a48.59,48.59,0,0,1-10.44,31.74,12.45,12.45,0,0,1-9.16,4.91,42.84,42.84,0,0,1-17.9-2.33c-2.51-.84-4.9-2.12-7.65-2.27C207.46,143.56,207.1,142.36,206.72,141.71Zm21.6-20.87.11.1-.1-.11-.24-.24a.2.2,0,0,0,0-.08l-.06,0,.1.11Zm-3.91-3.16,0,.24.67-.1-.05-.27Z" transform="translate(-15.43 -15.65)"/><path class="o" d="M287.34,153.69c1.43.92,2.85,1.87,4.3,2.76a29,29,0,0,0,12.4,4,31.19,31.19,0,0,0,18.07-3.74A32.49,32.49,0,0,0,332.88,147a44.64,44.64,0,0,0,5.44-9.67,4.91,4.91,0,0,1,.65-1.27,5.91,5.91,0,0,1,1.13-.81c.15.45.51,1,.4,1.34a57.77,57.77,0,0,1-1.87,6,37.88,37.88,0,0,1-8,12.38,30.86,30.86,0,0,1-10.63,7.2,60.21,60.21,0,0,1-9.54,3.39,30.31,30.31,0,0,1-21.15-2.4c-.53-.28-1.1-.46-1.65-.69C287.57,159.58,287.46,156.63,287.34,153.69Z" transform="translate(-15.43 -15.65)"/><path class="k" d="M284.91,158c-1.2-3.83-2.39-7.67-3.61-11.49-.25-.78-.59-1.54-.89-2.3l-.37-.05c-.68,1.8-1.45,3.58-2,5.42-1.13,3.75-2.79,7.14-6.07,9.48-.83.59-.77,1.09-.3,1.88q1.57,2.61,3,5.32c.34.66.82,1.42,0,2.37-.48-.57-.95-1.07-1.35-1.62q-2-2.69-3.92-5.41a1.22,1.22,0,0,0-1.71-.55,35.14,35.14,0,0,1,3.64,12.14l-.47.2c-.25-.43-.52-.86-.74-1.31-1.62-3.37-3.23-6.74-4.87-10.1a7.09,7.09,0,0,0-.93-1.21c.82-.6.72-1.23.07-1.89-.94-1-1.87-1.95-2.8-2.92l.15-.16,4,3.38,1.24,1.09.4-.41a29.05,29.05,0,0,0-3.26-3.3c-1.47-1.1-3.21-1.83-4.78-2.81s-3.15-2.12-4.95-3.34c11.43,1.14,19.67-4.45,27.32-11.76A67,67,0,0,1,284.91,158Z" transform="translate(-15.43 -15.65)"/><path class="p" d="M209.8,201.55c1.84-.68,3.93-.62,5.66-1.61l-.11-.4-6.89,1.57-3.66-4.79L213,196v-.45a4.17,4.17,0,0,0-.78-.1c-2.48.07-4.95.11-7.42.26a1.84,1.84,0,0,1-2-1.11c-.32-.63-.74-1.21-1.23-2a31.75,31.75,0,0,0,4.63-.34c1.29-.27,2.83.27,3.87-1-2.72.2-5.43.43-8.15.58a1.45,1.45,0,0,1-1.09-.54,30,30,0,0,1-1.53-2.76c2-.18,3.94-.35,5.85-.54a17.5,17.5,0,0,0,1.77-.24c.12,0,.21-.26.31-.4-.15-.09-.31-.27-.45-.26-2,.15-4,.25-6.06.51-1.81.23-1.8.31-2.55-1.28-.24-.5-.45-1-.73-1.65l6.92-.9-.07-.56c-1.18.08-2.37.14-3.55.26-.95.1-1.89.33-2.83.37a1.3,1.3,0,0,1-1-.56,13.05,13.05,0,0,1-.67-2l4.72-.92-.08-.52-4.89.64a21.1,21.1,0,0,1-.21-2.36c0-1.59.89-2.08,2.26-1.23a16.5,16.5,0,0,1,2.36,1.82c5,4.47,8.71,9.86,12.34,15.43a175.94,175.94,0,0,1,8.87,15.85c.15.28.37.52.53.79a2.74,2.74,0,0,1-1.93,4,1.26,1.26,0,0,1-.55-.17,19.31,19.31,0,0,1-5.12-4.34c1.92-.33,3.77,0,5.39-.74l-.06-.44c-1.59.12-3.19.14-4.76.4a1.7,1.7,0,0,1-1.92-.73c-.54-.73-1.17-1.39-1.89-2.23l6.72-1L218,205c-1.21.1-2.43.18-3.64.32-.9.1-1.8.34-2.7.37a2,2,0,0,1-1.29-.55,25.74,25.74,0,0,1-1.81-2.27l7.15-1.72-.12-.51L210,201.78Z" transform="translate(-15.43 -15.65)"/><path class="q" d="M191.89,124a5.58,5.58,0,0,1,3.8-1.72c3.4-.15,6.8-.36,10.14-.54-.77,2.4-1.67,4.57-2.15,6.83a24.88,24.88,0,0,0,.28,10.89c.08.35.13.7.2,1-1.94.41-3.87.83-5.81,1.2a2.27,2.27,0,0,1-1.32,0c-1.27-.57-2.49-1.25-3.73-1.89.12-.7.22-1.4.36-2.09a1.65,1.65,0,0,0-.83-2,4.17,4.17,0,0,0-.71-1.22,1.58,1.58,0,0,1-.3-2.3,5.5,5.5,0,0,0,.35-1.49c0-1-.15-1.87-1.49-1.68a3.78,3.78,0,0,1,.82-4A3.07,3.07,0,0,0,191.89,124Z" transform="translate(-15.43 -15.65)"/><path class="l" d="M110.36,177.4a4.53,4.53,0,0,1,.54.95c1.69,5.4,3.35,10.82,5,16.23a2.68,2.68,0,0,0,.39.58c-.44,2.33-.91,4.67-1.32,7-.38,2.07-.7,4.16-1,6L97.4,196.37a24.5,24.5,0,0,1,2.74-1.85,28,28,0,0,1,5.21-2.3c2.26-.62,3.27-2.25,3.89-4.15a26.5,26.5,0,0,0,1.06-5.46C110.47,180.89,110.35,179.14,110.36,177.4Z" transform="translate(-15.43 -15.65)"/><path class="m" d="M87.54,200.19c-.3.16-.6.46-.89.46a9.39,9.39,0,0,1-6.29-2.48c-3.82-3.28-5.65-7.64-6.45-12.44a71.79,71.79,0,0,1-.49-7.35l.43-.33a18.77,18.77,0,0,0,2.1,8.42,22.8,22.8,0,0,0,2.77,4c.14.19.62.12,1,.17a3.71,3.71,0,0,0,0-.88,11.87,11.87,0,0,0-.54-1.35l.22-.17L81,189.49l.52-1.55H92.85l2.61,2.79a41,41,0,0,1-2,4.17c-1.32,2.21-2.88,4.21-5.71,4.61C87.68,199.52,87.62,200,87.54,200.19Z" transform="translate(-15.43 -15.65)"/><path class="l" d="M159,167.85a14.81,14.81,0,0,0-2.09-.73c-5.4-1.06-10.8-2.08-16.2-3.14-.25,0-.46-.31-.69-.47,2.5-.12,5-.28,7.5-.37,2-.07,4,0,6.05-.12,3-.12,6-.35,9-.43s5.92,0,8.88-.06c2.18,0,4.37-.1,6.55-.24.39,0,.76-.46,1.14-.7a4.7,4.7,0,0,0,.85.4c3.87,1,7.76,1.95,11.63,3a19.12,19.12,0,0,1,2.65,1.12h-5c-1.1,0-2.2,0-3.3.06-4.92.3-9.83.63-14.75.94l-8.17.5Z" transform="translate(-15.43 -15.65)"/><path class="f" d="M92.28,174.62,75.78,169a15.23,15.23,0,0,1,5.58-7.27,4.22,4.22,0,0,1,.87-.37l.27-.23a.62.62,0,0,1,.19,0c.35,0,.71-.1,1.06-.12,1.36-.09,2.75-.43,4,.37.25.2.48.5.77.59,3.91,1.26,5.29,4.57,6.66,7.82A7.85,7.85,0,0,0,92.28,174.62Z" transform="translate(-15.43 -15.65)"/><path class="q" d="M156,124.9c.17-2.94,1.5-5.5,2.64-8.12.1-.22.4-.38.63-.52a22.17,22.17,0,0,1,7.94-2.83,2.35,2.35,0,0,1,1.58.46c1.66,1.24,3.19,2.67,4.91,3.81a14,14,0,0,0,3.15,1.1c.23.08.53.24.6.44.29.83.49,1.7.73,2.55-.73,1.46-1.47,2.9-3.19,3.47-.26.08-.43.44-.63.68a11.3,11.3,0,0,1-1.36,1.63c-1.61,1.33-3.3,2.56-5.57,2.38,1-1.85,2-3.67,2.83-5.58a1.87,1.87,0,0,0-.94-2.5c-1.87-1.16-3.76-2-6-1.53a9.2,9.2,0,0,0-2.09,1c-1,.77-2,1.57-3,2.28C157.54,124.1,156.74,124.47,156,124.9Z" transform="translate(-15.43 -15.65)"/><path class="n" d="M261.42,158.72a13.72,13.72,0,0,1-1.7-.76A32.21,32.21,0,0,0,247,153.7a19.46,19.46,0,0,0-5-.2,33.35,33.35,0,0,0-4.61,1.48,4.69,4.69,0,0,1-2,.11c-1.59-.31-3.14-.84-4.74-1.1a3,3,0,0,0-1.92.47c-2.3,1.46-4.55,3-6.82,4.53a9,9,0,0,1-.81.43,22.69,22.69,0,0,1,6.16-8.69,2.14,2.14,0,0,1,1.31-.33A33.67,33.67,0,0,0,238.85,149c.16,0,.35,0,.46-.12,1.94-1.46,4-.75,5.95-.18A36.41,36.41,0,0,1,261.42,158.72Z" transform="translate(-15.43 -15.65)"/><path class="n" d="M175,134l.24-2.14c2.28-1.64,2.94-4.14,3.41-6.67a38.9,38.9,0,0,0,.31-4.6,24.69,24.69,0,0,1,2.86.64c1.2.42,2.22,1.41,3.65,1a.73.73,0,0,1,.09.08c1.32,2.67,1.29,2.64-.87,4.69-1.42,1.35-2.71,2.82-4.07,4.23a2.89,2.89,0,0,0-.49,3.81,13.31,13.31,0,0,0,1.44,2.16c.68.73,1.29.33,1.72-.41a10.48,10.48,0,0,1,4.7-4.28l.22.21c-1.15,1.52-2.33,3-3.43,4.57-1.6,2.27-1.65,4.23-.06,6.8A17.5,17.5,0,0,1,174.61,139l-.3-.39v0l-1.41-3.13c1.28-.45,2.75-.45,3.7-1.77Z" transform="translate(-15.43 -15.65)"/><path class="f" d="M92.85,187.94H81.52L81,189.49l-1.64-1.26-.22.17a11.87,11.87,0,0,1,.54,1.35,3.71,3.71,0,0,1,0,.88c-.33,0-.81,0-1-.17a22.8,22.8,0,0,1-2.77-4,18.77,18.77,0,0,1-2.1-8.42l-.43.33.27-2.25c1.51.67,3,1.3,4.52,2a2,2,0,0,1,.94,1.18c.65,2.49,2.59,3.47,4.77,4,2.63.68,5.3,1.16,7.94,1.72Z" transform="translate(-15.43 -15.65)"/><path class="p" d="M212.75,184.83c1.58,1.4,3.27,2.68,4.71,4.2a50.42,50.42,0,0,1,9.94,15.74c.56,1.37.66,2.43-.67,3.56a28.47,28.47,0,0,0-3.2,3.8c-2.21-4.3-4.35-8.48-6.49-12.66,1-.28,2.07-.58,3.11-.82s1.12-.63.67-1.53a52.79,52.79,0,0,0-6.91-10.29A12.73,12.73,0,0,1,212.75,184.83Z" transform="translate(-15.43 -15.65)"/><path class="r" d="M324.5,103.33a19,19,0,0,1,6.07,5.85c2.07,3.38,4.54,6.53,5.8,10.37a31.33,31.33,0,0,1,1.54,9c-4.43-11.29-12.68-18.5-23.52-23.28,2,.3,4,.51,6,.93s3.9,1.07,5.92,1.63l-1.83-4.53Z" transform="translate(-15.43 -15.65)"/><path class="l" d="M107.39,178.35c.21,3.54,0,7-1.78,10.2a5.68,5.68,0,0,1-2.93,2.61c-2,.86-3.92,2.05-5.9,3.13.47-1.45,1-2.91,1.42-4.41a41,41,0,0,0,1.32-10.35c0-.95-.13-1.9-.2-2.85.84.23,1.66.5,2.51.66C103.68,177.71,105.54,178,107.39,178.35Z" transform="translate(-15.43 -15.65)"/><path class="q" d="M212.75,184.83a12.73,12.73,0,0,0,1.16,2,52.79,52.79,0,0,1,6.91,10.29c.45.9.28,1.31-.67,1.53s-2.07.54-3.11.82l-.24-.43-.2-.3a.11.11,0,0,1-.06-.12l-.21-.35h0l-.27-.48c-2.22-3.42-4.38-6.89-6.69-10.25a50,50,0,0,0-11.12-11.74,3.15,3.15,0,0,1,2.95.7c2.75,2.36,5.53,4.69,8.28,7.06.59.51,1.09,1,2,.66.25-.1.68.24,1,.37l.25.24Z" transform="translate(-15.43 -15.65)"/><path class="m" d="M142,136.14c3.36.31,6.72.63,10.08.93a7.14,7.14,0,0,1,1.55.1,12.27,12.27,0,0,1,1.77,1L153.19,141c-1.14-.13-1.63.72-2.12,1.48-1.8,2.82-3.54,5.69-5.36,8.49-.25.38-.86.52-1.3.78.84-3.09,1.48-6.22.46-9.37a9.11,9.11,0,0,0-1.82-3.28A3.36,3.36,0,0,1,142,136.14Z" transform="translate(-15.43 -15.65)"/><path class="k" d="M267.72,92.76a8.38,8.38,0,0,1-1.33-.9,63.67,63.67,0,0,0-18-13c-3.66-1.78-7.61-3-11.43-4.45a4.1,4.1,0,0,0-.94-.13c.09-.86.14-1.73.26-2.6a.87.87,0,0,1,1.18-.81,17.69,17.69,0,0,1,2.2.55,62,62,0,0,1,27.87,20.88A3.29,3.29,0,0,1,267.72,92.76Z" transform="translate(-15.43 -15.65)"/><path class="n" d="M188.45,121.85l-1.37-3.93c.89-2,1.76-4,2.65-6,.3-.68.62-1.35.93-2l5.12-.68a21,21,0,0,0,.54,10.44l-6.54,2.83-.85-1.54-.29.07,0,.68Z" transform="translate(-15.43 -15.65)"/><path class="s" d="M231.24,67.37h.33a37.71,37.71,0,0,1-3,12.24c-6.3,14.65-17.12,23.91-32.75,27.44a7.52,7.52,0,0,1-.83.09c.18-.84.37-1.68.56-2.52a11.15,11.15,0,0,0,9.31-1.95c3.19-2.18,6.24-4.56,9.35-6.86.2,1,.7.65,1,.13.5-.93.86-1.94,1.27-2.92l.88-.48.37,1.36c.36-.38.92-.69,1.07-1.13.41-1.27.67-2.6,1-3.9l.87-1.07-.88,4.38c.14-.07.23-.09.28-.15a42.65,42.65,0,0,0,9.72-17C230.46,72.57,230.76,69.94,231.24,67.37Z" transform="translate(-15.43 -15.65)"/><path class="m" d="M107.39,178.35c-1.85-.33-3.71-.64-5.56-1-.85-.16-1.67-.43-2.51-.66-.64-2.84-1.27-5.69-1.91-8.53-.08-.34-.2-.68-.31-1l.09-.07a16,16,0,0,0,3.68,1.6c3.75.61,4.88,3.43,5.82,6.44C107,176.15,107.16,177.27,107.39,178.35Z" transform="translate(-15.43 -15.65)"/><path class="r" d="M342,165.3c.4-1.07.77-2.16,1.2-3.22,1.88-4.62,3.66-9.31,4.21-14.27a56.91,56.91,0,0,0-.12-9.5,43.49,43.49,0,0,0-3.63-13.79c-.38-.92-.88-1.79-1.27-2.71a10,10,0,0,1-.39-1.35,27,27,0,0,1,4.58,8.59c4.37,12.68,2.47,24.64-4.33,36A1.52,1.52,0,0,1,342,165.3Z" transform="translate(-15.43 -15.65)"/><path class="t" d="M154.91,141.24a18.09,18.09,0,0,1,2.13-2.47,12.11,12.11,0,0,1,6-2.65,5,5,0,0,0,2.17-1,15.06,15.06,0,0,1,7.43-3,.75.75,0,0,1,.47,0,10.28,10.28,0,0,1,.93.7,2.87,2.87,0,0,1-1,.46,13.16,13.16,0,0,0-6.12,2.14,2,2,0,0,0-.35.32,28.88,28.88,0,0,1,3,2.3,2.81,2.81,0,0,1-.34,4.44l-5.38-.54a5.27,5.27,0,0,1-.64-4.36,7.66,7.66,0,0,0-4.43,1.56,22,22,0,0,0-2.28,2.16Zm12,.45c1.46,0,2.21-.44,2.23-1.4,0-1.36-1.71-2.92-3.27-2.92-.89,0-1.51.83-1.53,2A2.44,2.44,0,0,0,166.86,141.69Z" transform="translate(-15.43 -15.65)"/><path class="m" d="M87.78,161.35c-1.28-.8-2.67-.46-4-.37-.35,0-.71.08-1.06.12,3.53-2.27,8.44-.72,10.79,2a19.84,19.84,0,0,1,4.69,10.49,71.62,71.62,0,0,1,.42,8c0,1.46-.19,2.93-.29,4.39l-.21.5,0,.46c-.35.81-.67,1.63-1.06,2.41a10.52,10.52,0,0,1-.81,1.2c.31-1.7.63-3.4.94-5.1.08-1.86.21-3.72.23-5.58,0-1-.16-2-.24-3a3.84,3.84,0,0,0,.23-1.33c-.61-2.5-1.17-5-2-7.44A11.36,11.36,0,0,0,92,163.07C90.79,162.05,89.55,161,87.78,161.35Z" transform="translate(-15.43 -15.65)"/><path class="p" d="M160.18,127.4c1-1.64,1.95-3.33,3.08-4.87a2.16,2.16,0,0,1,1.86-.36,25.29,25.29,0,0,1,3.34,1.42c-1,2.1-1,4.48-3.17,5.47Z" transform="translate(-15.43 -15.65)"/><path class="m" d="M194.29,166.09a19.12,19.12,0,0,0-2.65-1.12c-3.87-1-7.76-2-11.63-3a4.7,4.7,0,0,1-.85-.4l2.08-3.28,15.08,7.52-.08.26Z" transform="translate(-15.43 -15.65)"/><path class="n" d="M188.88,146.64c.87-1.88.7-2.18-1.11-2.38-.5,0-1-.13-1.8-.24l5.16-5.43c0,1.06,0,1.79,0,2.52a2.07,2.07,0,0,0,1.65,2.31,2.33,2.33,0,0,1,1.63,1.53,20.49,20.49,0,0,0,1.3,2.14Z" transform="translate(-15.43 -15.65)"/><path class="p" d="M167.41,130c2.27.18,4-1,5.57-2.38a11.3,11.3,0,0,0,1.36-1.63c.2-.24.37-.6.63-.68,1.72-.57,2.46-2,3.19-3.47a14.09,14.09,0,0,1-1.71,6.66A13.1,13.1,0,0,1,174,130.9l-4.64.51h-3.65Z" transform="translate(-15.43 -15.65)"/><path class="q" d="M226.43,88.75a53.28,53.28,0,0,0,6.19-14l2.2.51c-.8,2.1-1.43,4.27-2.41,6.28a35.8,35.8,0,0,1-6.22,9.11Z" transform="translate(-15.43 -15.65)"/><path class="u" d="M97.13,185.5c-.31,1.7-.63,3.4-.94,5.1l-2.42,5.49-.54.61c-1.49,1.68-3,3.34-5.44,3.49h-.25c.08-.24.14-.67.25-.68,2.83-.4,4.39-2.4,5.71-4.61a41,41,0,0,0,2-4.17l-2.61-2.79-1-2.84Z" transform="translate(-15.43 -15.65)"/><path class="p" d="M191.89,124a3.07,3.07,0,0,1-.39,1,3.78,3.78,0,0,0-.82,4c-1,.53-2,1-2.91,1.59-1.9,1.2-3.75,2.47-5.63,3.72-.55-.75-.41-1.47.34-2.26A55.68,55.68,0,0,1,191.89,124Z" transform="translate(-15.43 -15.65)"/><path class="r" d="M323,151.51c-.47.56-.9,1.16-1.42,1.67-1.65,1.62-3.32,3.22-5,4.78a3.93,3.93,0,0,1-1.31.5,30.54,30.54,0,0,0,6.92-14.22,1.5,1.5,0,0,1,.2-.4h.38Z" transform="translate(-15.43 -15.65)"/><path class="r" d="M339.19,127.05l-.3,1.64c-.07.41-.13.82-.19,1.23-.26-4.24-.56-8.44-2.27-12.43-.46-1.08-.19-2.45-.5-3.62-.46-1.74-1.14-3.43-1.72-5.15l.17-.16a19.51,19.51,0,0,1,4.72,11C339.31,122.06,339.17,124.56,339.19,127.05Z" transform="translate(-15.43 -15.65)"/><path class="p" d="M193.3,139.77c1.24.64,2.46,1.32,3.73,1.89a2.27,2.27,0,0,0,1.32,0c1.94-.37,3.87-.79,5.81-1.2l.56,1.54c-1.15.26-2.2.44-3.21.75a1.93,1.93,0,0,0-1.14.82c-.12.26.3.77.49,1.18l-.43.09c-2.91.51-2.75,1.33-4.65-1.85a3.68,3.68,0,0,0-1.61-1.29C193.21,141.29,192.91,140.72,193.3,139.77Z" transform="translate(-15.43 -15.65)"/><path class="r" d="M302.93,150.56c-2,.76-3.94,1.65-6,2.22a7.73,7.73,0,0,1-6-.26l2.11-.33a14.72,14.72,0,0,0,10.6-6.66l.71-1.05.41.15Q303.85,147.6,302.93,150.56Z" transform="translate(-15.43 -15.65)"/><path class="m" d="M133.57,151.75l-2.14-1.91c.69.16,1.37.38,2.07.48,2.3.32,3.88-.9,5.1-2.63.86-1.22,1.56-2.55,2.4-3.94a12.06,12.06,0,0,1-.91,7.78c-1.87,0-3.75,0-5.63,0A4.6,4.6,0,0,0,133.57,151.75Z" transform="translate(-15.43 -15.65)"/><path class="h" d="M185.47,122.25c-1.43.38-2.45-.61-3.65-1a24.69,24.69,0,0,0-2.86-.64l-1.37-3.45C180.51,116.25,184.19,118.74,185.47,122.25Z" transform="translate(-15.43 -15.65)"/><path class="p" d="M192.17,130.66a5.5,5.5,0,0,1-.35,1.49,1.58,1.58,0,0,0,.3,2.3,4.17,4.17,0,0,1,.71,1.22c-1.56,1.05-3.18,2-4.68,3.19a22.19,22.19,0,0,0-2.37,2.47l-.34-.13a13.26,13.26,0,0,1,1.09-2.84c1.28-1.91,2.75-3.71,4.12-5.56C191.18,132.1,191.66,131.37,192.17,130.66Z" transform="translate(-15.43 -15.65)"/><path class="r" d="M335.09,135.45a3.38,3.38,0,0,0-.11.83,10.19,10.19,0,0,1-1.12,6.61c-.8-3.41-1.58-6.81-2.4-10.21a21,21,0,0,0-.71-2l0,0c.94.85,1.94,1.64,2.8,2.56A18.68,18.68,0,0,1,335.09,135.45Z" transform="translate(-15.43 -15.65)"/><path class="p" d="M156,124.9c.76-.43,1.56-.8,2.28-1.3,1-.71,2-1.51,3-2.28a.81.81,0,0,1,0,.35c-1.55,3-3.11,6-4.64,9C155.72,129.83,155.5,128.17,156,124.9Z" transform="translate(-15.43 -15.65)"/><path class="d" d="M156.54,141.31a22,22,0,0,1,2.28-2.16,7.66,7.66,0,0,1,4.43-1.56,5.27,5.27,0,0,0,.64,4.36l-1.69,0-.83-2.72-3.29,2.27Z" transform="translate(-15.43 -15.65)"/><path class="p" d="M153.9,124.66a46.54,46.54,0,0,1-.11,4.73c-.07.64-.69,1.23-1.17,2-1.71-2-1.14-4-1.17-6Z" transform="translate(-15.43 -15.65)"/><path class="h" d="M190.66,109.9c-.31.67-.63,1.34-.93,2-.89,2-1.76,4-2.65,6l-.74-.78-.24.14.33,1.07c-.44.51-.87,1-1.3,1.54l-1.41-1.67a1.9,1.9,0,0,1,2.09-1.26c1,.12,1.39-.68,1.52-1.53a10.06,10.06,0,0,1,2.41-5A3.1,3.1,0,0,1,190.66,109.9Z" transform="translate(-15.43 -15.65)"/><path class="n" d="M218,121.11l.73.76c0,1.58-.06,3.17.12,4.73.26,2.31.72,4.6,1.09,6.9-.24-.22-.62-.39-.69-.66-1-3.65-2.19-7.28-1.95-11.15Z" transform="translate(-15.43 -15.65)"/><path class="p" d="M234.82,75.29l-2.2-.51c.38-2,.76-4,1.22-6.32.48.54,1,.85,1.1,1.27A8.55,8.55,0,0,1,234.82,75.29Z" transform="translate(-15.43 -15.65)"/><path class="f" d="M93.77,196.09l2.42-5.49a10.52,10.52,0,0,0,.81-1.2c.39-.78.71-1.6,1.06-2.41a22.41,22.41,0,0,1-3.81,10.08Z" transform="translate(-15.43 -15.65)"/><path class="n" d="M185.13,119.89c.43-.52.86-1,1.3-1.54.57,1.71,1.19,3.41,1.69,5.15.08.32-.34.78-.65,1.43C186.58,123,185.86,121.45,185.13,119.89Z" transform="translate(-15.43 -15.65)"/><path class="q" d="M153.9,124.66l-2.45.72c0-2.52,1.91-3.79,3.48-5.27l.09.11C154.65,121.7,154.27,123.18,153.9,124.66Z" transform="translate(-15.43 -15.65)"/><path class="l" d="M107.2,189.87a47.57,47.57,0,0,0,1.73-5.39,20.3,20.3,0,0,0-1.39-12.64,8.56,8.56,0,0,1-.35-1.12l0,0a29.83,29.83,0,0,1,2,5,22,22,0,0,1-.53,11.84,14.35,14.35,0,0,1-1.42,2.36Z" transform="translate(-15.43 -15.65)"/><path class="p" d="M226.43,88.75l-.24,1.93-5.76,5.95a3.07,3.07,0,0,1-.26-.25Z" transform="translate(-15.43 -15.65)"/><path class="q" d="M190,107.79l3.45-3.84.68.23-1.29,3.35Z" transform="translate(-15.43 -15.65)"/><path class="p" d="M192.81,107.53l1.29-3.35,1.45.45c-.19.84-.38,1.68-.56,2.52Z" transform="translate(-15.43 -15.65)"/><path class="m" d="M93.77,196.09l.48,1a11.15,11.15,0,0,1-5.15,3.26,3.56,3.56,0,0,1-1.31-.14c2.46-.15,3.95-1.81,5.44-3.49Z" transform="translate(-15.43 -15.65)"/><path class="h" d="M172.91,135.51l1.41,3.13-3-2.77.22-.36Z" transform="translate(-15.43 -15.65)"/><path class="v" d="M333.13,111.73c2,1,2.31,1.56,2.32,3.77l-2.3-3.79Z" transform="translate(-15.43 -15.65)"/><path class="n" d="M188.61,121.7l.7,1.59-.47.15-.39-1.59Z" transform="translate(-15.43 -15.65)"/><path class="p" d="M210,201.78l-1.59.34,0-.26,1.47-.31Z" transform="translate(-15.43 -15.65)"/><path class="s" d="M220.17,96.38a3.07,3.07,0,0,0,.26.25l-.93.75-.22-.17Z" transform="translate(-15.43 -15.65)"/><path class="s" d="M218,98.45l.89-.81.16.2-1,.71A.39.39,0,0,1,218,98.45Z" transform="translate(-15.43 -15.65)"/><path class="f" d="M98.09,186.53l.21-.5Z" transform="translate(-15.43 -15.65)"/><path class="w" d="M331.06,105.89l.23.67-.16.08-.31-.45Z" transform="translate(-15.43 -15.65)"/><path class="p" d="M216.06,197.8l.27.48Z" transform="translate(-15.43 -15.65)"/><path class="l" d="M107.22,189.9l-.25.46h0l.23-.48Z" transform="translate(-15.43 -15.65)"/><path class="n" d="M252.81,97.81l-.27-.41Z" transform="translate(-15.43 -15.65)"/><path class="n" d="M221.11,159.41c-.09.16-.19.32-.29.48Z" transform="translate(-15.43 -15.65)"/><path class="k" d="M261.43,155.59l-.36-.05,0-.1.32.16Z" transform="translate(-15.43 -15.65)"/><path class="m" d="M97.1,167.13l-.15-.28.08-.07c0,.09.1.19.16.28Z" transform="translate(-15.43 -15.65)"/><path class="n" d="M253.05,98.29l-.25-.49Z" transform="translate(-15.43 -15.65)"/><path class="l" d="M106.74,170l.25.48,0,0-.24-.48Z" transform="translate(-15.43 -15.65)"/><path class="s" d="M217.3,99l.36-.35.13.12-.51.22Z" transform="translate(-15.43 -15.65)"/><path class="h" d="M229.29,88.23l.29-.39.21.17-.51.21Z" transform="translate(-15.43 -15.65)"/><path class="n" d="M188,132.53l.45-.12-.23.33Z" transform="translate(-15.43 -15.65)"/><path class="h" d="M174.31,138.59l.3.39Z" transform="translate(-15.43 -15.65)"/><path class="r" d="M334.1,108.37l-.18-.33L334,108l.07.38Z" transform="translate(-15.43 -15.65)"/><path class="r" d="M324.5,103.34l-.18,0,0-.11.15.14Z" transform="translate(-15.43 -15.65)"/><path class="v" d="M333.15,111.71l-.18,0,.16.06Z" transform="translate(-15.43 -15.65)"/><path class="s" d="M217.28,99v.17l-.14-.06.17-.1Z" transform="translate(-15.43 -15.65)"/><path class="l" d="M107.19,170.72l-.24-.24,0,0,.23.24Z" transform="translate(-15.43 -15.65)"/><path class="s" d="M217.66,98.67l.29-.22a.39.39,0,0,0,.08.1l-.24.24Z" transform="translate(-15.43 -15.65)"/><path class="p" d="M212.75,184.84l-.25-.24Z" transform="translate(-15.43 -15.65)"/><path class="n" d="M253.22,98.55l-.18-.27Z" transform="translate(-15.43 -15.65)"/><path class="l" d="M106.71,170l-.1-.12.13.09Z" transform="translate(-15.43 -15.65)"/><path class="s" d="M218.84,97.64l.25-.24.15.21-.24.23Z" transform="translate(-15.43 -15.65)"/><path class="q" d="M154.93,120.11l.17-.16c0,.09,0,.18-.08.27Z" transform="translate(-15.43 -15.65)"/><path class="l" d="M107,190.36l-.11.1s0-.05,0-.06l.09,0Z" transform="translate(-15.43 -15.65)"/><path class="s" d="M219.09,97.4c.06-.06.13-.12.19-.19a1.84,1.84,0,0,0,.22.17l-.26.23Z" transform="translate(-15.43 -15.65)"/><path class="k" d="M222.13,193.25l.19.23Z" transform="translate(-15.43 -15.65)"/><path class="m" d="M82.5,161.12l-.27.23Z" transform="translate(-15.43 -15.65)"/><path class="p" d="M216.33,198.27l.21.35Z" transform="translate(-15.43 -15.65)"/><path class="p" d="M216.6,198.74l.2.3Z" transform="translate(-15.43 -15.65)"/><path class="k" d="M261.55,156l-.12-.37h0l.27.2Z" transform="translate(-15.43 -15.65)"/><path class="r" d="M330.75,130.66l-.13-.13.1.15Z" transform="translate(-15.43 -15.65)"/><path class="r" d="M334.1,108.37l.28.19-.17.16c0-.12-.08-.23-.11-.35Z" transform="translate(-15.43 -15.65)"/><path class="u" d="M87.78,161.35c1.77-.32,3,.7,4.22,1.72a11.36,11.36,0,0,1,3.37,5.12c.81,2.43,1.37,4.94,2,7.44a3.84,3.84,0,0,1-.23,1.33l-4.84-2.34a7.85,7.85,0,0,1,2.93-4.86c-1.37-3.25-2.75-6.56-6.66-7.82C88.26,161.85,88,161.55,87.78,161.35Z" transform="translate(-15.43 -15.65)"/><path class="t" d="M194.58,213.32c.2,2.79-1.69,3-3.32,3.41-6.82,1.86-13.81,1.43-20.71,1.08a41.16,41.16,0,0,1-15.73-3.6,2.26,2.26,0,0,1-1.35-1.64,46.77,46.77,0,0,0-6.59-14.78,8.44,8.44,0,0,0-6.06-3.84c-.35,0-.65-.42-1-.65.43-.17.89-.54,1.29-.49a9.22,9.22,0,0,1,6.56,3.93,44.15,44.15,0,0,1,6.76,14.55,2.47,2.47,0,0,0,1.7,2.09c3,.81,6,1.68,9,2.38,6,1.38,12.06,1.08,18.1.89a52.64,52.64,0,0,0,8.57-1.41c1.37-.27,1.68-.81,1.22-1.6a1,1,0,0,0-.62-.47c-1.65-.25-3.3-.44-5-.64a.71.71,0,0,0-.44.13c-1.52,1.05-3.27,1.05-5,1.24a34.45,34.45,0,0,1-11.14-.79,17.8,17.8,0,0,1-3.59-1.26,1.57,1.57,0,0,1-.24-2.91,13.78,13.78,0,0,1,3.89-1.75,26.83,26.83,0,0,1,14.28.24,22.12,22.12,0,0,1,7.93,4c1.08.84,2.73.93,4.1,1.42a49,49,0,0,1,6,2.35,3.25,3.25,0,0,1,.61,5.05,8.18,8.18,0,0,1-5.09,2.41,108.24,108.24,0,0,1-20.51.91c-5.15-.22-10.33,0-15.47-1-3.88-.78-7.88-.92-11.84-1.31-4.15-.41-8.29-.87-12.45-1.11-1-.06-1.95.7-2.94,1a9.9,9.9,0,0,1-1.34.25,4.62,4.62,0,0,1,.64-1.34c1.67-1.62,3.69-1.25,5.74-1s4.37.29,6.54.5c3.56.34,7.11.84,10.67,1.1,4.56.33,9,1.46,13.64,1.34,3.75-.1,7.5,0,11.25.22a77.6,77.6,0,0,0,16.61-1.06,7.94,7.94,0,0,0,3.5-1.88,1.79,1.79,0,0,0-.51-3.13C199.81,215.17,197.29,214.33,194.58,213.32Zm-18.17-5.64c-3.78,0-8.11,1.44-8.8,3a28.23,28.23,0,0,0,13,2,20.72,20.72,0,0,1-2.77-.44,10.58,10.58,0,0,1-2.37-1.09c-.45-.28-1.12-.81-1.08-1.16a3.93,3.93,0,0,1,1-1.71C175.59,208,176,207.88,176.41,207.68Zm9.32,3.64a8.59,8.59,0,0,0-10-1.67C178.81,211.72,182.15,211.34,185.73,211.32Zm-.12-2.5c1.23,2.15,2.75,2.93,4.92,2.33Z" transform="translate(-15.43 -15.65)"/><path class="u" d="M148.69,191.36c-1-.59-2.06-1.22-3.13-1.75-2.18-1.08-3.31-.49-3.69,1.93-.46,0-.93,0-1.4,0a2,2,0,0,0-2,1.71,1.8,1.8,0,0,0,1.72,1.93c1.85.32,3.59.81,4.8,2.38a6.38,6.38,0,0,1,.43.71l-1,.34a6,6,0,0,1-8.24-4.26,8.92,8.92,0,0,1,.79-5.66c2.33-3.73,5.34-6.12,10.06-5.24a6.08,6.08,0,0,1,3.36,3.32c.63,1.92,1,3.88-.21,5.75l-.58-.68a4.92,4.92,0,0,0-.05-4.83c-.11.74,0,1.49-.13,2.21A15.33,15.33,0,0,1,148.69,191.36Z" transform="translate(-15.43 -15.65)"/><path class="t" d="M160.87,213.24c-1.34-.13-2.61-.32-3.23-1.66-1.46-3.14-3-6.25-4.31-9.44-1.91-4.62-4.58-8.47-9.32-10.56-.31-.14-.48-.6-.71-.92.4,0,.86-.25,1.18-.12a15.57,15.57,0,0,1,8.24,7.45c1.55,3.1,2.9,6.3,4.26,9.48A14.9,14.9,0,0,0,160.87,213.24Z" transform="translate(-15.43 -15.65)"/><path class="u" d="M146.09,199.23c-3.5,1.82-7,2.14-10.35-.26a7.47,7.47,0,0,1-3.09-5.45,11.75,11.75,0,0,1,8.46-12.35c5-1.42,9.8,1.14,10.79,6.15.3,1.53-.12,3.21-.25,4.82a9.64,9.64,0,0,1-.32,1.39l-.73-.75a7.25,7.25,0,0,0,.4-6.35,5.86,5.86,0,0,0-3.72-4,6.75,6.75,0,0,0-5.25-.68,10.27,10.27,0,0,0-7,5c-2.2,2.68-2.75,7.82.29,10.9,2.56,2.6,6.6,3.1,10.28.85Z" transform="translate(-15.43 -15.65)"/><path class="l" d="M145.59,198.5c-3.68,2.25-7.72,1.75-10.28-.85-3-3.08-2.49-8.22-.29-10.9.29,1.74.46,1.9,1.93,1.94a8.92,8.92,0,0,0-.79,5.66,6,6,0,0,0,8.24,4.26l1-.34Z" transform="translate(-15.43 -15.65)"/><path class="t" d="M195.92,211c5.59-.4,10.58.73,14.27,5.36a8.69,8.69,0,0,0,6.05,3c1.81.23,3.62.44,5.42.7.29,0,.55.33.82.51-.28.16-.56.47-.83.47a22.42,22.42,0,0,1-9.12-1.46,10.65,10.65,0,0,1-3.63-2.81c-2.35-2.75-5.4-3.93-8.79-4.62C198.69,211.87,197.31,211.39,195.92,211Z" transform="translate(-15.43 -15.65)"/><path class="l" d="M147.28,182.42a5.86,5.86,0,0,1,3.72,4,7.25,7.25,0,0,1-.4,6.35l-.44-.26c1.19-1.87.84-3.83.21-5.75a6.08,6.08,0,0,0-3.36-3.32Z" transform="translate(-15.43 -15.65)"/><path class="l" d="M148.69,191.36a15.33,15.33,0,0,0,.71-2.14c.12-.72,0-1.47.13-2.21a4.92,4.92,0,0,1,.05,4.83Z" transform="translate(-15.43 -15.65)"/><path class="t" d="M139.19,138.11c.22-2.66-1.11-5.12-3.11-5.94-1.29-.53-1.39-.46-1.77.91-.67,2.43-1.79,4.53-4.25,5.6a2.78,2.78,0,0,1-.44.19c-1.06.26-2.2.53-3.05-.35s-.38-1.75,0-2.69a7.77,7.77,0,0,1,5.7-5.13c1.11-.29,1.21-.79,1-1.8-.94-4.26-6.74-6.14-10.24-2.79a23.63,23.63,0,0,0-2.21,3.06,6.49,6.49,0,0,1-1.05.89c-.08-.46-.34-1-.2-1.36,1.34-3.53,5-6.48,9.48-5.45a6.91,6.91,0,0,1,5.61,6.08,1.73,1.73,0,0,0,1,1.25,6.8,6.8,0,0,1,5,6.69,2.76,2.76,0,0,0,1,2.24,7.37,7.37,0,0,1,2.4,5.29,19.53,19.53,0,0,1-4.23,12.9,2.66,2.66,0,0,1-.95.88c-.24.11-.63-.1-1-.17.07-.27.06-.63.24-.8a16.92,16.92,0,0,0,4.43-9.21c.45-2.5.4-4.92-1.15-7.1-.22-.32-.48-.61-.86-1.06a18.51,18.51,0,0,1-3.31,7.07c-1.65,2.08-4.43,2.19-5.77.13-.88-1.35-.46-2.79.09-4.13C132.87,139.92,135.35,138,139.19,138.11Zm-.07,1.56a3.15,3.15,0,0,0-.51-.12c-2.94-.16-5.41,2-6.26,5.36a2,2,0,0,0,.78,2.39,1.82,1.82,0,0,0,2.49-.37A13.83,13.83,0,0,0,139.12,139.67ZM133.05,132a6.49,6.49,0,0,0-5.56,5.51C129.66,138.57,132.89,135.43,133.05,132Z" transform="translate(-15.43 -15.65)"/><path class="m" d="M119,141.27c-.48-2.52-1-5-1.45-7.58l7.93.8c-.13.42-.24.84-.4,1.24a3.33,3.33,0,0,0,.52,3.78,3.87,3.87,0,0,0,3.88.87,19.75,19.75,0,0,0,2.44-.88l.05.05a36.75,36.75,0,0,0-2.14,4.31,4.78,4.78,0,0,0,1.55,5.66c.07.06.07.22.1.33a4,4,0,0,1-3-2.35,10.11,10.11,0,0,0-8.66-5.84C119.49,141.64,119.23,141.4,119,141.27Z" transform="translate(-15.43 -15.65)"/><path class="m" d="M137.28,135.46l.42,1.16L133.58,138l1.52-2.55Z" transform="translate(-15.43 -15.65)"/><path class="a" d="M137.28,135.46l-2.18-.05c.18-.55.36-1.1.55-1.64l.37-.13Z" transform="translate(-15.43 -15.65)"/><path class="m" d="M132.16,139.3l.09-.11s0,.05,0,.06l-.09,0Z" transform="translate(-15.43 -15.65)"/><path class="m" d="M131.88,139.5l.28-.2h0l-.22.26Z" transform="translate(-15.43 -15.65)"/><path class="t" d="M117,143.42a8.82,8.82,0,0,0-6.19-4.06c-.66-.11-1.41.4-2.12.57a4.13,4.13,0,0,1-.93,0c0-.33-.08-.85.07-.94a4.82,4.82,0,0,1,2-.87c3.42-.21,5.91,1.49,8,4a2.4,2.4,0,0,0,1.5.92c3.72.07,6.24,2,7.92,5.09a5.11,5.11,0,0,0,2.84,2.73,7.43,7.43,0,0,1,4.7,5.9c.06.36-.24.8-.37,1.2-.27-.32-.7-.6-.78-1a7.26,7.26,0,0,0-4.77-5.32c0,1.06,0,2,0,2.85a2.86,2.86,0,0,1-3.92,2.69,2.14,2.14,0,0,1-1.19-1.21c-.43-2.39-.49-4.34,2.08-5.43.29-.12.56-.28.83-.42-1.2-3.61-4.37-6-7.55-5.73a24.57,24.57,0,0,1,.13,2.57,2.85,2.85,0,0,1-3.74,2.81,2.51,2.51,0,0,1-1.61-3A4.6,4.6,0,0,1,117,143.42Zm10.29,8.24c-1.91.27-2.67,1.11-2.48,2.94a2,2,0,0,0,.91,1.42c.7.33,1.24-.21,1.59-.89A4.45,4.45,0,0,0,127.24,151.66Zm-9.38-6.79a2.6,2.6,0,0,0-2.52,1.66,1.42,1.42,0,0,0,.41,2,1.36,1.36,0,0,0,1.89-.91A18,18,0,0,0,117.86,144.87Z" transform="translate(-15.43 -15.65)"/><path class="m" d="M120.45,148.21l.3-2.14a6.33,6.33,0,0,1,3.83,3.13l-2,2.32h-1.24Z" transform="translate(-15.43 -15.65)"/><path class="x" d="M120.45,148.21l.87,3.31h1.24l-.51,1.7c-1.47-.39-2.88-.84-3.12-2.67Z" transform="translate(-15.43 -15.65)"/><path class="y" d="M247.79,170.45c.24,1.76.52,3.52.71,5.29.34,3.12.63,6.24.94,9.36a7.21,7.21,0,0,1,.05,1.31,5.85,5.85,0,0,1-.29,1.07,5.58,5.58,0,0,1-.48-1.06c-.42-1.8-.81-3.6-1.21-5.41-1.17-3.09-2.17-6.27-3.56-9.27s-3-5.54-4.58-8.32a2.43,2.43,0,0,1-.14-.82c.21,0,.49,0,.63.11,2,1.66,4.08,3.27,6,5A15.16,15.16,0,0,1,247.79,170.45Zm-5.89-5.2-.47-.31-.08.12.35.42c.58,1.08,1.23,2.14,1.72,3.26,1.75,4,3.45,8,5.07,11.81-.36-2.29-.9-4.85-1.15-7.44C247,169.42,244.53,167.31,241.9,165.25Z" transform="translate(-15.43 -15.65)"/><path class="y" d="M222,189.2l.09.77c-.48-.45-1-.88-1.44-1.36-1.93-2-3.83-4.08-5.93-6.32a6.61,6.61,0,0,1,1.69.89c1.65,1.66,3.23,3.39,4.83,5.11C221.52,188.58,221.75,188.89,222,189.2Z" transform="translate(-15.43 -15.65)"/><path class="k" d="M231.32,117.32a2.75,2.75,0,0,1,3.08.41,39.91,39.91,0,0,1,4.42,4.3,38.21,38.21,0,0,1,3,4.58c.74,1.16.45,3.83-.68,5.15C239,126.23,236,121.28,231.32,117.32Z" transform="translate(-15.43 -15.65)"/><path class="y" d="M232.66,125.15l-2.15-3.59.37-.22a61.67,61.67,0,0,1,7.35,12.37c.62-.42,1.08-.73.7-1.62a37.2,37.2,0,0,0-14.36-16.76c-.12.07-.21.09-.25.15-.3.41-.6.83-.91,1.24,0-.48.05-1,.11-1.45a5.85,5.85,0,0,1,.25-.91,4.46,4.46,0,0,1,1.35.33,37.43,37.43,0,0,1,14.33,16.68c.8,1.82.31,2.67-1.77,3.29a33.93,33.93,0,0,0-4.34-8.31l-.22-.49Z" transform="translate(-15.43 -15.65)"/><path class="y" d="M230,124c1.74,3.65,3.53,7.27,5.18,11,1.11,2.47,2,5,3,7.56l-.32.22a7.38,7.38,0,0,1-.64-1c-1.26-3.08-2.35-6.23-3.77-9.24-1.57-3.33-3.42-6.53-5.15-9.78-.13-.24-.27-.47-.48-.81l.77-.1.28.44.21.27.46.71c.16.24.31.49.47.74Z" transform="translate(-15.43 -15.65)"/><path class="l" d="M229.28,88.22l.51-.21,1.09-.76.32.34-1.54,1.65Z" transform="translate(-15.43 -15.65)"/><path class="l" d="M231.56,86.83l1.68-1.28.36.46L232,87.31Z" transform="translate(-15.43 -15.65)"/><path class="l" d="M234.07,85.29l1.92-.94.25.51-1.89,1Z" transform="translate(-15.43 -15.65)"/><path class="l" d="M241.92,84.7h-2.06v-.36H242Z" transform="translate(-15.43 -15.65)"/><path class="n" d="M230,124c-.16-.25-.31-.5-.47-.74Z" transform="translate(-15.43 -15.65)"/><path class="n" d="M233.12,125.86l.22.49Z" transform="translate(-15.43 -15.65)"/><path class="n" d="M229.05,122.53l-.21-.27Z" transform="translate(-15.43 -15.65)"/><path class="z" d="M158.78,87.52c-.6-1.11-1.17-2.23-1.8-3.31a36.21,36.21,0,0,1-4.71-14.52,33.93,33.93,0,0,1,3.12-18.22A34.39,34.39,0,0,1,170,35.57a43.09,43.09,0,0,1,16.4-5.08,46.12,46.12,0,0,1,5.39,0c-.87,1.38-1.65,2.83-2.63,4.12-2.54,3.37-5.3,6.6-9.15,8.48-9.47,4.64-14.66,12.63-17.74,22.29a5.37,5.37,0,0,0-.2,3.16,19.53,19.53,0,0,1,.44,10.63C161.91,82.18,161,85.17,158.78,87.52Z" transform="translate(-15.43 -15.65)"/><path class="x" d="M158.78,87.52c2.25-2.35,3.13-5.34,3.76-8.4a19.53,19.53,0,0,0-.44-10.63,5.37,5.37,0,0,1,.2-3.16C165.38,55.67,170.57,47.68,180,43c3.85-1.88,6.61-5.11,9.15-8.48,1-1.29,1.76-2.74,2.63-4.12.44-1,.83-2,1.32-2.9.22-.41.63-1,1-1a1.67,1.67,0,0,1,1.3.78c.49,1.23.78,2.55,1.15,3.83-.31,3.31-.63,6.62-1,10,1.21.41,2.69,1,4.21,1.42a9.47,9.47,0,0,0,3.39.48,26.13,26.13,0,0,0,11.08-4.15,11,11,0,0,1,1.74-1c.5-.18,1.29-.33,1.61-.07a1.91,1.91,0,0,1,.27,1.58,14.73,14.73,0,0,1-.9,2.33,23.49,23.49,0,0,1-5.43,6.92c1.06,1.54,2.66,1.74,4.17,2,2.75.4,5.53.63,8.3.93l.83.44c1.11.56,1.17.92.3,1.91l-6,3.38c.56.37.86.56,1.14.76,2.49,1.83,4.68,3.89,5.27,7.12.14.82.21,1.66.31,2.49l-.11,3.1a32.35,32.35,0,0,1-2.32,8.91,3.84,3.84,0,0,0-.16,1c-1.36,2.21-3,4.31-2.69,7.16l-.87,1.07-.18-3c3-6.58.82-10.86-3-14.19.22,0,.53-.11.65,0,.56.51,1.07,1.07,1.61,1.6L220,74.41l.2-.21-1-1.4.34-.26,3.23,3.9c.33-2.07.64-3.9.92-5.73.81-5.29-.87-9.32-5.88-11.72a1.42,1.42,0,0,1-.22-2.54c1.11-.9,2.32-1.68,3.5-2.5.35-.25.72-.48,1.37-.91-2.51-.19-4.63-.29-6.73-.53-2.33-.27-4.56-.85-6.08-2.88-.85-1.13-.81-1.44.31-2.33a16.13,16.13,0,0,0,4.66-5.83.2.2,0,0,0,.09,0s0,0,0-.06l-.07.13c-.9.4-1.8.78-2.69,1.19-4.35,2-8.79,3.32-13.58,1.61l-4.85-1.37a2.12,2.12,0,0,1-.32-2.32,25.12,25.12,0,0,0,1-9.83c-.26.42-.44.67-.58.93a40.15,40.15,0,0,1-8.22,10.17c-.56.5-1.09,1-1.64,1.54-.41.24-.8.51-1.23.71a32.32,32.32,0,0,0-8.86,5.6c-4,3.85-6.47,8.64-8.62,13.66a8.68,8.68,0,0,0-.39,5.95A22.35,22.35,0,0,1,164.73,80c-.69,3.3-1.71,6.48-4.24,8.94a1.34,1.34,0,0,0-.3,1.07A17,17,0,0,0,165,98.75c.66-.62,1.21-1.2,1.83-1.7a16.8,16.8,0,0,1,2-1.36c1.72-1,2.55-1,4.09.31l2.28,1.9c.14-.54.29-.94.35-1.35a9.85,9.85,0,0,1,6.87-8.42A83.13,83.13,0,0,0,193.14,83a10.52,10.52,0,0,1,6.08-1.21c1.48.11,1.92.72,1.7,2.08a6.72,6.72,0,0,1-1.48.06c-2.22-.35-4.41-.56-6.56.44-3.38,1.58-6.73,3.26-10.22,4.59a8.92,8.92,0,0,0-5.83,6.54c-.18.69-.37,1.38-.53,2.07-.4,1.82-.58,1.91-2.11.78-1-.76-2-1.58-3-2.37L170.31,97c1.81,2.85,5.52,4.73,8.29,3.86a13.6,13.6,0,0,0,4.14-2.5c1.53-1.21,2.41-1.24,4-.31,2.6,1.48,5.27,2.82,8,4a6.68,6.68,0,0,0,6.05-.14c3.49-2,6.85-4.18,10.27-6.28l4.52-3.87-1.41,4c-3.11,2.3-6.16,4.68-9.35,6.86a11.15,11.15,0,0,1-9.31,1.95l-1.45-.45-.68-.23-2.51-1.08-6-3.62L182,101.9c-5,2.24-9.9.88-13.07-3.64l-.4-.55a29.62,29.62,0,0,1-2.19,2.44,2.52,2.52,0,0,1-1.46.55,1.8,1.8,0,0,1-1.18-.5c-3.1-3.09-5.41-6.58-5.46-11.15A4.81,4.81,0,0,1,158.78,87.52Zm62.65-10.81.27-.17-1.22-2.05-.34.21Zm.3.6.08-.22h-.15Z" transform="translate(-15.43 -15.65)"/><path class="z" d="M214.26,38.89A26.13,26.13,0,0,1,203.18,43a9.47,9.47,0,0,1-3.39-.48c-1.52-.41-3-1-4.21-1.42.33-3.38.65-6.69,1-10A27.89,27.89,0,0,1,205.83,34c2.51,1.27,4.86,2.85,7.28,4.29C213.48,38.52,213.88,38.69,214.26,38.89Z" transform="translate(-15.43 -15.65)"/><path class="aa" d="M146,49.72c.7-2.11,1.25-4.28,2.11-6.32A34.5,34.5,0,0,1,157,31.19a8.23,8.23,0,0,1,1.87-1.27,2.59,2.59,0,0,1,3.21.83c.69.95.26,1.78-.34,2.61-2.6,3.62-5.29,7.18-7.71,10.92A56.35,56.35,0,0,0,151,50.64c-.79,1.63-1.64,2-3.26,1.36A2.39,2.39,0,0,1,146,49.72Z" transform="translate(-15.43 -15.65)"/><path class="ab" d="M220.63,87.81c-.34-2.85,1.33-5,2.69-7.16a30.28,30.28,0,0,0,4-9.17c.34-1.36.67-2.71,1-4.06A53,53,0,0,0,229.55,54l.34-.05a32.19,32.19,0,0,1,.81,4c.26,3.17.37,6.35.54,9.52-.48,2.57-.78,5.2-1.49,7.71A42.65,42.65,0,0,1,220,92c-.05.06-.14.08-.28.15Z" transform="translate(-15.43 -15.65)"/><path class="z" d="M224,51.5c-2.77-.3-5.55-.53-8.3-.93-1.51-.21-3.11-.41-4.17-2A23.49,23.49,0,0,0,217,41.7,32.25,32.25,0,0,1,224,51.5Z" transform="translate(-15.43 -15.65)"/><path class="z" d="M225.91,67.6c-.1-.83-.17-1.67-.31-2.49-.59-3.23-2.78-5.29-5.27-7.12-.28-.2-.58-.39-1.14-.76l6-3.38a36,36,0,0,1,2.69,13.52Z" transform="translate(-15.43 -15.65)"/><path class="aa" d="M167.69,27a1.72,1.72,0,0,1-.32.67,18.06,18.06,0,0,1-2.2,2c-1,.7-3.44-.26-3.71-1.41a1.26,1.26,0,0,1,.32-1.06,16.38,16.38,0,0,1,2.67-1.79C165.79,24.7,167.67,25.57,167.69,27Z" transform="translate(-15.43 -15.65)"/><path class="z" d="M182,101.9l2.9-2.65,6,3.62a26.17,26.17,0,0,1-3.53.18,44.81,44.81,0,0,1-4.58-.69A2.54,2.54,0,0,1,182,101.9Z" transform="translate(-15.43 -15.65)"/><path class="g" d="M225.91,67.6l1.93-.23.45,0c-.33,1.35-.66,2.7-1,4.06l-1.49-.78Z" transform="translate(-15.43 -15.65)"/><path class="r" d="M340.09,132.78c.44.49.92.84.87,1a1.94,1.94,0,0,1-.85.9c-.09.06-.71-.4-.69-.57A5.48,5.48,0,0,1,340.09,132.78Z" transform="translate(-15.43 -15.65)"/><path class="n" d="M219.39,122.43c.78,3,1.57,6,2.33,9,.43,1.68.18,2.29-1,2.64-.38-2.41-.83-4.82-1.14-7.25C219.4,125.35,219.45,123.88,219.39,122.43Z" transform="translate(-15.43 -15.65)"/><path class="y" d="M219.39,122.43c.06,1.45,0,2.92.19,4.35.31,2.43.76,4.84,1.14,7.25l-.6-.24-.15-.29h0c-.37-2.3-.83-4.59-1.09-6.9-.18-1.56-.09-3.15-.12-4.73Z" transform="translate(-15.43 -15.65)"/><path class="n" d="M220,133.5l.15.29Z" transform="translate(-15.43 -15.65)"/><path class="y" d="M248.72,190.35a5.68,5.68,0,0,1-1.17-1.29c-2-4.35-4-8.73-6-13.1-.24-.53-.55-1-.82-1.55l.28-.24a5.7,5.7,0,0,1,.94,1.16q3,6.45,6,12.92a19.53,19.53,0,0,1,.71,2.12Z" transform="translate(-15.43 -15.65)"/><path class="h" d="M224.41,117.68l.66-.13.05.27-.67.1Z" transform="translate(-15.43 -15.65)"/><path class="h" d="M228.09,120.6l-.1-.11.06,0a.2.2,0,0,1,0,.08Z" transform="translate(-15.43 -15.65)"/><path class="h" d="M228.09,120.59l.24.24h0l-.23-.24Z" transform="translate(-15.43 -15.65)"/><path class="h" d="M228.33,120.83l.1.11-.11-.1Z" transform="translate(-15.43 -15.65)"/><path class="ab" d="M219.58,85.88l.18,3c-.32,1.3-.58,2.63-1,3.9-.15.44-.71.75-1.07,1.13-.13-.46-.25-.91-.37-1.36l0,0,.18-.29.53-3.6,0,0,.19-.17a8.12,8.12,0,0,1,.34-1.93C218.66,86.28,219.21,86.12,219.58,85.88Z" transform="translate(-15.43 -15.65)"/><path class="ab" d="M214.21,95.82l1.41-4a7.55,7.55,0,0,1,.27-1.09c.32-.79,0-1.86,1-2.47l.42,1-.9,3.76c-.41,1-.77,2-1.27,2.92C214.91,96.47,214.41,96.78,214.21,95.82Z" transform="translate(-15.43 -15.65)"/><path class="y" d="M216.45,93l.9-3.76.67-.59c-.18,1.2-.35,2.4-.53,3.6l-.18.29,0,0Z" transform="translate(-15.43 -15.65)"/><path class="d" d="M166.86,141.69a2.44,2.44,0,0,1-2.57-2.3c0-1.19.64-2,1.53-2,1.56,0,3.31,1.56,3.27,2.92C169.07,141.25,168.32,141.71,166.86,141.69Zm-1-3.1c-.14,1.58.31,1.87,1.87,1.36Z" transform="translate(-15.43 -15.65)"/><path class="c" d="M176.41,207.68c-.42.2-.82.28-1,.52a3.93,3.93,0,0,0-1,1.71c0,.35.63.88,1.08,1.16a10.58,10.58,0,0,0,2.37,1.09,20.72,20.72,0,0,0,2.77.44,28.23,28.23,0,0,1-13-2C168.3,209.12,172.63,207.72,176.41,207.68Zm-3.67,1.89-2,.52v.24l2.09.41a5.53,5.53,0,0,0,0-.62A4.42,4.42,0,0,0,172.74,209.57Z" transform="translate(-15.43 -15.65)"/><path class="d" d="M185.73,211.32c-3.58,0-6.92.4-10-1.67A8.59,8.59,0,0,1,185.73,211.32Z" transform="translate(-15.43 -15.65)"/><path class="c" d="M185.61,208.82l4.92,2.33C188.36,211.75,186.84,211,185.61,208.82Z" transform="translate(-15.43 -15.65)"/><path class="m" d="M147.28,182.42l-.27,1c-4.72-.88-7.73,1.51-10.06,5.24-1.47,0-1.64-.2-1.93-1.94a10.27,10.27,0,0,1,7-5A6.75,6.75,0,0,1,147.28,182.42Z" transform="translate(-15.43 -15.65)"/><path class="d" d="M139.12,139.67a13.83,13.83,0,0,1-3.5,7.26,1.82,1.82,0,0,1-2.49.37,2,2,0,0,1-.78-2.39c.85-3.34,3.32-5.52,6.26-5.36A3.15,3.15,0,0,1,139.12,139.67Zm-1.72,1.91-.38-.27c-1.42.25-3.49,2.83-3.32,4.19,0,.17.2.45.29.45a1,1,0,0,0,.73-.25C135.64,144.34,136.52,143,137.4,141.58Z" transform="translate(-15.43 -15.65)"/><path class="d" d="M133.05,132c-.16,3.47-3.39,6.61-5.56,5.51A6.49,6.49,0,0,1,133.05,132Z" transform="translate(-15.43 -15.65)"/><path class="d" d="M127.24,151.66a4.45,4.45,0,0,1,0,3.47c-.35.68-.89,1.22-1.59.89a2,2,0,0,1-.91-1.42C124.57,152.77,125.33,151.93,127.24,151.66Z" transform="translate(-15.43 -15.65)"/><path class="d" d="M117.86,144.87a18,18,0,0,1-.22,2.75,1.36,1.36,0,0,1-1.89.91,1.42,1.42,0,0,1-.41-2A2.6,2.6,0,0,1,117.86,144.87Z" transform="translate(-15.43 -15.65)"/><path class="n" d="M241.9,165.25c2.63,2.06,5.08,4.17,5.44,7.86.25,2.59.79,5.15,1.15,7.44-1.62-3.79-3.32-7.81-5.07-11.81-.49-1.12-1.14-2.18-1.72-3.26Z" transform="translate(-15.43 -15.65)"/><path class="n" d="M241.7,165.48l-.35-.42.08-.12.47.31C241.84,165.33,241.77,165.4,241.7,165.48Z" transform="translate(-15.43 -15.65)"/><path class="o" d="M218,88.68l-.67.59-.42-1c-1.08.61-.72,1.68-1,2.47a7.55,7.55,0,0,0-.27,1.09l-4.52,3.87a6.24,6.24,0,0,0-1.3,0,9.93,9.93,0,0,1-9.11-2.15c-2.39-2-4.7-4-7.82-4.78a3.45,3.45,0,0,1,3.43-2.75,28.56,28.56,0,0,0,3.2-.26c1.26-.19,1.54-.63,1.42-2,.22-1.36-.22-2-1.7-2.08A10.52,10.52,0,0,0,193.14,83a83.13,83.13,0,0,1-10.71,5.18,9.85,9.85,0,0,0-6.87,8.42c-.06.41-.21.81-.35,1.35L172.93,96c-1.54-1.27-2.37-1.34-4.09-.31a16.8,16.8,0,0,0-2,1.36c-.62.5-1.17,1.08-1.83,1.7A17,17,0,0,1,160.19,90a1.34,1.34,0,0,1,.3-1.07C163,86.47,164,83.29,164.73,80a22.35,22.35,0,0,0-.09-10.66,8.68,8.68,0,0,1,.39-5.95c2.15-5,4.62-9.81,8.62-13.66a32.32,32.32,0,0,1,8.86-5.6c.43-.2.82-.47,1.23-.71,2.56-.16,5.11-.34,7.66-.48.72,0,1.44,0,2.15,0l4.85,1.37a3.34,3.34,0,0,1-1,.19c-1.34-.09-2.69-.37-4-.34-2.14,0-4.27.27-6.41.47a3.61,3.61,0,0,0-1,.51,3.8,3.8,0,0,0,1.12.41c1.62,0,3.24,0,4.86,0a26.29,26.29,0,0,1,10.21,2.63,35.62,35.62,0,0,1,9.08,6.12c1.16,1,2.14,2.28,3.42,3.67-1.52-.08-2.65-.17-3.78-.18a4.37,4.37,0,0,0-1.19.35,3.59,3.59,0,0,0,.42,1.18,12.32,12.32,0,0,1,2.71,5.12c.37,1.47.67,3,1,4.51h-1.74l4.46,2.74c3.82,3.33,6,7.61,3,14.19-.37.24-.92.4-1.06.73a8.12,8.12,0,0,0-.34,1.93l-.19.17Zm-14.64-4.05h0c-.23,0-.53,0-.69.13a9.06,9.06,0,0,0-.88,1c.4.19.82.56,1.21.54a4.81,4.81,0,0,0,1.92-.54,2.52,2.52,0,0,0,1-3c-.25-.76-.63-1.51-1.68-1.35l-1.44-.7-.16.32c1.6,1.15,1.85,2.09,1,3.44Zm-36.7,1.87c-1.25,1.48-1.4,3.27-1.42,5.09,0,.07.29.15.44.22,1.65-.24,3.68-2.48,3.59-4.07a2.45,2.45,0,0,0-.57-1.37c-.31-.36-.83-.6-1.07.17l-.71-.08ZM177,71.67l.21.26c.53.07,1.06.12,1.58.21a2.55,2.55,0,0,1,1.19.31c3.55,3.17,7.43,4.69,12.09,2.57a9.76,9.76,0,0,0,7.11-3.67,10.06,10.06,0,0,0,2.2-8.94,31.31,31.31,0,0,0-1.88-5.1c-.12-.31-.68-.74-.86-.67-.9.36-1.18-.34-1.63-.79a11.43,11.43,0,0,0-1.13-1.07c-.82-.6-1.17-.42-1.38.64l-1-.63.51-1.35-.31-.13c-1.66,2-3.28,4-5,5.9-3.17,3.62-6.38,7.21-9.57,10.81a7.85,7.85,0,0,1-2.32-6.94,7.62,7.62,0,0,0,0-1.17l-.35-.16a8.38,8.38,0,0,0-1.48,2,8.05,8.05,0,0,0,.84,7.1c.16.29.6.42.91.63Zm-4.56-2.22c.14,1.31.35,3,2.18,3.65a1.89,1.89,0,0,0,1.66-.23c.59-.66-.25-.94-.67-1.31-.89-.77-1.91-1.42-2-2.8a4.33,4.33,0,0,0-.57-1.34c-.2.48-.4,1-.59,1.44A4.59,4.59,0,0,0,172.45,69.45Z" transform="translate(-15.43 -15.65)"/><path class="v" d="M200.92,83.82c.12,1.34-.16,1.78-1.42,2a28.56,28.56,0,0,1-3.2.26,3.45,3.45,0,0,0-3.43,2.75c3.12.74,5.43,2.82,7.82,4.78a9.93,9.93,0,0,0,9.11,2.15,6.24,6.24,0,0,1,1.3,0c-3.42,2.1-6.78,4.31-10.27,6.28a6.68,6.68,0,0,1-6.05.14c-2.72-1.23-5.39-2.57-8-4-1.64-.93-2.52-.9-4,.31a13.6,13.6,0,0,1-4.14,2.5c-2.77.87-6.48-1-8.29-3.86l.91-1.08c1,.79,1.95,1.61,3,2.37,1.53,1.13,1.71,1,2.11-.78.16-.69.35-1.38.53-2.07a8.92,8.92,0,0,1,5.83-6.54c3.49-1.33,6.84-3,10.22-4.59,2.15-1,4.34-.79,6.56-.44A6.72,6.72,0,0,0,200.92,83.82Zm-.36,14.48c-2.22-1.87-4.13-3.6-6.18-5.16a9.82,9.82,0,0,0-3-1.4c-1.2-.39-1.09.87-1.5,1.43s-.17.91.4,1.24c1.1.64,2.13,1.38,3.22,2A13.76,13.76,0,0,0,200.56,98.3Z" transform="translate(-15.43 -15.65)"/><path class="v" d="M216.58,71.69,212.12,69h1.74c-.36-1.56-.66-3-1-4.51a12.32,12.32,0,0,0-2.71-5.12,3.59,3.59,0,0,1-.42-1.18,4.37,4.37,0,0,1,1.19-.35c1.13,0,2.26.1,3.78.18-1.28-1.39-2.26-2.63-3.42-3.67a35.62,35.62,0,0,0-9.08-6.12A26.29,26.29,0,0,0,192,45.55c-1.62,0-3.24,0-4.86,0a3.8,3.8,0,0,1-1.12-.41,3.61,3.61,0,0,1,1-.51c2.14-.2,4.27-.42,6.41-.47,1.34,0,2.69.25,4,.34a3.34,3.34,0,0,0,1-.19c4.79,1.71,9.23.39,13.58-1.61.89-.41,1.79-.79,2.69-1.19l0,0A16.13,16.13,0,0,1,210,47.3c-1.12.89-1.16,1.2-.31,2.33,1.52,2,3.75,2.61,6.08,2.88,2.1.24,4.22.34,6.73.53-.65.43-1,.66-1.37.91-1.18.82-2.39,1.6-3.5,2.5a1.42,1.42,0,0,0,.22,2.54c5,2.4,6.69,6.43,5.88,11.72-.28,1.83-.59,3.66-.92,5.73l-3.23-3.9-.34.26,1,1.4-.2.21-1.16-1.13c-.54-.53-1.05-1.09-1.61-1.6C217.11,71.58,216.8,71.68,216.58,71.69Z" transform="translate(-15.43 -15.65)"/><path class="v" d="M193.55,42.92c-.71,0-1.43,0-2.15,0-2.55.14-5.1.32-7.66.48.55-.52,1.08-1,1.64-1.54A40.15,40.15,0,0,0,193.6,31.7c.14-.26.32-.51.58-.93a25.12,25.12,0,0,1-1,9.83A2.12,2.12,0,0,0,193.55,42.92Z" transform="translate(-15.43 -15.65)"/><path class="s" d="M225.8,70.7l1.49.78a30.28,30.28,0,0,1-4,9.17,3.84,3.84,0,0,1,.16-1A32.35,32.35,0,0,0,225.8,70.7Z" transform="translate(-15.43 -15.65)"/><path class="v" d="M221.43,76.71l-1.29-2,.34-.21,1.22,2.05Z" transform="translate(-15.43 -15.65)"/><path class="v" d="M221.73,77.31l-.07-.22h.15Z" transform="translate(-15.43 -15.65)"/><path class="v" d="M214.67,41.49l.07-.13s0,0,0,.06a.2.2,0,0,1-.09,0Z" transform="translate(-15.43 -15.65)"/><path class="s" d="M217.31,92.57l.18-.29Z" transform="translate(-15.43 -15.65)"/><path class="y" d="M218,88.71l.19-.17Z" transform="translate(-15.43 -15.65)"/><path class="m" d="M137.4,141.58c-.88,1.37-1.76,2.76-2.68,4.12a1,1,0,0,1-.73.25c-.09,0-.27-.28-.29-.45-.17-1.36,1.9-3.94,3.32-4.19Z" transform="translate(-15.43 -15.65)"/><path class="a" d="M179.18,70c3.19-3.6,6.4-7.19,9.57-10.81,1.69-1.93,3.31-3.93,5-5.9l.31.13-.51,1.35,1,.63a23.6,23.6,0,0,1,2,2.31c2.34,3.67,3,7.52,1.06,11.6a2.49,2.49,0,0,0-.13.67h0l-1.29,2.12-.25.27-.64.23-.61.67L192.08,75c-4.66,2.12-8.54.6-12.09-2.57a2.55,2.55,0,0,0-1.19-.31c-.52-.09-1.05-.14-1.58-.21l-.21-.26-.22-.24c-1.46-3-1.74-4.3-1-5.23.35,2.06.42,4.21,2.42,5.42Zm5.48-1.47.49-.33c2.85,1.15,4.74,3.51,6.74,5.67a11.09,11.09,0,0,0,1.21-18.65c-4.39,5.34-8.78,10.69-13.22,16.08a10.9,10.9,0,0,0,6.85,3.73Z" transform="translate(-15.43 -15.65)"/><path class="j" d="M196.09,72.13,197.38,70l-.17,1.29c3.22-2.74,3.36-11.1.69-13.57a7.86,7.86,0,0,0,.38,1.06,12.58,12.58,0,0,1-.16,10.48c-.13.29-.48.49-.73.73a2.49,2.49,0,0,1,.13-.67c1.95-4.08,1.28-7.93-1.06-11.6a23.6,23.6,0,0,0-2-2.31c.21-1.06.56-1.24,1.38-.64A11.43,11.43,0,0,1,197,55.85c.45.45.73,1.15,1.63.79.18-.07.74.36.86.67a31.31,31.31,0,0,1,1.88,5.1,10.06,10.06,0,0,1-2.2,8.94A9.76,9.76,0,0,1,192.08,75l2.51-1.72.43,0,.22-.23h0a3,3,0,0,0,1.93-1.53l-.23-.25Z" transform="translate(-15.43 -15.65)"/><path class="j" d="M179.18,70l-1,1.6c-2-1.21-2.07-3.36-2.42-5.42-.7.93-.42,2.25,1,5.23-.31-.21-.75-.34-.91-.63a8.05,8.05,0,0,1-.84-7.1,8.38,8.38,0,0,1,1.48-2l.35.16a7.62,7.62,0,0,1,0,1.17A7.85,7.85,0,0,0,179.18,70Z" transform="translate(-15.43 -15.65)"/><path class="j" d="M172.45,69.45a4.59,4.59,0,0,1,0-.59c.19-.48.39-1,.59-1.44a4.33,4.33,0,0,1,.57,1.34c.1,1.38,1.12,2,2,2.8.42.37,1.26.65.67,1.31a1.89,1.89,0,0,1-1.66.23C172.8,72.42,172.59,70.76,172.45,69.45Z" transform="translate(-15.43 -15.65)"/><path class="j" d="M204.27,81.33c1-.16,1.43.59,1.68,1.35a2.52,2.52,0,0,1-1,3,4.81,4.81,0,0,1-1.92.54c-.39,0-.81-.35-1.21-.54a9.06,9.06,0,0,1,.88-1c.16-.13.46-.09.69-.13l-.88,1.21C205,84.93,205.42,83.57,204.27,81.33Z" transform="translate(-15.43 -15.65)"/><path class="j" d="M167.65,86.54c.24-.77.76-.53,1.07-.17a2.45,2.45,0,0,1,.57,1.37c.09,1.59-1.94,3.83-3.59,4.07a6.14,6.14,0,0,0,.54-.62C167.21,89.79,168.39,88.45,167.65,86.54Z" transform="translate(-15.43 -15.65)"/><path class="a" d="M167.65,86.54c.74,1.91-.44,3.25-1.41,4.65a6.14,6.14,0,0,1-.54.62c-.15-.07-.44-.15-.44-.22,0-1.82.17-3.61,1.42-5.09l.26,0Zm-1.73,3.58.34.1,1-3-.46-.14Z" transform="translate(-15.43 -15.65)"/><path class="y" d="M204.27,81.33c1.15,2.24.68,3.6-1.77,4.51l.88-1.21h0l.24-.24c.9-1.35.65-2.29-1-3.44l.16-.32Z" transform="translate(-15.43 -15.65)"/><path class="j" d="M203.62,84.39l-.24.24Z" transform="translate(-15.43 -15.65)"/><path class="j" d="M177,71.67l.21.26Z" transform="translate(-15.43 -15.65)"/><path class="j" d="M166.94,86.46l-.26,0Z" transform="translate(-15.43 -15.65)"/><path class="o" d="M200.56,98.3a13.76,13.76,0,0,1-7-1.86c-1.09-.65-2.12-1.39-3.22-2-.57-.33-.78-.72-.4-1.24s.3-1.82,1.5-1.43a9.82,9.82,0,0,1,3,1.4C196.43,94.7,198.34,96.43,200.56,98.3Z" transform="translate(-15.43 -15.65)"/><path class="ac" d="M184.66,68.55l2.07,6.5a10.9,10.9,0,0,1-6.85-3.73c4.44-5.39,8.83-10.74,13.22-16.08a11.09,11.09,0,0,1-1.21,18.65c-2-2.16-3.89-4.52-6.74-5.67Zm5.14-6.7a3.63,3.63,0,0,0-1,.59c-.74.72-1.39,1.53-2.09,2.28s-1.19,1.28-.65,2.2c.41.69,2.18,1.13,2.8.56a15.66,15.66,0,0,0,2.85-3.3C192.39,63,191.46,61.84,189.8,61.85Z" transform="translate(-15.43 -15.65)"/><path class="y" d="M196.09,72.13l.83-.78.23.25a3,3,0,0,1-1.93,1.53l.27-.48.35-.25Z" transform="translate(-15.43 -15.65)"/><path class="v" d="M195.49,72.65l-.27.48h0l-.22.23-.43,0c.2-.22.4-.45.61-.67Z" transform="translate(-15.43 -15.65)"/><path class="j" d="M195.49,72.65l-.29,0,.64-.23Z" transform="translate(-15.43 -15.65)"/><path class="y" d="M197.39,70c.25-.24.6-.44.73-.73a12.58,12.58,0,0,0,.16-10.48,7.86,7.86,0,0,1-.38-1.06c2.67,2.47,2.53,10.83-.69,13.57l.17-1.29Z" transform="translate(-15.43 -15.65)"/><path class="y" d="M195,73.35l.22-.23Z" transform="translate(-15.43 -15.65)"/><path class="v" d="M165.92,90.12l.87-3,.46.14-1,3Z" transform="translate(-15.43 -15.65)"/><path class="w" d="M189.8,61.85c1.66,0,2.59,1.18,1.92,2.33a15.66,15.66,0,0,1-2.85,3.3c-.62.57-2.39.13-2.8-.56-.54-.92.06-1.56.65-2.2s1.35-1.56,2.09-2.28A3.63,3.63,0,0,1,189.8,61.85Z" transform="translate(-15.43 -15.65)"/></svg>