<svg viewBox="0 0 379 316" xmlns="http://www.w3.org/2000/svg" fill-rule="evenodd" clip-rule="evenodd" stroke-linejoin="round" stroke-miterlimit="2">
  <path fill="none" d="M0 0h378.647v315.643H0z"/>
  <g fill-rule="nonzero">
    <path d="M277.141 209.379l-26.65 13.503c4.936 11.808 4.288 20.339 2.82 25.489-1.484 5.206-5.688 13.994-6.516 15.703-.402.832-.814 1.662-1.232 2.487l8.678-3.365-3.504 12.794 10.468-8.308 3.37 11.984c5.304-7.189 9.33-15.079 11.986-23.5 5.867-18.602 3.725-35.393.58-46.787" fill="#f98a31"/>
    <path d="M264.575 279.665l-3.37-11.984-10.469 8.309 3.506-12.794-8.679 3.364c.418-.824.831-1.655 1.233-2.486.828-1.709 5.032-10.497 6.515-15.702 1.468-5.151 2.116-13.682-2.82-25.489l26.651-13.504c3.144 11.393 5.287 28.185-.582 46.787-2.654 8.421-6.681 16.311-11.985 23.499m15.358-73.334l-.609-2.014-33.412 16.929.69 1.537c5.224 11.638 4.686 19.812 3.316 24.62-1.434 5.03-5.805 14.112-6.298 15.132a146.141 146.141 0 01-3.364 6.529l-2.323 4.241 11.054-4.287-4.504 16.439 14.76-11.714 3.814 13.558 2.145-2.669c6.638-8.255 11.593-17.475 14.725-27.404 6.497-20.597 3.589-39.047.006-50.897" fill="#231f20"/>
    <path d="M253.727 273.616l-2.988 2.378 3.482-12.729c.119.566.223 1.154.294 1.764.388 3.294-.081 6.223-.788 8.587M277.641 212.756c-.283 1.035-.894 1.94-1.494 2.835-2.906 4.294-5.858 8.621-9.504 12.338-.105.11-.224.227-.352.35a16.347 16.347 0 00-4.774 8.92 58.641 58.641 0 01-1.356 5.881c-1.258 4.435-3.729 12.752-10.81 20.503a42.566 42.566 0 01-2.399 2.434l-1.388.541c.411-.822.835-1.657 1.235-2.48.823-1.718 5.035-10.505 6.516-15.705.859-3.022 1.424-7.211.765-12.526-.471-3.764-1.541-8.081-3.588-12.964l.001-.002a6619.94 6619.94 0 0014.785-7.491c3.906-1.975 7.822-4.398 11.88-5.974.424 1.105.812 2.129.483 3.34M264.832 279.311c-.083.117-.177.234-.26.352l-3.175-11.315c.506.423.906.823 1.069 1.139 1.966 3.66 2.377 7.271 2.366 9.824" fill="#e56c2c"/>
  </g>
  <g fill-rule="nonzero">
    <path d="M324.693 136.489c-.833-1.352-3.475-2.729-11.306-1.621-11.317 1.603-22.235 7.924-32.449 18.788-.223.237-.406.432-.548.579-.49.504-49.537 50.65-97.845 64.293-20.632 5.827-37.82 3.583-51.63 1.779-5.632-.735-10.66-1.392-15.095-1.392-7.017 0-12.548 1.644-16.643 7.22-5.783 7.875-6.654 20.049-5.017 28.027 1.088 5.3 3.283 9.266 6.021 10.88 4.477 2.639 8.741 3.955 13.826 4.269 33.917 2.091 52.598 3.242 82.665-5.415 8.747-2.519 15.65-4.506 24.626-8.629 12.025-5.523 43.967-20.193 56.166-51.791 2.431-6.299 3.976-12.992 4.592-19.895l.216-2.413 1.549 1.863c1.884 2.263 4.469 3.664 6.917 3.746 1.257.033 2.353-.29 2.924-.89 1.233-1.295 1.041-4.792-1.21-7.932l-1.235-1.722 2.114.141c2.934.198 4.88-.301 5.776-1.479 1.227-1.612.403-4.522-.258-6.861-.649-2.299-1.211-4.285.124-5.257 1.371-.996 3.096.224 5.094 1.635 2.041 1.443 4.577 3.241 6.617 2.64 1.629-.48 2.352-2.355 3.704-6.214.297-.847.618-1.765.986-2.753 2.565-6.908 5.177-11.468 7.085-14.797 2.201-3.842 3.06-5.455 2.234-6.799" fill="#f15a29"/>
    <path d="M181.977 267.545c-6.167 1.271-14.937 3.858-24.147 4.216-22.107.857-48.661-1.124-55.164-4.208-.21-2.96-.406-4.571-1.496-7.422 1.37-1.199-.781-2.91.189-4.36 7.78 1.25 37.378 4.884 50.908 5.194 9.76.221 20.324-1.96 28.604-3.62.64 3.09 3.297 7.051 4.357 9.96M299.107 174.896c-.9 1.18-2.84 1.68-5.78 1.479l-1.92-.129c-.04-.18.08-.371.2-.531 1.04-1.38 2.87-1.769 2.87-1.769 1.29-.28 1.5.059 2.34-.13 1.18-.26 2.189-1.24 2.83-2.37.189 1.33.12 2.58-.54 3.45M322.376 143.426c-1.899 3.32-4.47 7.84-7 14.66-.37.99-.689 1.91-.989 2.75-1.351 3.86-2.071 5.74-3.7 6.22-2.04.6-4.581-1.2-6.621-2.64-1.25-.88-2.389-1.69-3.4-1.93.21-.24.41-.4.53-.5 2.14-1.67 4.93-.33 6.941-.51 2.559-.22 3.349-2.83 7.279-8.76 2.811-4.25 5.311-8.02 6.96-9.29M293.117 186.286c-.6.34-1.439.51-2.38.49-2.45-.08-5.03-1.48-6.92-3.75l-1.54-1.86-.22 2.42c-.62 6.9-2.16 13.591-4.589 19.89-2.901 7.52-6.921 14.081-11.521 19.78a83.113 83.113 0 01-5.47 6.131c-5.45 5.569-11.36 10.159-17.03 13.909-.88.58-1.76 1.14-2.63 1.69-7.889 4.941-15.07 8.24-19.52 10.28a118.34 118.34 0 01-8.27 3.45l-3.2-8.789c12.265-3.805 21.408-8.91 27.373-12.789 7.628-4.962 30.107-20.96 41.317-50.001a96.361 96.361 0 002.68-7.96c.84-.521 2.05-1.071 3.28-.761 1.65.41 2.161 2.07 3.42 3.74 1.38 1.82 3.38 3.32 5.22 4.13" fill="#c54827"/>
    <path d="M314.388 160.838c-1.353 3.858-2.075 5.734-3.704 6.214-2.04.6-4.576-1.197-6.617-2.64-1.998-1.411-3.723-2.631-5.094-1.636-1.335.973-.773 2.958-.124 5.258.661 2.339 1.484 5.249.258 6.861-.897 1.178-2.842 1.676-5.777 1.479l-2.113-.141 1.234 1.722c2.251 3.14 2.444 6.637 1.21 7.932-.57.599-1.667.923-2.923.889-2.449-.082-5.034-1.482-6.917-3.746l-1.549-1.862-.216 2.413c-.616 6.903-2.161 13.596-4.593 19.895-12.198 31.598-44.14 46.268-56.165 51.791-8.976 4.123-15.88 6.11-24.626 8.629-30.067 8.657-48.748 7.505-82.665 5.415-5.085-.314-9.349-1.63-13.826-4.269-2.739-1.614-4.934-5.58-6.022-10.88-1.637-7.978-.765-20.152 5.018-28.027 4.094-5.576 9.626-7.22 16.643-7.22 4.434 0 9.463.656 15.095 1.392 13.81 1.803 30.997 4.048 51.629-1.78 48.309-13.642 97.356-63.788 97.846-64.293.142-.146.325-.341.548-.578 10.214-10.864 21.132-17.185 32.449-18.788 7.831-1.108 10.473.269 11.306 1.621.826 1.344-.034 2.956-2.235 6.799-1.907 3.329-4.519 7.889-7.085 14.797-.367.988-.688 1.906-.985 2.753m12.008-25.397c-2.51-4.08-10.624-2.93-13.29-2.553-11.779 1.668-23.092 8.195-33.625 19.398-.214.228-.39.415-.527.555-.486.501-49.156 50.264-96.954 63.763-20.236 5.714-37.198 3.5-50.826 1.72-14.655-1.914-26.228-3.425-33.609 6.627-6.177 8.412-7.146 20.934-5.364 29.613 1.218 5.939 3.692 10.272 6.964 12.201 4.764 2.807 9.303 4.208 14.722 4.542 13.324.821 24.312 1.499 34.565 1.499 16.017 0 30.243-1.653 48.78-6.99 8.821-2.54 15.788-4.545 24.9-8.731 12.228-5.616 44.706-20.532 57.196-52.889a74.995 74.995 0 004.499-18.3c2.028 1.771 4.436 2.798 6.843 2.879 1.859.057 3.468-.488 4.441-1.509 1.778-1.868 1.695-5.525-.042-8.863 2.652-.097 4.542-.868 5.63-2.297 1.83-2.406.857-5.849.075-8.616-.294-1.041-.731-2.586-.608-3.072.506.044 1.845.99 2.745 1.628 2.394 1.692 5.378 3.8 8.337 2.924 2.686-.79 3.618-3.447 5.028-7.471.292-.835.61-1.742.972-2.718 2.508-6.753 5.073-11.23 6.946-14.499 2.298-4.011 3.684-6.432 2.202-8.841" fill="#231f20"/>
  </g>
  <g fill-rule="nonzero">
    <path d="M346.091 99.656a23.035 23.035 0 00-5.516-.958l-1.171-.061-.224-1.15a28.42 28.42 0 00-.422-1.83c-4.232-15.942-21.294-24.692-28.434-27.714-28.067-11.88-55.257 4.641-55.53 4.809-8.142 5.047-12.63 10.582-20.928 22.009-16.75 23.07-25.172 37.172-31.323 47.469-6.665 11.159-10.687 17.895-19.643 26.759-21.581 21.359-43.857 29.09-58.743 31.813-11.636 2.129-47.045 8.607-63.992-12.45-7.309-9.083-13.7-26.918-2.638-60.304 2.493-7.525 5.595-16.889 12.98-26.97 2.866-3.911 6.001-7.43 8.768-10.535 4.365-4.9 8.488-9.528 7.462-11.571-.281-.558-.984-1.01-2.044-1.317-8.391 2.69-16.059 6.633-22.796 11.72-32.698 24.691-38.871 70.23-30.769 102.094 8.561 33.667 25.787 48.791 38.73 55.549 12.487 6.522 24.488 6.382 48.395 6.1l1.186-.014c22.321-.26 39.662-4.104 65.91-9.923 18.25-4.045 22.8-6.085 25.244-7.18 13.011-5.835 25.42-15.705 36.928-29.356 7.898-9.37 11.777-17.068 15.2-23.861 4.499-8.927 8.384-16.637 19.511-24.835 13.124-9.67 21.794-16.058 34.577-17.643a236.64 236.64 0 013.914-.441c6.94-.742 12.421-1.328 15.187-5.533a9.182 9.182 0 001.079-2.291c-5.381 1.049-10.598 1.193-15.544.428l-.283-.045c-1.471-.184-4.628-.641-7.343-1.448l-.638-.187c-1.778-.518-2.952-.861-2.576-2.308l.001-.003c.386-1.473 1.614-1.16 3.313-.726 1.732.442 4.901 1.251 7.678 1.703.345.043.58.069.67.078 5.952.621 11.972-.089 16.479-.948l1.901-.457-.008.07c3.317-.722 5.444-1.425 5.494-1.442 6.739-2.266 10.807-3.633 12.739-7.494 1.686-3.366 1.003-6.9.631-8.264-1.95-7.154-10.029-10.315-13.412-11.342" fill="#fbb040"/>
    <path d="M75.667 94.646c-1.73 2.01-3.49 4.15-5.16 6.43-7.38 10.08-10.49 19.45-12.98 26.97-7.78 23.48-6.93 39.27-3.19 49.73a56.173 56.173 0 01-4.33-8.771c-8.97-23.169-2.03-52.029 16.6-68.169 2.27-1.97 5.24-4.17 9.06-6.19" fill="#f09d2e"/>
    <path d="M358.926 119.29a7.956 7.956 0 01-.96 1.499c-1.468 1.804-3.658 2.842-5.808 3.73-12.12 5.006-25.893 7.047-38.424 3.184-1.034-.319-2.404-.565-2.985.347-.643 1.009.485 2.289 1.637 2.611a62.437 62.437 0 008.78 1.764c.09.011.181.03.281.04 4.94.77 10.16.62 15.54-.43-.26.84-.621 1.6-1.081 2.3-2.759 4.2-8.24 4.79-15.179 5.53-1.271.13-2.571.27-3.92.44-12.78 1.59-21.45 7.97-34.57 17.64-11.13 8.2-15.02 15.91-19.52 24.84-3.421 6.79-7.301 14.49-15.2 23.86-11.5 13.65-23.91 23.52-36.92 29.35-2.45 1.101-7 3.141-25.251 7.191-26.25 5.809-43.589 9.66-65.909 9.919l-1.18.01c-23.911.28-35.911.42-48.4-6.099-12.94-6.761-30.17-21.88-38.73-55.551-2.881-11.34-3.96-24.42-2.671-37.67.521 5.4 1.43 10.61 2.671 15.49 8.56 33.67 25.79 48.79 38.73 55.55 12.489 6.52 24.489 6.38 48.4 6.101l1.18-.01c16.243-.139 31.531-3.527 47.38-6.083 16.244-2.621 32.741-5.803 47.474-13.451 13.548-7.034 24.892-17.536 34.825-28.996 10.436-12.039 18.691-24.486 31.514-34.279 6.342-4.843 12.977-9.297 19.173-14.331 2.783-2.261 5.232-4.891 8.358-6.623 3.386-1.877 6.859-3.37 10.679-4.115 5.038-.983 10.096-.436 15.171-.877 5.085-.443 10.329-2.566 14.144-6.006 3.031-2.735 5.439-6.5 9.331-7.734.26-.082.544-.152.802-.066.411.137.602.599.732 1.012 1.019 3.222 1.36 6.965-.094 9.913" fill="#f09d2e"/>
    <path d="M358.872 119.262c-1.933 3.861-6 5.228-12.739 7.494-.05.016-2.177.719-5.494 1.442l.007-.07-1.9.456c-4.507.859-10.527 1.57-16.479.949-.09-.01-.326-.035-.67-.078-2.777-.453-5.947-1.261-7.678-1.703-1.699-.434-2.927-.747-3.314.725l-.001.004c-.376 1.447.799 1.789 2.577 2.308l.637.187c2.716.807 5.872 1.264 7.344 1.448l.282.045c4.947.765 10.163.621 15.545-.429a9.208 9.208 0 01-1.079 2.292c-2.767 4.205-8.247 4.791-15.187 5.533-1.264.135-2.571.274-3.914.441-12.784 1.585-21.454 7.973-34.578 17.643-11.127 8.198-15.011 15.908-19.51 24.834-3.423 6.793-7.302 14.492-15.201 23.862-11.507 13.65-23.917 23.52-36.927 29.355-2.445 1.096-6.994 3.136-25.244 7.181-26.248 5.818-43.589 9.662-65.911 9.923l-1.186.013c-23.906.283-35.907.422-48.395-6.099-12.943-6.759-30.168-21.883-38.73-55.55-8.101-31.863-1.928-77.403 30.77-102.093 6.737-5.088 14.405-9.03 22.795-11.721 1.061.307 1.763.759 2.044 1.318 1.027 2.042-3.096 6.67-7.462 11.57-2.766 3.105-5.902 6.624-8.768 10.536-7.384 10.08-10.487 19.444-12.98 26.969-11.061 33.387-4.67 51.222 2.639 60.305 16.946 21.056 52.355 14.579 63.992 12.45 14.886-2.724 37.161-10.454 58.742-31.813 8.956-8.865 12.979-15.601 19.644-26.759 6.15-10.298 14.573-24.4 31.323-47.469 8.298-11.428 12.785-16.963 20.928-22.009.272-.169 27.463-16.689 55.53-4.81 7.14 3.022 24.201 11.772 28.434 27.715.199.752.336 1.387.422 1.829l.224 1.151 1.171.06c1.882.097 3.737.419 5.516.959 3.383 1.026 11.462 4.188 13.412 11.341.372 1.364 1.055 4.898-.631 8.265m3.525-9.054c-1.65-6.054-7.276-10.946-15.436-13.424a26.062 26.062 0 00-5.079-.999c-.07-.297-.145-.597-.224-.898-4.574-17.225-22.618-26.514-30.165-29.708-29.479-12.477-57.117 4.302-58.279 5.023-8.559 5.303-13.428 11.3-21.776 22.796-16.829 23.179-25.292 37.347-31.47 47.693-6.544 10.956-10.493 17.568-19.179 26.165-21.037 20.821-42.702 28.347-57.172 30.995-30.052 5.5-50.614 1.67-61.115-11.38-6.842-8.502-12.765-25.375-2.128-57.481 2.553-7.706 5.447-16.44 12.552-26.139 2.781-3.796 5.866-7.258 8.588-10.313 5.715-6.415 9.845-11.05 7.903-14.914-.734-1.46-2.22-2.466-4.416-2.99l-.403-.097-.396.125c-8.879 2.797-16.992 6.941-24.113 12.318-14.787 11.166-25.551 27.747-31.129 47.95-5.137 18.609-5.4 38.95-.74 57.277 8.835 34.742 26.764 50.428 40.249 57.471 10.731 5.603 20.857 6.54 37.471 6.54 3.757 0 7.847-.048 12.348-.101l1.186-.013c22.632-.265 40.093-4.135 66.524-9.993 18.549-4.113 23.28-6.234 25.866-7.393 13.382-6.001 26.15-16.142 37.949-30.14 8.126-9.639 12.09-17.504 15.587-24.444 4.503-8.937 8.061-15.997 18.613-23.771 13.195-9.723 21.16-15.591 33.165-17.08 1.326-.164 2.616-.302 3.864-.436 7.421-.793 13.83-1.478 17.374-6.867.894-1.359 1.508-2.908 1.829-4.617 3.971-.811 6.611-1.685 6.845-1.764 7.213-2.425 11.978-4.027 14.465-8.994 2.149-4.293 1.305-8.701.842-10.397" fill="#231f20"/>
  </g>
  <path d="M277.787 157.531c-.053 0-3.369-.194-3.423-.199-10.112-.936-15.19-7.759-17.791-16.965-3.205-11.341 1.442-17.806 2.264-18.816a1.5 1.5 0 012.328 1.892c-.722.887-4.498 6.225-1.705 16.109 2.27 8.036 6.864 13.856 15.737 14.804a1.5 1.5 0 01-.155 2.992" fill="#231f20" fill-rule="nonzero"/>
  <path d="M266.179 165.846c-.229 0-.46-.052-.678-.162-3.486-1.77-12.056-7.034-16.315-17.694-3.079-7.707-2.615-14.772-1.684-19.342a1.503 1.503 0 011.77-1.17 1.502 1.502 0 011.17 1.77c-.85 4.168-1.275 10.61 1.529 17.628 3.881 9.712 11.704 14.517 14.888 16.132a1.501 1.501 0 01-.68 2.838M258.899 176.591c-.291 0-.586-.084-.845-.261-4.936-3.367-13.798-10.929-17.681-23.739-1.872-6.173-2.323-12.878-1.3-19.389a1.5 1.5 0 112.963.465c-.951 6.067-.534 12.31 1.208 18.054 3.617 11.929 11.891 18.986 16.502 22.131a1.501 1.501 0 01-.847 2.739M253.184 187.357c-.27 0-.542-.072-.788-.225-6.121-3.787-14.551-10.757-19.957-22.454-4.542-9.824-5.047-19.062-4.672-25.081a1.493 1.493 0 011.591-1.404 1.5 1.5 0 011.403 1.59c-.353 5.675.122 14.381 4.401 23.637 5.362 11.601 14.088 18.238 18.812 21.162.705.435.923 1.36.486 2.064a1.496 1.496 0 01-1.276.711M276.08 143.643c-5.201 0-9.432-4.231-9.432-9.432 0-5.201 4.231-9.432 9.432-9.432 5.201 0 9.432 4.231 9.432 9.432 0 5.201-4.231 9.432-9.432 9.432" fill="#231f20" fill-rule="nonzero"/>
  <path d="M317.294 96.981c-5.478-6.843-15.481-7.953-22.324-2.475-6.844 5.477-7.952 15.481-2.475 22.324 5.478 6.843 15.481 7.952 22.323 2.475 6.844-5.478 7.954-15.481 2.476-22.324" fill="#fff" fill-rule="nonzero"/>
  <path d="M318.097 115.736a15.8 15.8 0 01-3.28 3.57c-6.84 5.48-16.84 4.37-22.321-2.48-5.479-6.84-4.37-16.84 2.471-22.32.359-.29.73-.56 1.109-.81-3.759 5.6-3.649 13.22.791 18.77 5.19 6.48 14.45 7.82 21.23 3.27" fill="#eaebec" fill-rule="nonzero"/>
  <path d="M294.97 94.506h.01-.01zm9.909-1.977a14.31 14.31 0 00-8.972 3.148 14.289 14.289 0 00-5.304 9.644 14.293 14.293 0 003.063 10.572 14.29 14.29 0 009.644 5.304 14.257 14.257 0 0010.571-3.063c6.192-4.956 7.197-14.024 2.242-20.216-2.838-3.544-7.022-5.389-11.244-5.389m.052 31.758c-.648 0-1.298-.036-1.951-.108a17.273 17.273 0 01-11.656-6.411 17.273 17.273 0 01-3.703-12.777 17.268 17.268 0 016.412-11.656c7.481-5.99 18.442-4.773 24.432 2.709 5.989 7.483 4.774 18.443-2.709 24.432a17.245 17.245 0 01-10.825 3.811" fill="#231f20" fill-rule="nonzero"/>
  <path d="M305.481 97.73c4.012-3.211 9.874-2.561 13.085 1.451 3.211 4.01 2.561 9.873-1.451 13.084-4.011 3.211-9.873 2.561-13.084-1.451-3.211-4.011-2.561-9.874 1.45-13.084" fill="#212121"/>
  <path d="M309.743 99.398a3.184 3.184 0 014.474.483 3.184 3.184 0 01-.509 4.471c-1.375 1.1-3.379.884-4.473-.483-1.095-1.367-.867-3.37.508-4.471M312.102 107.23a1.346 1.346 0 011.891.204 1.345 1.345 0 01-.215 1.889 1.346 1.346 0 01-1.891-.204 1.344 1.344 0 01.215-1.889" fill="#fff"/>
  <g>
    <path d="M307.078 66.178a37.519 37.519 0 01-.639-12 37.514 37.514 0 013.448-12.127 40.33 40.33 0 00-13.533 21.574 56.202 56.202 0 011.405-29.489 46.806 46.806 0 00-8.809 12.51 46.883 46.883 0 00-4.468 16.341 116.292 116.292 0 01-6.765-26.426 116.292 116.292 0 01-.859-21.636c-3.393 3.451-9.055 10.156-12.291 20.232-4.745 14.779-1.261 27.436.256 32.042l-2.682 1.277a162.782 162.782 0 01-12.893-27.83 162.618 162.618 0 01-6.347-23.424c-2.075 5.437-4.379 13.504-4.504 23.424-.219 17.418 6.405 30.432 9.957 36.383-5.108-3.881-11.958-10.05-18-19.149a78.345 78.345 0 01-8.173-16.064c-1.013 4.301-1.914 10.636-.847 18.107 2.139 14.99 10.793 24.721 14.383 28.34-3.869-.705-10.502-2.453-17.235-7.276-9.453-6.774-13.497-15.598-14.981-19.405-.514 3.946-.89 11.151 2.088 19.277 4.884 13.33 15.385 19.851 18.638 21.702l-3 4.851a67.098 67.098 0 01-16.021-9.574 67.154 67.154 0 01-13.824-15.177c.28 3.76 1.393 11.82 6.93 20.028 6.225 9.229 14.459 13.332 17.903 14.818l-3.031 4.631a38.007 38.007 0 01-14.148-4.513c-7.629-4.233-11.875-10.061-13.788-13.107.216 3.149 1.021 8.503 4.256 14.128 5.403 9.396 13.938 13.204 16.85 14.353l-2.421 3.991c-2.546-.091-7.756-.622-13.238-3.876-6.309-3.745-9.385-8.966-10.553-11.234a37.346 37.346 0 005.106 14.298c4.274 6.99 9.813 10.835 12.767 12.596l-3.647 3.872a33.23 33.23 0 01-12.184-4.383c-6.632-3.999-10.178-9.337-11.744-12.085-.245 1.817-.984 8.894 3.575 15.83 4.13 6.287 10.05 8.558 11.914 9.191l-5.936 6.724a36.37 36.37 0 01-6.83-4.851c-6.034-5.44-8.877-11.709-10.212-15.49-.333 2.965-.729 10.232 3.404 17.702a28.862 28.862 0 006.872 8.256l-3.168 3.091a38.59 38.59 0 01-8.13-7.091 38.787 38.787 0 01-7.149-12.256 28.374 28.374 0 001.873 12.256 28.393 28.393 0 007.319 10.638l-4.596 2.979a37.431 37.431 0 01-6.638-6.128 37.667 37.667 0 01-6.639-11.404c-.386 2.273-.899 7.177 1.192 12.765a24.577 24.577 0 005.702 8.809l-5.234 3.575a38.484 38.484 0 01-6.255-6.256 38.803 38.803 0 01-6.468-12.085c-.374 2.28-.79 6.724.851 11.915a25.777 25.777 0 005.496 9.55l-5.911 2.078c-1.269-.482-5.953-2.435-8.777-7.628-2.413-4.436-2.063-8.652-1.872-10.128a19.847 19.847 0 00-1.958 10.639 19.838 19.838 0 003.83 9.911l-7.787 1.45a20.588 20.588 0 01-6.511-8.297 20.574 20.574 0 01-1.562-9.973 23.488 23.488 0 00-3.033 8.951 23.51 23.51 0 00.952 10.079c-2.608.074-5.217.147-7.825.219a30.35 30.35 0 01-2.447-6.085 30.458 30.458 0 01-1.1-9.441c-1.5 1.745-3.84 4.957-5.027 9.569a23.456 23.456 0 00-.724 6.624c2.046.05 4.729.078 7.873.014 0 0 5.63-.116 10.695-.543 16.07-1.359 29.773-6.223 29.773-6.223 14.736-5.23 24.554-12.827 32.425-19.021 6.202-4.88 20.389-16.84 33.618-36.681 12.139-18.209 9.537-22.155 21.822-38.827 7.396-10.036 14.757-20.026 27.198-27.216 19.741-11.407 41.048-9.28 52.043-7.191" fill="#231f20" fill-rule="nonzero"/>
  </g>
  <g fill-rule="nonzero">
    <path d="M215.485 284.183l-3.336-16.325 15.414 7.078c-7.699-11.954-13.767-24.683-18.071-37.916-2.236-6.876-3.455-13.402-4.53-19.16-1.62-8.671-2.898-15.518-6.659-16.52a4.605 4.605 0 00-1.18-.149c-3.846 0-8.202 4.366-9.731 5.898-7.702 7.715-8.015 18.455-8.183 24.227-.656 22.462 12.589 43.214 22.147 55.18l1.952-14.373 12.177 12.06z" fill="#f98a31"/>
    <path d="M215.486 284.18l-12.174-12.057-.024.141c-.153-.353-.235-.682-.106-.8.294-.247 1.553.788 1.871 1.059 1.129.906 3.598 2.552 9.232 5.764v.011l1.201 5.882zM202.559 277.675l-1.2 8.822c-9.563-11.963-22.808-32.723-22.15-55.18.165-5.634.471-15.972 7.623-23.643a80.648 80.648 0 00-1.6 10.41c-.329 3.789-1.2 16.856 3.752 32.736 3.482 11.128 8.328 18.856 13.575 26.855M212.146 267.853l.011.071c-.224-.353-.352-.671-.235-.847.377-.577 2.846.764 5.939 1.729 2.872.894 4.965 1.034 6.6 1.117a159.86 159.86 0 003.105 5.011l-15.42-7.081z" fill="#e56c2c"/>
    <path d="M179.209 231.316c.168-5.771.481-16.513 8.183-24.228 1.528-1.53 5.885-5.897 9.73-5.897.4 0 .796.048 1.18.15 3.762 1.001 5.041 7.848 6.66 16.52 1.075 5.756 2.294 12.282 4.53 19.16 4.304 13.233 10.373 25.961 18.07 37.915l-15.413-7.079 3.336 16.326-12.177-12.061-1.952 14.373c-9.558-11.966-22.802-32.717-22.147-55.179m58.46 52.145l-3.709-5.319c-9.18-13.161-16.282-27.363-21.111-42.213-2.166-6.658-3.363-13.066-4.418-18.717-1.921-10.28-3.308-17.709-9.22-19.281-6.059-1.608-12.273 4.617-14.317 6.665-8.691 8.705-9.044 20.803-9.213 26.618-.75 25.721 15.676 49.047 25.535 60.662l2.561 3.017 2.075-15.282 15.421 15.271-4.274-20.913 20.67 9.492z" fill="#231f20"/>
  </g>
  <g fill-rule="nonzero">
    <path d="M105.967 258.017l-1.524-3.239c-.502-1.086-1.11-2.169-1.684-3.203-1.179-2.072-2.494-4.031-4.025-5.773-3.029-3.491-7.073-6.049-11.476-7.63a1.764 1.764 0 01-1.067-2.256 1.76 1.76 0 012.25-1.069c4.894 1.733 9.498 4.602 12.983 8.586 1.742 1.965 3.199 4.132 4.472 6.35a77.84 77.84 0 011.272 2.349c.203-.112.389-.228.556-.341 5.743-5.792 7.451-14.4 3.981-21.268-2.88-5.7-8.974-9.394-15.908-9.643-14.795-.572-27.789 9.134-30.236 22.577-1.86 10.226 2.891 21.092 12.104 27.682l1.813 1.296-7.573 6.626 14.051-3.279-1.567 3.305a234.575 234.575 0 01-2.825 5.751 262.522 262.522 0 01-1.747 3.364l14.229-9.38.797 14.136c4.353-3.283 9.985-8.984 12.122-17.51 1.414-5.641.992-11.61-.943-17.311l-.055-.12z" fill="#f98a31"/>
    <path d="M106.962 275.449c-2.13 8.528-7.764 14.221-12.116 17.503l-.106-1.882c2.799-4.011 6.352-10.504 7.399-19.021.482-3.963 1.188-9.68-1.353-15.985-1.929-4.8-6.14-10.951-8.857-13.068-.4-.307-1.965-1.459-3.235-3.529-.212-.341-.377-.659-.529-.942 4.046 1.589 7.751 4.035 10.563 7.282 1.54 1.741 2.858 3.692 4.034 5.764.577 1.035 1.176 2.117 1.682 3.211l1.518 3.235.058.117c1.941 5.705 2.365 11.669.942 17.315M107.726 251.794c-.165.106-.353.223-.553.341a77.877 77.877 0 00-1.282-2.353c-1.27-2.211-2.729-4.386-4.47-6.35-3.482-3.978-8.081-6.848-12.986-8.589a1.735 1.735 0 00-1.47.142c.011-.283.117-.565.305-.777.659-.728 2.247-.364 3.823.154 4.835 1.599 6.058 3.54 9.846 4.953 2.082.788 4.529 1.704 7.128.975 2.811-.776 4.176-3.023 5.246-4.598.812 5.656-1.223 11.691-5.587 16.102" fill="#e56c2c"/>
    <path d="M93.964 278.872L79.813 288.2c.141-.259.271-.519.412-.776 0-.012.012-.024.023-.037a28.588 28.588 0 015.223-4.798c1.776-1.27 4.058-3.27 7.575-3.611.365-.035.659-.072.918-.106M85.53 275.872l-13.586 3.176c2.776-2.059 7.034-4.281 11.892-3.541.518.071 1.081.19 1.694.365" fill="#e56c2c"/>
    <path d="M106.966 275.448c-2.138 8.527-7.77 14.227-12.123 17.51l-.797-14.135-14.229 9.379a231.008 231.008 0 004.572-9.115l1.567-3.306-14.051 3.279 7.573-6.626-1.813-1.295c-9.213-6.59-13.964-17.456-12.103-27.681 2.446-13.444 15.441-23.149 30.235-22.579 6.933.249 13.028 3.944 15.908 9.644 3.47 6.868 1.762 15.477-3.981 21.269a8.122 8.122 0 01-.556.341 75.489 75.489 0 00-1.272-2.349c-1.272-2.219-2.73-4.385-4.472-6.352-3.485-3.983-8.089-6.852-12.984-8.586a1.76 1.76 0 00-2.25 1.071 1.768 1.768 0 001.068 2.256c4.403 1.58 8.447 4.138 11.475 7.629 1.532 1.741 2.847 3.701 4.026 5.773.574 1.034 1.182 2.118 1.685 3.203l1.523 3.24.055.119c1.935 5.701 2.357 11.671.944 17.311m7.889-46.517c-3.46-6.846-10.714-11.283-18.927-11.578-16.51-.603-31.079 10.311-33.838 25.473-1.982 10.887 2.608 22.374 11.766 29.84l-14.908 13.045 20.647-4.821a225.302 225.302 0 01-6.29 11.833l-3.654 6.405 21.216-13.984.799 14.153 2.537-1.608c4.806-3.046 13.301-9.875 16.185-21.383 1.73-6.902 1.133-14.101-1.436-20.831 7.812-6.814 10.308-17.822 5.903-26.544" fill="#231f20"/>
  </g>
</svg>
