<svg version="1.1" viewBox="0 0 420 100" xmlns="http://www.w3.org/2000/svg">

    <!-- zig-icon.svg -->
    <g fill="#f7a41d">
        <path d="m0 10v80h19l6-10 12-10h-17v-40h15v-20zm40 0v20h62v-20zm91 0-6 10-12 10h17v40h-15v20h35v-80zm-83 60v20h62v-20z" shape-rendering="crispEdges"/>
        <path d="m37 70-18 20v-15z"/>
        <path d="m113 30 18-20v15z"/>
        <path d="m96.98 10.63 36.28-10.4-80.29 89.17-36.28 10.4z"/>
    </g>
    
    <!-- ZIG letters -->
    <g fill="#737475">
        <path d="m190 10v12.43h46.02l17.98-2.178v-10.26zm100 0v80h14v-80zm90.46 35.35v12.34h20.35v21.31l13.78-2e-3v-33.65zm-173.5 32.34-18.33 2.178v10.14h65.41v-12.31z" shape-rendering="crispEdges"/>
        <path d="m380.9 8.494c-11.2-0.1112-21.96 4.343-29.8 12.34-7.551 7.89-11.54 18.34-11.49 29.26-0.0353 5.592 0.7914 11.36 2.838 16.56 3.815 9.879 11.52 17.76 21.31 21.79 5.128 2.083 10.74 3.205 17.14 3.205 6.591 0.06793 13.13-1.185 19.23-3.686 5.211-2.287 10.07-5.31 14.42-8.975l-4.59-5.998-9.191-0.25c-5.632 3.957-12.35 6.083-19.23 6.088-11.25 0.338-21.45-6.571-25.32-17.14-1.282-3.525-1.924-7.371-1.924-11.46s0.6418-7.772 2.084-11.3c2.423-6.645 7.376-12.06 13.78-15.06 7.41-2.944 15.66-2.944 23.07 0 3.428 1.717 6.654 3.812 9.615 6.248l8.973-10.73c-3.873-3.506-8.389-6.227-13.3-8.012-5.685-1.891-11.64-2.866-17.63-2.885zm-135.9 11.51-8.98 2.434-47.43 57.43 11.41 0.1367 6.922-2.314 47.08-57.43z"/>    
    </g>
    
</svg>
