<?xml version="1.0" encoding="UTF-8" standalone="no"?>
<svg
   xmlns:dc="http://purl.org/dc/elements/1.1/"
   xmlns:cc="http://creativecommons.org/ns#"
   xmlns:rdf="http://www.w3.org/1999/02/22-rdf-syntax-ns#"
   xmlns:svg="http://www.w3.org/2000/svg"
   xmlns="http://www.w3.org/2000/svg"
   viewBox="0 0 386 91"
   height="91"
   width="386"
   xml:space="preserve"
   version="1.1"
   id="svg2"><metadata
     id="metadata8"><rdf:RDF><cc:Work
         rdf:about=""><dc:format>image/svg+xml</dc:format><dc:type
           rdf:resource="http://purl.org/dc/dcmitype/StillImage" /><dc:title></dc:title></cc:Work></rdf:RDF></metadata><defs
     id="defs6"><clipPath
       id="clipPath34"
       clipPathUnits="userSpaceOnUse"><path
         id="path36"
         d="M 0,630 810,630 810,0 0,0 0,630 Z" /></clipPath></defs><g
     transform="matrix(1.25,0,0,-1.25,0,91)"
     id="g10"><g
       transform="translate(71.74833,48.264794)"
       id="g12"><path
         id="path14"
         style="fill:#f7a41d;fill-opacity:1;fill-rule:nonzero;stroke:none"
         d="m 0,0 -9.554,0 -19.186,0 0,12.79 31.976,0 9.593,0 0,0 28.335,9.288 -47.549,-47.658 9.621,0 19.186,0 0,-12.791 -31.976,0 -9.593,0 -28.336,-8.971 L 0,0 Z" /></g><g
       transform="translate(9.0420303,22.684294)"
       id="g16"><path
         id="path18"
         style="fill:#f7a41d;fill-opacity:1;fill-rule:nonzero;stroke:none"
         d="m 0,0 0,38.37 0.541,0 0,0.001 27.895,0 0,-12.79 -15.646,0 0,-25.581 19.185,0 -12.79,-12.79 -6.395,0 -12.79,0 -0.001,0 0,12.79 L 0,0 Z" /></g><g
       transform="translate(115.03933,48.264594)"
       id="g20"><path
         id="path22"
         style="fill:#f7a41d;fill-opacity:1;fill-rule:nonzero;stroke:none"
         d="m 0,0 -19.185,0 12.791,12.79 6.394,0 12.791,0 0,0 0,-12.79 0,0 0,-38.37 -0.541,0 0,-0.001 -27.895,0 0,12.79 15.645,0 L 0,0 Z" /></g><g
       transform="translate(157.90883,16.411294)"
       id="g24"><path
         id="path26"
         style="fill:#737475;fill-opacity:1;fill-rule:nonzero;stroke:none"
         d="m 0,0 29.578,35.81 -28.647,0 0,7.806 40.106,0 0,-6.517 -29.578,-35.81 29.578,0 0,-7.807 L 0,-6.518 0,0 Z" /></g><path
       id="path28"
       style="fill:#737475;fill-opacity:1;fill-rule:nonzero;stroke:none"
       d="m 221.21913,60.027894 8.737,0 0,-50.1340005 -8.737,0 0,50.1340005 z" /><g
       transform="translate(-251.05287,-279.3671)"
       id="g30"><g
         clip-path="url(#clipPath34)"
         id="g32"><g
           transform="translate(528.993,288.4015)"
           id="g38"><path
             id="path40"
             style="fill:#737475;fill-opacity:1;fill-rule:nonzero;stroke:none"
             d="m 0,0 c -3.915,0 -7.473,0.657 -10.671,1.97 -3.199,1.312 -5.933,3.126 -8.2,5.442 -2.269,2.316 -4.023,5.037 -5.264,8.165 -1.242,3.127 -1.862,6.528 -1.862,10.206 l 0,0.143 c 0,3.485 0.637,6.804 1.912,9.955 1.274,3.152 3.065,5.909 5.372,8.272 2.305,2.364 5.045,4.237 8.222,5.622 3.174,1.385 6.647,2.078 10.42,2.078 2.195,0 4.189,-0.156 5.98,-0.466 1.79,-0.311 3.449,-0.752 4.978,-1.325 1.527,-0.573 2.971,-1.278 4.333,-2.113 1.36,-0.836 2.685,-1.803 3.974,-2.9 l -5.586,-6.661 c -0.956,0.811 -1.933,1.551 -2.936,2.22 -1.003,0.668 -2.054,1.229 -3.151,1.684 -1.099,0.453 -2.304,0.811 -3.618,1.074 -1.313,0.261 -2.757,0.393 -4.333,0.393 -2.291,0 -4.428,-0.478 -6.409,-1.435 -1.982,-0.957 -3.701,-2.237 -5.157,-3.84 -1.457,-1.602 -2.603,-3.48 -3.438,-5.633 -0.836,-2.153 -1.253,-4.425 -1.253,-6.817 l 0,-0.143 c 0,-2.584 0.404,-4.977 1.214,-7.177 0.811,-2.201 1.965,-4.092 3.466,-5.669 1.499,-1.579 3.285,-2.823 5.359,-3.732 2.071,-0.909 4.392,-1.364 6.965,-1.364 2.381,0 4.607,0.349 6.68,1.045 2.071,0.695 3.869,1.619 5.394,2.772 l 0,9.433 -12.821,0 0,7.664 21.343,0 0,-21.056 C 19.671,6.756 18.299,5.753 16.795,4.799 15.291,3.843 13.667,3.008 11.925,2.292 10.182,1.575 8.309,1.014 6.303,0.608 4.298,0.204 2.196,0 0,0" /></g></g></g></g></svg>