<svg width="720" height="720" xmlns="http://www.w3.org/2000/svg" xmlns:xlink="http://www.w3.org/1999/xlink" xml:space="preserve" overflow="hidden"><g transform="translate(-280 0)"><g><path d="M544.342 422.313C544.155 418.923 542.471 415.81 539.713 413.781 536.968 411.774 533.503 411.119 530.194 411.961L462.287 429.684 534.355 295.307C535.342 293.489 535.797 291.417 535.684 289.322L533.581 250.71C533.394 247.319 531.71 244.216 528.955 242.176 526.21 240.171 522.742 239.517 519.432 240.359L382.645 276.078C377.465 277.431 373.913 282.307 374.21 287.66L376.313 326.271C376.503 329.664 378.184 332.777 380.942 334.794 383.687 336.79 387.152 337.455 390.461 336.613L452.945 320.297 380.865 454.674C379.89 456.494 379.426 458.555 379.526 460.661L381.629 499.271C381.816 502.664 383.5 505.777 386.255 507.806 388.239 509.245 390.584 510 392.919 510 393.852 510 394.781 509.877 395.677 509.645L538 472.497C543.181 471.145 546.732 466.268 546.435 460.916L544.332 422.303 544.342 422.313Z" fill="#FFFFFF" fill-rule="evenodd" fill-opacity="1"/><path d="M842.6 170.338C842.4 166.936 840.703 163.845 837.952 161.839 835.177 159.844 831.706 159.19 828.423 160.044L786.861 170.87C781.645 172.222 778.087 177.109 778.406 182.473L790.387 391.658 790.352 391.681 790.432 392.887C790.632 396.3 792.329 399.403 795.081 401.387 797.055 402.806 799.384 403.548 801.745 403.548 802.7 403.548 803.665 403.426 804.619 403.184L919.594 373.229C924.787 371.877 928.345 367.003 928.048 361.648L925.939 323.042C925.748 319.652 924.065 316.536 921.3 314.509 918.552 312.503 915.081 311.849 911.764 312.691L851.742 328.339 842.61 170.338 842.6 170.338Z" fill="#FFFFFF" fill-rule="evenodd" fill-opacity="1"/><path d="M755.052 192.929C754.855 189.524 753.158 186.429 750.413 184.422 747.645 182.425 744.177 181.77 740.9 182.625L694.816 194.66C691.261 195.581 688.358 198.198 687.064 201.67L652.758 293.837 610.581 224.975C607.958 220.694 602.929 218.664 598.081 219.928L554.587 231.298C549.381 232.651 545.839 237.543 546.148 242.912L558.174 453.523C558.374 456.929 560.068 460.023 562.813 462.029 564.784 463.452 567.11 464.194 569.458 464.194 570.41 464.194 571.371 464.071 572.326 463.829L611.823 453.513C617.026 452.148 620.571 447.268 620.261 441.897L614.623 342.7 651.242 399.903C653.535 403.497 657.61 405.471 661.852 405.061 666.09 404.648 669.713 401.932 671.297 397.948L699.842 325.584 699.974 325.239 705.003 415.132C705.19 418.526 706.874 421.642 709.632 423.674 712.4 425.671 715.864 426.326 719.142 425.471L758.639 415.155C763.845 413.8 767.387 408.91 767.077 403.542L755.052 192.941 755.052 192.929Z" fill="#FFFFFF" fill-rule="evenodd" fill-opacity="1"/><path d="M304.677 360.323C304.677 175.129 454.806 25 640 25 825.194 25 975.323 175.129 975.323 360.323 975.323 545.516 825.194 695.645 640 695.645 454.806 695.645 304.677 545.516 304.677 360.323Z" stroke="#FFFFFF" stroke-width="48.051" stroke-linecap="butt" stroke-linejoin="miter" stroke-miterlimit="8" stroke-opacity="1" fill="none" fill-rule="evenodd"/></g></g></svg>