<svg id="レイヤー_1" data-name="レイヤー 1" xmlns="http://www.w3.org/2000/svg" viewBox="0 0 320 120"><defs><style>.cls-1{fill:#fff;}.cls-2,.cls-3{fill:none;stroke:#fff;stroke-miterlimit:10;}.cls-2{stroke-width:3px;}</style></defs><ellipse class="cls-1" cx="67.01" cy="17.11" rx="4.3" ry="10.8" transform="translate(23.67 71.01) rotate(-65.52)"/><ellipse class="cls-1" cx="83.26" cy="22.81" rx="2.69" ry="7.4" transform="translate(40.14 97.6) rotate(-75.36)"/><path id="SVGID" class="cls-2" d="M104.3,47.22c7.11,26.2-8.78,53.26-35.41,60.31S14.8,99,7.7,72.79s8.77-53.27,35.41-60.32S97.2,21,104.3,47.22"/><path class="cls-1" d="M84.12,23.93a12.64,12.64,0,0,0-2.68-5c-1.53-.79-3.14-1.41-4.68-2.24a27.76,27.76,0,0,0-4.36-2.19,13.22,13.22,0,0,0-4.12.41,12.76,12.76,0,0,0-9.15,15.65,12.94,12.94,0,0,0,15.84,9A12.75,12.75,0,0,0,84.12,23.93Z"/><path class="cls-1" d="M70.16,14.46a9.86,9.86,0,0,0-1.63,0,.81.81,0,0,1-.93-.8.75.75,0,0,1,0-.16A75.08,75.08,0,0,0,57,11.43c-3.09-.24-6.19-.11-9.27-.34a11.65,11.65,0,0,0-.87,8.36A12,12,0,0,0,61.46,27.8,11.81,11.81,0,0,0,70.16,14.46Z"/><path class="cls-1" d="M97.13,31.7a25.32,25.32,0,0,0-2.54-2.76,75.26,75.26,0,0,0-6.81-6.2l-.11-.07-.4-.21-.14-.08a6.92,6.92,0,0,0-.91,0,.87.87,0,0,1-.93-1,6.2,6.2,0,0,0-.72.16A9.85,9.85,0,0,0,77.5,33.63a10,10,0,0,0,12.24,7A9.9,9.9,0,0,0,97.13,31.7Z"/><path class="cls-1" d="M103.75,44.47l0-.09h0A78.74,78.74,0,0,1,99,36.92a31.41,31.41,0,0,0-5.43-7l-1-.94A9.86,9.86,0,0,0,86.3,40.85a10,10,0,0,0,17.45,3.62Z"/><line class="cls-3" x1="94.95" y1="46.55" x2="64.54" y2="98.57"/><line class="cls-3" x1="58.18" y1="42.17" x2="27.78" y2="94.19"/><line class="cls-3" x1="74.97" y1="47.29" x2="53.25" y2="84.45"/><line class="cls-3" x1="105.02" y1="58.45" x2="83.31" y2="95.6"/><line class="cls-3" x1="22.59" y1="69.59" x2="13.91" y2="84.46"/><line class="cls-3" x1="20.94" y1="41.34" x2="7.91" y2="63.63"/><line class="cls-3" x1="43.18" y1="34.47" x2="30.15" y2="56.77"/><line class="cls-3" x1="35.51" y1="16.36" x2="30.3" y2="25.27"/><line class="cls-3" x1="45.59" y1="97.36" x2="40.38" y2="106.27"/><path class="cls-1" d="M135.57,38a3.6,3.6,0,0,0,2.73-1c1.54-1.46,1.74-1.67,2.07-1.67.73,0,3.67,2.87,3.67,3.6s-1.34,2.87-1.47,3.33a70.28,70.28,0,0,0-.4,8.54c0,3.47.4,18.8.4,21.87,0,.93,0,2.87-1.2,4.07a5.65,5.65,0,0,1-2.8,1.54c-1.2,0-1.27-1.54-1.27-1.94,0-1.6,0-2.07-1.86-2.07h-3.8a1.68,1.68,0,0,0-1.87,1.87c0,.2,0,2.87-.07,3.27-.2,1.73-2.4,3.93-3.4,3.93-1.8,0-1.8-1.54-1.8-2.13s.27-4.87.27-5.8c.2-7.07.33-11.81.33-30.47,0-1.4-.2-7.61-.2-8.81,0-.33,0-.73.4-.73a11.43,11.43,0,0,1,3,1.46A5.67,5.67,0,0,0,132,38Zm-.13,34.54c.6,0,1.6,0,2-.87.2-.46.2-5.8.2-7.2a64,64,0,0,0-.2-7.13,1.64,1.64,0,0,0-1.54-.87h-4.53c-1.73,0-1.73.53-1.73,6,0,1.87,0,8.74.26,9.2a1.52,1.52,0,0,0,1.61.87Zm-3.8-32.74a1.62,1.62,0,0,0-1.4.53c-.54.67-.54,10.21-.54,11.74s0,2.67,1.87,2.67h4.07a1.82,1.82,0,0,0,1.8-.87c.26-.67.26-7.6.26-8.93,0-4.81,0-5.14-1.93-5.14ZM169.71,53c3.14,0,3.47,0,4.47-1.66.46-.74,1.66-2.67,2.73-2.67a15.93,15.93,0,0,1,2.67,1.87c3.13,2.59,3.33,2.73,3.33,3.26,0,.94-1.4.94-3.6.94H154.18c-3.14,0-5.88.06-7.14.2-.27,0-1.27.13-1.47.13s-.33-.13-.53-.4l-1.34-1.54c-.26-.32-.26-.32-.26-.46s.06-.13.2-.13c.53,0,2.6.19,3,.19,2.33.14,5.67.27,7.87.27h2.6c2,0,2-1.34,2-2.13,0-1.4,0-5.07-.07-6.27C159,43,157.91,43,157.24,43c-2.13,0-5.53,0-7.47.14-.2,0-1.2.19-1.4.19s-.4-.19-.6-.46L146.5,41.3c-.26-.27-.33-.34-.33-.4s.14-.2.27-.2c.46,0,2.53.2,2.93.26,2.4.07,5.34.21,7.67.21.73,0,2,0,2-1.68a54.57,54.57,0,0,0-.4-7.39c-.06-.34-.27-1.61-.27-1.87a.5.5,0,0,1,.54-.54c.06,0,7.06,2,7.06,2.87,0,.34-1.46,1.46-1.66,1.73-.47.53-.47,1.94-.47,2.67,0,4,0,4.21,2.87,4.21s3.74.06,4.6-1.2c1.87-2.61,1.87-2.61,2.4-2.61.87,0,5.87,4.27,5.87,4.87s-.34.73-3.27.73H165.84C164,43,164,44,164,45.63c0,5.47,0,6.06.19,6.54.34.86,1.27.86,1.74.86Zm2.54,13.27c-2,0-2.27.6-2.27,2.4,0,2.6.33,13.94.33,16.27,0,5.2-5.47,5.4-6.4,5.4-.67,0-.93-.06-.93-.8,0-1.73,0-2.67-2.81-3.66-.66-.21-3.6-.94-4.13-1.14-.27-.13-1.07-.53-1.07-.8s.41-.47,1-.47c.27,0,6.34.74,7.54.74s1.47-.14,1.73-1.07c.14-.53.2-1.34.2-8.2,0-8.54-.06-8.67-2.26-8.67h-5.47c-1.47,0-6.07,0-8.4.13a9.66,9.66,0,0,1-1.4.21c-.27,0-.4-.21-.61-.47L146,64.63c-.27-.26-.33-.33-.33-.39s.13-.21.26-.21c.47,0,2.54.21,2.94.27,3.06.13,6.06.2,9.13.2h5.2c1.93,0,1.93-1.13,1.93-2.26,0-.87-.33-5.34-.33-5.48,0-.53.14-.8.54-.8S172,57.77,172,59.1c0,.4-1.66,1.67-1.8,2a4.18,4.18,0,0,0-.33,2c0,1.14.6,1.4,1.27,1.4s1-.26,2.66-2.53c.6-.87,1.34-1.74,2.07-1.74.33,0,.6.21,2.67,1.87,3.13,2.53,3.33,2.74,3.33,3.27,0,.93-1.33.93-3.53.93ZM157.31,80.5c-1.47,0-1.87-.73-3.27-3.13a21.84,21.84,0,0,0-5.93-5.87c-.27-.2-2.4-1.73-2.4-1.8,0-.33.33-.39.53-.39,1.33,0,13.4,2.33,13.4,8.8A2.53,2.53,0,0,1,157.31,80.5Z"/><path class="cls-1" d="M215.2,47.83c1.87,0,1.87-1.13,1.87-2.2,0-.6,0-6.46-.14-6.86-.4-.94-1.26-.94-1.93-.94H202c-5.87,0-7.81.13-8.41.13a10.45,10.45,0,0,1-1.46.2c-.2,0-.34-.2-.54-.46l-1.33-1.54c-.13-.2-.27-.33-.27-.4s.07-.19.27-.19c.4,0,2.47.19,2.93.26,3.27.13,6,.2,9.14.2H236.4c3.2,0,3.53,0,4.87-1.93,1.6-2.34,1.67-2.4,2.2-2.4,1,0,5.6,4.53,5.6,5.19,0,.94-1.26.94-3.53.94H223.93c-2.19,0-2.19.46-2.19,4.8,0,4.66,0,5.2,2.06,5.2h13.8A2.89,2.89,0,0,0,240,47c.54-.66,1.14-1.26,1.4-1.26.87,0,6.07,3.86,6.07,4.66,0,.61-.2.67-1.86,1.74-1.14.74-1.14,1.06-1.14,4.33,0,2.54.14,13.6.14,15.87,0,10.87,0,12.14-.47,13.21-1.07,2.6-5.21,3.53-5.94,3.53-.93,0-1.26-.4-1.66-1.6a6.19,6.19,0,0,0-4-3.94c-.33-.06-1.53-.4-1.53-.66s.27-.2.4-.2c.4,0,6.67,0,6.87-.06,1.13-.21,1.2-1.47,1.27-2.88.13-5,.33-21.87.33-28.2,0-1.67-1-1.94-2.07-1.94h-14c-2.06,0-2.06.2-2.06,6.4,0,4.41,0,23.21.26,26.54.07.54.13,1.74.13,2.21a3.5,3.5,0,0,1-3.67,3.6c-2,0-2-1.14-2-1.74s.26-3.8.26-4.4c.34-7,.4-12.86.4-15.93,0-1.54,0-15.14-.06-15.41-.2-.73-.67-1.27-1.94-1.27H201.66c-1.93,0-2,1.14-2,2.61.07,5.26.07,28.53.07,33.27,0,2.46-2.6,3.33-4.2,3.33-1.4,0-1.4-1.6-1.4-2.06,0-1,.46-7.34.46-8.74V52.3c0-.87-.53-5.34-.53-6,0-.47.07-.67.53-.67a20.35,20.35,0,0,1,4.54,1.53,5.32,5.32,0,0,0,2.53.67Zm-3,13.07a2.51,2.51,0,0,1-2.34,2.73c-1.26,0-1.66-1-2.26-2.4a23,23,0,0,0-4-5.8,4.14,4.14,0,0,1-.8-1c0-.06.06-.13.13-.2C203.2,54.17,212.2,56.3,212.2,60.9Zm0,14.54a3.2,3.2,0,0,1-2.74,3.2c-1.2,0-1.46-.74-2.4-3.34a33.68,33.68,0,0,0-3.46-6.07,4.23,4.23,0,0,1-.6-.93c0-.06.06-.2.13-.2C204.26,67.84,212.2,70.9,212.2,75.44Zm24.2-.2A2.6,2.6,0,0,1,234.2,78c-.86,0-1.33-.66-2.2-2.13a31.5,31.5,0,0,0-5.93-6.67c-.67-.61-.8-.67-.6-.8C226.4,67.77,236.4,69.57,236.4,75.24Zm-.53-13.87a2.69,2.69,0,0,1-2.2,2.93c-1.14,0-1.54-.87-2.07-2.14-1-2.39-3.53-5-4.53-6.06a16.21,16.21,0,0,1-1.54-1.47.22.22,0,0,1,.2-.2C227.2,53.83,235.87,56,235.87,61.37Z"/><path class="cls-1" d="M305.43,43.43a2.09,2.09,0,0,0,2.07-1.14c.46-.73.8-1.06,1.13-1.06s6.53,4.14,6.53,5.87c0,.93-.66,1.33-2,1.4-2.8.07-3.2.07-4.47.46-.73.2-4.46,2.14-4.46,2s2.06-4.07,2.06-4.88-.66-.93-1.26-.93H266.68c-1.13,0-1.66,0-1.8,1.54-.66,7.06-4.66,9.53-6.6,9.53A2.38,2.38,0,0,1,256,53.76c0-1.66.87-2.39,2.07-3.53a13.13,13.13,0,0,0,4-7.06,23.58,23.58,0,0,1,.86-3.54c.27,0,.34.26,1.34,2.47.47,1.07.66,1.33,2.34,1.33H281c2.07,0,2.07-1,2.07-4.07,0-1.46-.07-5.66-.27-6.93-.06-.33-.4-2-.4-2.33s.07-.47.67-.47c.8,0,6.87.93,6.87,2.66a1.33,1.33,0,0,1-.6.94,14,14,0,0,0-1.07,1c-.33.53-.33,4.33-.33,6.6,0,1.54,0,2.6,2.06,2.6ZM295,74.7a12.15,12.15,0,0,0,3.26-.19c.67-.34,2.81-3.47,3.47-3.47s5.07,3.4,5.07,4.47-1.2,1-3.6,1h-13.4c-2,0-2.14,1-2.14,2.73,0,5.33,0,5.86,2,5.86h12.74c2.86,0,3.4-.06,3.8-.46.6-.67,2.86-4.07,3.66-4.07s5.61,4.34,5.61,5.4-1.14.93-3.47.93H268.09c-5.87,0-7.8.14-8.4.14a12.23,12.23,0,0,1-1.47.2c-.2,0-.34-.2-.54-.47l-1.33-1.53c-.26-.27-.26-.33-.26-.4a.18.18,0,0,1,.2-.2c.46,0,2.53.27,3,.27,3.26.19,6,.19,9.13.19H281c2,0,2-1.06,2-2.66,0-5.6,0-5.93-1.94-5.93h-4.93c-5.87,0-7.8.13-8.47.13a11.23,11.23,0,0,1-1.4.2c-.2,0-.33-.2-.6-.47l-1.27-1.53c-.26-.27-.26-.33-.26-.4a.18.18,0,0,1,.2-.2c.46,0,2.53.27,2.93.27,3.27.19,6,.19,9.14.19H281c1.94,0,1.94-1.2,1.94-2.46,0-7.34-.14-7.87-2.6-7.87H278c-1.87,0-2,1.06-2.06,1.8a2.7,2.7,0,0,1-3,2.73c-1.26,0-2.07-.34-2.07-1.8,0-.73.34-3.87.34-4.46.07-2.2.13-4.41.13-5.47,0-1.4-.06-3.67-.2-5-.06-.34-.46-1.87-.46-2.2a.56.56,0,0,1,.6-.61,10.71,10.71,0,0,1,3.4,1.07,8.19,8.19,0,0,0,3.47.73h15.6A2.71,2.71,0,0,0,296.23,50c.66-.87.8-1,1.26-1,.8,0,4.67,3,4.67,3.93,0,.54-.2.74-1.4,1.81-.53.53-.53,1.53-.53,3.46,0,.87.13,4.94.13,5.8a3,3,0,0,1-3.13,3.21c-1.47,0-1.67-.67-1.87-1.67-.27-1.2-1.13-1.2-1.87-1.2h-7.33c-.2,0-.6,0-.6.33s.13.47,1.93,1.2c2,.8,2.13,1.2,2.13,1.53S288.16,69,288,69.31a7,7,0,0,0-.33,2.93c0,1.6.27,2.46,2.14,2.46ZM275.89,39a2.3,2.3,0,0,1-2.2,2.6c-1.07,0-1.27-.4-3.27-4.13a15.67,15.67,0,0,0-4.13-5,5.31,5.31,0,0,1-.8-.67c0-.13.46-.2.53-.2A14.27,14.27,0,0,1,271.09,33C272.62,33.7,275.89,35.49,275.89,39ZM278,52.9c-1.74,0-2.14.53-2.14,2.4,0,5.87,0,6,.27,6.53.33.81,1.27.81,1.87.81h15.6c1.93,0,2.27-.07,2.27-6.68,0-2.26-.07-3.06-2.14-3.06Zm27.73-17.2c0,.86-.86.93-1.8.93s-1.06.07-4.93,2.27a20.74,20.74,0,0,1-5.33,2.27c-.07,0-.2,0-.2-.07s2.59-3.47,3-4.21c2.13-3.53,2.39-3.86,2.79-5.13.34-.93.41-1.13.81-1.13.8,0,2.27,1.26,2.93,1.8C304.23,33.56,305.69,34.82,305.69,35.7Z"/></svg>
