<svg version="1.1" id="Layer_1" xmlns="http://www.w3.org/2000/svg" x="0" y="0" viewBox="0 0 288 288" xml:space="preserve">
  <style>
    .st2{fill-rule:evenodd;clip-rule:evenodd;fill:#303f42}.st3{fill:#f0ce41}.st3,.st8{fill-rule:evenodd;clip-rule:evenodd}.st9{fill:#f7a41d}
  </style>
  <path id="shape0" d="M148.2 73.8L147 59.9l-4.1-13.6-8.5-14.4-9.4-11.2-11.3-8.8-12.8-6.3-14.6-3.9-11.8-1-11.7 1.4-15.6 4.1-11.4 5.1-11 8.5-10.2 11.6-8 15.4-3.2 7.9-2.2 13.5v13.9l1.6 10.5 4.5 12.3 7.5 13.7 12 12.1 9.6 7.2 13.6 6.7 7.4 2.2 8.9.4 4.6 1.1 10.9.1 12.2-4.5 12.7-7.3 18.3-14 15.6-18.6 6.9-11.1 1.3-7.3v-6s-.2-1.9-.6-5.8z" fill-rule="evenodd" clip-rule="evenodd" fill="#c0fdf1" fill-opacity=".4863"/>
  <path id="shape1" d="M154.4 78.6l6.2 6.8 11.9 24.5 6.2 13.2 1 7.4v6.6l-2.6 2.6-.8 1.5 1 15.3-.1 5.4 7-3.8 7-4.6 2.6 10.2-.8 27.6.5 5.7 4.8 27.5.8 17.9-.8 14.4-3.4 3.8-8.9 2.5-5.7-.9-15-13.4-12.5-9.3-8.5-7.8-3.7-5.9-.4.4-1.1.9-4.1 8.4-8.1 8.8-1.4 1 4.4 11.8.6 8.8-4 4.7-5.8 3.5-3.8-.3-7.3-3.4-9.2-6.7-9-9-5.4-10.3-.3-5.3 2.7-10.9 4.5-8.6 6.2-11.4 1.3-2.1 36.8-20.1-1.1-.8-8.3-1.7-5-1.2-5.1-3.6-2.9-3.8-1.7-5.2-.8-4-3.9-3.5-4.7-2.5-6.1.9-3.5 2.1-.9-1.3-1.7-1.8-2.4-.3-4 1.9-4.8 3.6-1.7.2-5.6-5.2-2.9-5.3.5-1.5 7.1 1.5 14.4-1.2 11.6-5.8 17.2-10.7 12.7-11.3 9-9.5 5.1-7.2 5.5-10.8 1.8-5.6.8-6.2c-.3-.1-.7-2.6-1.4-7.6z" fill-rule="evenodd" clip-rule="evenodd" fill="#f7a41d"/>
  <path id="shape2" class="st2" d="M77.9 185.9l-20.8 17.9-9-.7-2.6-5 3.3-4.4 3 2 1.4.3 4.5-2.8 6.9-1.2 2.4-2.9.7-3.7 4.8-.7 3.6-1.7c-.2.2.4 1.1 1.8 2.9z"/>
  <path id="shape3" class="st2" d="M84.6 201.1l6.3-2.8 6.4-2.4 6 1.6 9.1-9.4 3.9-6.2 1-2.8 2.2 1.1 4.6 3 9.7 1.4 2.3 1.3-45.8 25.3-2.6-2-3.5-5.5c.1.2.2-.7.4-2.6z"/>
  <path id="shape4" class="st2" d="M148.3 69.8l15.2-14.3 8.8-1.8 27.5 11.7 4.9 2.7 4.7 7.5 24.1 48.8.6 6.3-2 5.2-5.4 4.7 3.2 1.6c2.5.3 4.6 1.1 6.4 2.3 1.8 1.2 3.4 2.9 5 5.1l-.2 7.8-2.7 8.4-5 5.4-9.1 4.9-6.1 1.1-6.7-.9-3.8-3.3-1.2-7.1-.1-5.6-5.6 4.4-3.8 1h-3.6l-1.5-9.7-1.3-2.8-14.1 9.3.1-16.2-1.2-6.5 3.8-3.5.2-11.9-11.9-24.2-7.6-16.5-6.2-5.4-1.8-3.2-2.3-2.4-1.5-.9c.3.3.2-.4.2-2z"/>
  <path id="shape5" class="st3" d="M148.3 72.7l2.7.9 2.8 6 1.4 9.3-2.1 7.6-5.1 11-6.7 9.7-7.7 7.8-8.2 7.8-12.6 9.2-9.4 5.2-13.1 6.5-9 .8L71 154l-3.6-3-1.9-2.9 2.5-.6 7.1 1.2 6.4-.6 9.8-2.8 9.1-5 11.8-7.5 16-13.6 12.8-15.7 6.4-10.8 1.5-7.6-.1-7.1c0 .1-.1-1.7-.5-5.3z"/>
  <path id="shape6" class="st3" d="M117.5 178.8l-4.1-5.8-1.2-6-.4-1.6-6.5-4.8-3.6-1-5.4 1.6-3 1.5 1.9 3.8 1.4 2.5-3.9 4-7.9 5.5-1.9 1-2-4.1-2.8-2-1.6-.3-1.4-3.7 2.5-3.2L79 165l-6.2-4.9-3-6.1-1.8-.7-7.2 1.3-3.4.8 1 3.4 1.8 1.4-9.3 7.8-1.7 3-3.1-3.4-2.3-.7-5.4 7.1.9 3.3 1.9 4.3-.2 3.2.7 3.3 9.6 7.7h1.9l5.1-2.5 5-1.1 3.6-2.1.9-4.2 1.7-.7 6.4-1.9 2.5 2.2 1.4 2.4-1.8 3.2 3 4.5 2.7 2.9 2.8 1.5 10.8-4.1 4.9 1.3 2-.3 8.7-9 3.7-5.5c-.1-.1.2-1.3.9-3.6z"/>
  <path id="shape7" class="st3" d="M181.4 263.5l8.1-1.1 4.9-2.1 2.5-2.3 1.8 1.8 2.7 7.2v6.1l-11.1 8.4-7.9 5.8-5.1.4-2.2-.8-2.1-2.6 6-14.7c.1 0 .9-2.1 2.4-6.1z"/>
  <path id="shape8" class="st3" d="M130.2 266.3l2.8 3 1.7 8.7-.6 5.8-2.2 2.6-3.7 1.3-30-.1c-2.3-2.9-2.8-5-1.6-6.3s3.1-2.7 5.8-4.1l8.1-6 4.8 2.4 4.8.6 4-2.3c.1 0 2.1-1.9 6.1-5.6z"/>
  <path id="shape9" class="st2" d="M83.4 179.3l13.1-9.8-1-2.4-2.1-4.7-2.1-3.2-1.7-.5-8.1 4.7-5 3.8-1.3 2.1 1.3 3.7 2.2.8 2.2 2.2c.2-.1 1 1 2.5 3.3z"/>
  <path id="shape10" class="st2" d="M50 170.2l4.2-5.6 5.4-4.2-2.7-5.2-1.3-3.9-1.4-.8-5.4 3.5-5.8 5-2.7 3.4.7 2.6 3.6 2.1 2.2 1.4c.1 0 1.1.6 3.2 1.7z"/>
  <path id="shape11" d="M206.5 160.3l-4.6 4-3.4 1.7-5.5-.5-.3 24-.6 3.8 1.7 5.8.6 2.8 21 2.1 11.6-.4 9.1-3.3 14-6.6 13.9-9.9 9.5-11.4 7.3-11.5 3.5-13.1 1.8-10.9.8-11.5-1.8-10.2-4.2-14.7-5-10-9.4-11.6-5.8-5.8-9.2-6.1-11.2-5.7-11.2-3.6-6.4-1.2-3.5.5-4.4 3.1-2.5 2.8-.3 1.1 4.4.4 6.2 3.4 5.9 4.9 2.4 2.2 4.3-2.6 2.6-.7.6 3.6-1.2 4.3-1.4 1.7 1.4 1.2 3.9 1.6 3.9.5 4.9-.2 1.4.2 1.1.5 3.9 7.9 1.1 2.5-1.2 2.5-2.8 1.8-4.3 2-4.7-.1 2.2 3.6 5.6 3.5 7.8 1 2 .4 2.4 5.8-.4 7.7-5 3.2-4.4.2-5.1-1.7.3 1.7 3.4 5.6 3.8 3.6 4.5 3.2-1 2.6-4.7 6-4.5.3-1.2-.1-3.3-3.3-1.8-8.9-2.9 4.3-2 8.2 1.2 2.3-.3 10.2-7 9.7-9.8 5.9-7.1 1.1-6.4-1.5-3.6-5.1-.9-5.4c-.1-.2.1-2 .3-5.4z" fill-rule="evenodd" clip-rule="evenodd" fill="#728942"/>
  <path id="shape12" d="M148.6 74.4l-3.7-2.8-6.3-.8 5.8-6.4-1.4-.6-14.5 1-5.2-.5-1.8-2.3 6.8-3.1 5.9-5.5.6-2.7-5.6 1.7-17 .6-7.7-2-7.5-3.8-26.5-.8-2.7-.3-3.5 3.9L49 62.4l-13.4 7.1-15.2 5.1-7.6 2.6-3 7.7 1.3 8.7.7 4.7 3.2 3.9 1.9 2.2 2 4.3 6.7 4.5 7.3 3.4 6.4 1.8 5.6 4.1 9 8.3 6.9 3.4 6.8 3.7 3.8 4.4 10.3 5.3 9.1-2.5 11.2-5.3 11.3-7.9 12.4-9.9 6.8-7.6 11-13.8 4.4-9.3 1-7.4-.3-6.2v-3.3z" fill-rule="evenodd" clip-rule="evenodd" fill="#9ca76c"/>
  <path id="shape13" d="M88.3 60.4l-12.1 4.1-8.2 5.3-.1 5.2 3.3 5.6 5.2 3.1h6l7.7-2.9 3.1-3.5 1.2-6.9-1.5-5.9-2-2.5c-.1-.1-.9-.6-2.6-1.6z" fill-rule="evenodd" clip-rule="evenodd" fill="#edf7ce"/>
  <path id="shape14" d="M82.1 147.7l-7.1-3-5.7-3.8-1.9 3.3-.8 2.7.8.3 4.8 1.2 6.1-.1c0 .1 1.3-.1 3.8-.6z" fill-rule="evenodd" clip-rule="evenodd" fill="#dbcb88"/>
  <path class="st8" d="M148.9 79.2c.1-1.4.4-6.4.4-8.6 0-2.2-.6-6.5-.9-7.8-.2-.9-.9-4-2-9.2-1.7-4.7-2.6-7.4-2.8-8.3-.3-1.3-4.6-9.5-5.9-11-1.2-1.5-6.2-8.4-7.5-9.6-.9-.8-4-3.6-9.4-8.5-5.4-4.3-9.2-6.9-11.4-7.9-3.3-1.5-7.6-3.5-10.4-4.3-2.7-.8-6.6-2.3-8.1-2.7S81.6-.1 74.7 0 56.6 2 54.5 2.6C53 3 48.8 4.5 41.9 7.2c-3.9 2-6.7 3.6-8.6 4.9-2.8 1.9-6.1 5-8.6 7s-4.9 4.7-6.1 6c-1.2 1.3-4.4 5.9-6 8C11 35.2 7.8 41.4 7 43.2c-.8 1.8-1.8 4.5-2.7 7-.9 2.6-1.8 4.9-2.5 8.1-.7 3.2-1.3 5.9-1.4 8-.1 1.4-.1 4.8-.2 10.1.1 5.1.5 9.1 1 12.2.8 4.6 4.6 15.4 5.2 17.1s4.4 8.4 5.9 10.8c1.5 2.5 6.9 8.9 8.9 10.6 2 1.6 6.4 6.1 9.6 8.3 3.2 2.1 9.9 6.3 12.4 7.5 2.5 1.2 7.5 3.2 9.8 3.5 2.3.4 7.2 1.7 10.2 1.8 2 .1 4.2 0 6.5-.1l-3.3-1.6-7.4-.3-4.5-.8c-4-1.8-6.6-2.8-7.8-3-1.8-.3-8-4.3-9.4-4.8-1-.3-3.4-2.1-7.4-5.3l-6.2-5.6-5.3-5.7-5.4-7.3c-3.3-6.1-5.1-9.7-5.6-10.9-.7-1.7-3.9-10.7-4-12.3C3.1 89 2 80.1 2 77.7c0-2.3-.2-7.6-.1-9 .1-1 1.1-6.2 2.9-15.5 2.6-5.9 4.3-9.6 5-11.2.7-1.6 2.7-5.2 6.1-10.8l7.9-8.9c3.9-3.7 6.8-6.1 8.4-7.3 2.5-1.7 10.6-6.6 19.4-9.1s18.8-4 20.8-3.8c2 .2 11.2-.3 13.6.5s7.3 1.8 10.8 2.9c2.3.7 6.7 2.5 13.2 5.5 5.8 3.5 9.2 5.9 10.1 7.1 1.5 1.9 7.9 7 9.7 9.2 1.8 2.2 6.8 9 7.4 10.5.6 1.5 4.9 7.8 6 11.7 1.1 3.9 2.9 9.8 3.4 14.6.5 4.7.9 8.1.7 9.7-.2 1.1-.1 2.2.2 3.3.2.6.7 1.4 1.4 2.1z"/>
  <path id="shape15" class="st8" d="M148.9 74.6l-2.8-4.1-4.1-.4-.8-.7 3.4-3.8 1.4-3.2c-2.7.7-5.2 1.1-7.5 1.1-3.5.1-9.7.2-12 .3-1.5 0-2.8-.5-4-1.4 2.7-.5 4.6-1.3 5.8-2.3 1.2-1 3.6-3 7-6l1.3-3.7-.3-1.3c-3.1 1.4-5.6 2.1-7.4 2.1-2.8.1-14 .2-16.8.6-1.9.3-3.4.2-4.3-.3-6.8-3.3-10.7-5.1-11.9-5.2-1.8-.2-10.9-1.1-14.2-.8-3.3.4-8.8-.6-11.4-.3-2.6.3-3.1.1-5.7 3.1-2.5 2.9-8.3 8-11.2 10.1-3 2.1-15.2 8.6-19.2 10.4S20 73.3 17.3 74.2c-2.7.9-5 1.2-6.5 4.6-1.5 3.4-3.3 8.8-1.7 13 1.6 4.2 2.3 6.8 4.3 9.5 1.3 1.8 2.4 3.2 3.1 4.2l.8 2.1 3.8 4.4 10.3 5.1 8.4 2.7L48 127l6.8 5.2 7.6 3.9 4.2 2.2c.7 1.5 1.5 2.9 2.5 4.2 1 1.3 4.7 3.3 11.1 5.9l4-.8-10.4-4.8-5.4-5.4 2.2-.2 5.2 1.1 14.5-1.8c4.1-.7 6.9-1.8 8.3-3.2 1.4-1.4 2.9-2.9 4.5-4.4l-3.3.1c-1.9 1.7-3.5 2.9-5 3.8-1.5.9-5.1 2-11 3.4l-12-.3-8.1-1.2-6.6-3.1-6.2-4.5-4.8-5.2-5.8-4.9-8.3-1.6-7.1-3.3-5-3.5-2.2-3.6 4.2-.8 3.1-1.4 3.6 2.6 1.6 2 1.5-2.7 3.1-.5 7.4 6.4 1.6-6 9.2-.1 11-1.7 11.1-2 6.5-2.1 1 .8 2.1 4.4 2 2.3 2-3.7 2.6-3.2 4.7-.9 2.3-1.4 1.5 3.3 1.7 3 1-4.2 2-2.5c2.6-.7 4.4-1.8 5.4-3.1s2.4-3.5 4.1-6.5c0-2.2-1-3.4-2.8-3.5-1.8-.2-3.5 0-5 .5l.4 1.3 2.3.9 1.3 1.6-1.2 3.4-3.5 2.8-2.8 1.5-1.4 2.7-.4 1.5-1.9-4.1-5 2.1-4.6.8-2.9 4.2-4.9-5.5c-1.2-.3-2.6-.2-4.2.4-1.6.6-3.5 1.3-5.7 2.1l-14.4 2.6-10.8.8-3.1-.6-2 3.5-.3 1.4-5.3-4.6L34 101l-3.6 2.4-1.2.6-3.7-2.7-2.1-.2-6.4 2.5-4.3-6.1-2-11.6 2.4-7.6c2.9-1.8 5.6-2.9 8-3.3 2.4-.4 7.4-1.8 15.2-4.4l15.8-8.8 11.2-9.3 4.5-4.8c8 0 13.1-.1 15.5-.2 2.4-.1 6.3 0 11.8.3 3.3 1.9 5.6 3.1 6.9 3.5s4.5 1.5 9.7 3.3c4.9-.6 8-1 9.5-1.2 1.5-.2 4.6-.2 9.4-.1l2.6-.8-3.6 3.8-5.6 3.8-3.9 1.7-.9.5c2.1 2 3.7 3.1 4.9 3.3 1.8.3 6.7.3 8.5 0 1.2-.2 3.9-.3 8.1-.1l2.1-.9-4.3 4.9-2.4 1.5 3.2 1.9 4.6.3c.5.2 2.1.7 5 1.4z"/>
  <path id="shape16" class="st8" d="M18.7 85.9c-1.6.9-1.9 1.6-.9 2.3 1 .7 2.1 1.2 3.5 1.6l2 2.1 1 .4-.4-3-2.1-2.3c-.5-.1-1.5-.5-3.1-1.1z"/>
  <path id="shape17" class="st8" d="M68.1 71.9c1.2-1.6 2.7-2.8 4.7-3.7 2.9-1.4 4.2-3.4 8.2-4.2 4-.9 3.3-1.2 6.1-2.1 1.8-.6 3-.9 3.7-.8l-.4-1.5c-.5-.8-1.6-.9-3.2-.4-2.4.8-3.9 1.4-6.3 2.6-2.5 1.1-5.2 2.1-7.4 3.4-1.4.8-2.8 1.7-4.2 2.7L67 69.3c-.3.6.1 1.5 1.1 2.6z"/>
  <path id="shape18" class="st8" d="M90.1 59.6c1.7 1.3 2.7 2.8 3.1 4.4.6 2.4 2 4.7 1.7 7.2-.2 1.7-.6 3.9-1.3 6.8l-3.2 3.7c-1.8 1.3-3.4 2.2-5 2.6-2.4.6-3.2.8-5.9.5-2.7-.3-4.7-.5-6.6-1.9-1.3-.9-2.7-2.4-4.2-4.5l-1.4-4.1v-4.4l1.4-.4c-.3 1.2-.4 2.4-.2 3.6.1 1.1.8 3 1.9 5.5l4.3 3.7c2.4.6 4.2.9 5.5.9 1.9-.1 4.5-.1 6.8-1.3 1.5-.8 3.2-2.3 5-4.5 1.1-1.2 1.6-2.7 1.4-4.4-.2-2.6-.2-3.4-1.1-5.7-.6-1.5-1.3-3.2-2.1-5.1l-2.4-1.6c-.1-.2.8-.5 2.3-1z"/>
  <path id="shape19" class="st8" d="M82.3 67.9l-2.1 1.9-.4 4.1.3 3.6.4 2.3 1.9 1.8 1.5-1.7.1-4.9-.2-5.1c0-.2-.5-.8-1.5-2z"/>
  <path id="shape20" class="st8" d="M147.7 76.1c.4 3.1.5 5.2.5 6.5-.1 1.9-.8 6.8-1.4 8.6-.6 1.9-5.2 9.6-6.7 12-1.5 2.4-9.7 12.4-12.4 15.4-1.8 2-6.7 6.2-14.7 12.8L98 141l-14 6-10.5 1.1-5.2-1.1-1.4-.5-.4 1.6 5.4.8 8.4.3 16.5-5.3 11.8-7.6 18.2-14.3c9.1-10.3 14.1-16 14.8-17.2 1-1.8 7.1-10.9 7.5-13.3.2-1.5.4-4.7.4-9.5l-.7-7.7c.1.1-.3.7-1.1 1.8z"/>
  <path id="shape21" class="st8" d="M66.3 147l3 4.8 6.9 1.5c6.8.1 11-.1 12.6-.6 2.4-.8 20.2-9.1 21.9-10.4 1.2-.8 4.1-3 8.6-6.6 5.9-4.5 9.5-7.4 10.9-8.9 2.1-2.1 8-7.2 9.7-9.7 1.6-2.5 5.2-7.2 6.6-9.7.9-1.7 3-5.6 6.1-11.9 1.5-5.8 1.9-9.6 1.3-11.3-.6-1.7-1.2-3.9-1.8-6.6l-1.9-3.6-1.9-1 .9-1.8 3.4 3.1 3.1 8.2c.5 4.4.5 7.3-.2 8.8-.9 2.3-2.7 9.1-4.4 11.8-1.1 1.8-4.2 6.7-9.2 14.7l-5.8 5.7c-6.8 6.6-10.8 10.4-11.9 11.4-1.7 1.5-13.1 9-14.8 10.1-1.7 1.1-5.4 3-9.1 5-3.7 2-9.3 4-11.4 4.5-2.1.5-5.2.4-7.4.8-1.5.3-4.6.2-9.3-.4l-4.5-2.7-3.7-4.5c1-.1 1.8-.3 2.3-.7z"/>
  <path id="shape22" class="st8" d="M70.6 153.4l1.5 3.7 3.8 4.6 3.7 2 .6.8L78 166l-3.9-3.3-4.4-5.7-1.1-5c.2.5.8.9 2 1.4z"/>
  <path id="shape23" class="st8" d="M68.9 152.7c-2.9.1-5.1.3-6.6.6s-2.8.6-4 .9l-1.1 1.4.8 1.6 1.9-1.4c1.9-.5 3.5-.8 4.8-1 1.3-.2 2.8-.2 4.5-.1.7 0 .6-.6-.3-2z"/>
  <path id="shape24" class="st8" d="M76.6 183.6c-1.2.4-2.5 1-4 1.7-1.1.6-2.3.9-3.6 1s-2-.1-2-.5l1.2-1.6h2.7l2.8-.9c.7-.3 1.6-.2 2.9.3z"/>
  <path id="shape25" class="st8" d="M58.7 162.4l3.4-2.5c.6-1.4.1-1.7-1.3-1.1-2.1.9-3.2 1.1-5 3.4-1.2 1.5-2.4 2.8-3.7 3.8l-2.4 2.3c-.4 1-.6 2.1-.5 3.4.1 1.3.4 2.7 1 4.3l1.5 2.8 2.3-2.1 2.9-2.9c4.9-.4 7.9-.8 9.1-1 1.2-.3 2.1 0 2.7.8l.9 8.2-2.7 2.3-.8 3.8-1.9 2.7-5 1.7-2.9.8-3.6 2.6-10.2-7.1-1.1-4 1.4-2.1-3.9-6.9 2.6-4 2.8-3.3c-.7-2-1.4-2.4-2.1-1.2-.7 1.2-2.3 3.5-4.7 6.9-1 .3-1.1 1.2-.4 2.8 1.1 2.3 2.6 2.6 2.6 4.4 0 1.8-.5 3.2.1 5.6.4 1.6 2.3 3.7 5.9 6.4l6.5 4.1c1.6-.9 3.1-1.6 4.5-2.1 2.1-.8 3.3-.2 5.8-1.1 1.7-.6 3.5-1.8 5.6-3.6-.5-1.7-.5-3.1-.1-4.3.4-1.2 1.1-2.2 2.3-2.9 1.1-1.1 1.5-2.3 1.1-3.6-.4-1.3-.8-3.9-1.4-7.7.4-1.3-.8-1.6-3.6-1-2.9.6-5.8 1.2-9 1.8l-4.3 2.7-2.1-3.2c.1-2.1.8-3.6 2-4.5 1.9-1.5 2.2-1.7 5.7-5.4z"/>
  <path id="shape26" class="st8" d="M60.7 159.8l-2.5-3.5-.8-2.6-1.6-2.9c-1.3-1.3-2.8-1.3-4.6.1-1.8 1.4-3.7 3-5.7 4.8-2.9 2.3-4.7 4-5.3 5.2-.9 1.7-1.2 2.3-.5 3.6.5.9 1.7 1.6 3.7 2.2l2.2 2.2 3.4 2.4 1 1.3v-2.9l-3.7-2.7-3.2-1.9-1.9-1.9c.4-1.8 1.4-3.3 2.9-4.5 2.3-1.8 5.8-4.9 7.6-5.9 1.8-1 2.8-2.9 3.4-.8.4 1.4.9 3.1 1.6 5.3l1.9 3.1c.4.4 1.1.2 2.1-.6z"/>
  <path id="shape27" class="st8" d="M81.6 179c1.9-1 4-2 5.7-3.3 1.2-.9 3.5-2.5 6.9-4.8l2.4-2.7 2.6-2.2.8 2.1c-1.1.2-2.2.9-3.4 2.2-1.2 1.3-3.3 3-6.1 5-2.1 1.5-3.7 2.6-5 3.3-1.2.7-1.9 1.3-2 1.7-.4.1-1-.3-1.9-1.3z"/>
  <path id="shape28" class="st8" d="M97.1 168.5l-2-2.7-1.3-3.6-1-2.7-2.4-1.4c-.9.3-2.2.9-4.1 1.7-2.8 1.2-3.9 2.2-5.7 3.7-1.2 1-2.1 1.7-2.8 1.9l-2.8 2.9c-.9.5-1.1 1.3-.6 2.4.5 1.1 1.4 2.2 2.5 3.1 1.5-.1 2.5.5 3 1.8s1.1 2.2 1.8 2.8l1.2 1.1 1-1-2.1-2.7-3.1-2.9c-1.1.2-1.9-.3-2.2-1.6-.4-1.2-.3-2.5.3-3.7l7.8-5.1c2.4-2.5 4.2-3.4 5.4-2.9 1.2.6 2 1.5 2.7 3l1.6 3.8c1.1 2.2 1.8 3.2 2.1 3.1.3-.2.6-.5.7-1z"/>
  <path id="shape29" class="st8" d="M112.4 165.3c-4.9-4.1-7.8-6.2-8.7-6.2-1.4 0-4.5.1-5.9.8l-4.4 2.2.5 2.1c.7-.7 1.5-1.3 2.5-1.8 1.4-.7 2.7-1.7 4.6-1.6 1.2.1 2.6.2 4.1.4l3.3 2.4 3.4 3.4c-.1-.1.2-.6.6-1.7z"/>
  <path id="shape30" class="st8" d="M77.6 173.7c-.9 1.1-1.5 2.2-1.9 3.3-.6 1.7-1.3 2.6-1.3 4 0 .9.3 1.8.8 2.8l3.3 3.3c-1.8 2.3-2.4 4-1.8 4.9.5 1 2 2.3 4.3 3.9l1.4 2.6c2.9 1.4 4.9 1.8 6.1 1.2 1.2-.6 3.6-1.5 7.4-2.7l7.3 1.4c6.1-5.9 9.4-9.3 9.9-10.1.7-1.3 4.3-5.8 4.5-7.2.1-.9.1-2 0-3.3l-1.4.5c-.2 1.8-.5 3.1-1 3.9-.5.9-2.3 3.6-5.5 8.1l-6.3 5.8c-2.8-.8-4.8-1.1-6-1.1-1.7.1-3.5.8-5.8 1.8s-4.4 2.2-5.8 1.6c-.9-.4-2.1-1.2-3.5-2.4l-3.6-4.9 2.4-4.2c-2.9-2.4-4.4-4.1-4.5-5-.1-1 .5-3.1 1.8-6.3l.9-1.4c.2.1-.4-.2-1.7-.5z"/>
  <path id="shape31" class="st8" d="M78.7 186.7l-20.4 17c-.7.5-1.4.7-2.1.8-.7 0-3.4-.3-8.3-1-1.4-1.4-2.3-2.6-2.6-3.8-.5-1.8-.4-2.3.5-3.4.6-.7 1.3-1.6 2.2-2.7l1.7.8-2.4 2.3c-.7 1-.9 1.7-.7 2.1.2.4.8 1.5 1.9 3.2 4.5.7 7 .9 7.7.6.6-.3 2.4-1.6 5.4-3.7l15.8-13.7c.2-.2.6.4 1.3 1.5z"/>
  <path id="shape32" class="st8" d="M125.1 149.8l1.8-1.1-.3-5.4 4.1-8.6c7.9-8.6 12.6-13.2 14.1-14 2.3-1.1 12.8-3 16-2.4 3.2.6 5.4 2.5 6.5 4.9 1.1 2.4 7.7 17.1 7.9 19.4.2 1.5.4 8.8.6 21.9-1.7 2.7-5 6-9.6 9.9-4.7 3.9-9.5 7.1-14.5 9.5-7.4 1-12.1 1.4-14.1 1.1-2-.3-7.1-1.4-15.4-3.3-3.4-2.7-5.5-4.7-6.4-6.1-.9-1.4-1.9-4.4-2.9-9 1.2-3.3 2.7-5.7 4.3-7.3 2.5-2.4 7.9-9 15.9-11s13.4-2.3 15.6-1.9c1.4.3 4.2.5 8.2.6-.3-1.3-1.9-2.1-4.8-2.3-4.4-.4-7.4-.7-9.9.1-1.7.6-5.2 1.4-10.7 2.5l-4.5 1.4-1.9 1.1-9.5 9.5-4 6.4v1.4l.5 4.3 4.6 8.1 5.5 3.7c9.1 2.2 14.6 3.4 16.4 3.5 1.8.1 7.2-.4 16.1-1.4 13.8-9.2 21.2-15.2 22.2-18 1.5-4.3 1.7-13.7 1.3-16.5-.4-2.8-.2-8.6-2.4-12.7-2.1-4.1-4.3-11.3-6.3-14.8s-3.5-6.6-5.9-6.8c-2.5-.2-11.3-1.3-17.2 1.6-5.8 2.9-8.1 6.2-10.7 9.3-2.6 3.1-5.5 5.1-7.3 8.8-1.8 3.8-2.8 4.6-3.3 7.2-.3 1.7-.5 2.8-.4 3.3-.3.6 0 1.7.4 3.1z"/>
  <path id="shape33" class="st8" d="M153.2 76.4l4.6 3.1c3.5 4.9 5.5 7.9 5.8 9.1.6 1.7 5.6 11.8 6.3 13.9.5 1.4 3.8 8.6 10 21.6l.4 13-3.5 3.8-1.6-1.1 3.6-3.8c.1-6-.1-9.5-.5-10.7-.6-1.7-7-15.7-7.9-17.4-.6-1.2-4.3-8.8-11.3-22.9l-4.9-4.8c-.4-.2-.8-1.5-1-3.8z"/>
  <path id="shape34" class="st8" d="M138.7 186.2l-48 26.3-1.9-.7-5.1-7.6-.1-3.4 2-1.3 2.2.3-2.4 1.8c-.2 1 .2 2.2 1 3.6s2 3 3.6 4.8l45.7-24.3c-.2-.1.9.1 3 .5z"/>
  <path id="shape35" class="st8" d="M179.1 124.3l8.2-6.9c1.8-1.4 3.1-1.5 3.7-.3s3.2 5.8 7.8 13.7l.9 2.5.9 14.3-3.3 2.7-20.6 13.2.3-2.1 20.7-13.8.1-15-7.5-13.3c-.9-1-1.9-1.1-2.8-.3-.9.7-3.7 3.3-8.2 7.8.1.1 0-.8-.2-2.5z"/>
  <path id="shape36" class="st8" d="M148.2 68.6l14.1-13c2.9-1.7 5.4-2.6 7.6-2.6 2.2 0 4.2.3 6 .9L198.8 64c3.2 1.5 5.3 2.8 6.5 3.9 1.1 1.1 2.5 3.1 4.1 5.9l25 50.7c.9 2.6 1.1 4.6.7 6.1-.4 1.5-1.1 3.3-2.1 5.4l-30.8 29.2c-1 1.2-2.5 1.7-4.5 1.6-2-.1-3.6-.2-5-.4l.6-2.1c1.8.7 3.4.7 5 .2 1.6-.5 3-1.1 4.2-1.9l29.2-28c1.1-1.8 1.6-3.5 1.6-5.2 0-1.7-.2-3.2-.6-4.6L206 72c-.8-2-2-3.3-3.4-3.8s-2.8-1.3-4.2-2.5l-25-10.4c-1.4-.1-2.8-.1-4.3 0s-3.4.7-5.7 1.6l-15.1 14c-.1 0-.1-.8-.1-2.3z"/>
  <path id="shape37" class="st8" d="M167.5 100.2l27.6-26.9c.8-1.2 1.2-2.4 1.3-3.6.1-1.2.1-2.2.2-2.9 1.1.1 1.7.9 1.6 2.4 0 2.2-.3 3.8-1.2 4.7-1 .9-4.2 3.7-5.1 4.6-.6.6-8.3 8.2-23.2 22.8-.2.1-.6-.3-1.2-1.1z"/>
  <path id="shape38" class="st8" d="M169.3 103.7l28.9-26.1c1.6-1.1 3.1-1.6 4.5-1.5 1.4.1 2.4.2 3 .2l.4.8c-.2.1-.8.2-1.9.3-1.6.1-2.5-.2-4 .8s-3.5 2.8-5.1 3.9c-1 .7-7.3 6.4-18.9 17.1l-6.3 5.9s-.3-.5-.6-1.4z"/>
  <path id="shape42" class="st8" d="M189.7 154.3l2.5-1.7c1.4 6 2.1 10.1 2.1 12.6-.1 3.7-.5 24-.8 25.6-.2 1.1-.7 2.6-1.5 4.5-11.4 4.8-19.4 7.5-23.8 8.3-6.6 1.2-20.2 2.2-22.6 3-1.6.5-5.3.4-11.3-.2-10.1-2.5-15.7-4-16.6-4.3-1-.4-2.2-1.4-3.7-3 1.3-1.5 2.2-2 2.7-1.6.7.7 2.9 3.2 7 4.4 4 1.2 13.8 3.2 18.2 3.2 4.4 0 18.5-1.7 21.5-2.5 3-.9 18-4.1 19.8-5.4 1.9-1.3 7.3-2.1 7.8-3.9.5-1.9 1.6-9.4 1.3-11.7-.2-2.3.8-10.9.2-12.3-.6-1.4-.3-8.3-.9-10.5-.7-2.2-.7-2.2-1.9-4.5z"/>
  <path id="shape43" class="st8" d="M192.6 191.3c.9 2 1.6 4.5 2.1 7.4.8 4.5 1.9 12.7 2.6 16.3.7 3.6 1.6 9.9 1.7 12.1.1 2.2.5 22.7.5 24.9 0 1.5-.4 3.6-1 6.3-4 3-6.7 4.6-8.2 4.8-1.5.2-4.3.5-8.2.9-3.6-2.6-6.6-4.8-9-6.5-3.5-2.5-9.2-9.1-11.2-10.3-2-1.3-11.2-7.8-12.9-9.1-1.2-.9-4.1-4.4-8.8-10.7-1.2 2.6-2.5 4.9-3.8 7-1.3 2-4.1 5.3-8.4 9.8l-1.8 1.2c2.9 5.9 4.5 9.9 4.8 12.1.2 2.2.3 5.2.2 9.1l-7 7.4-6.2 1.3c-4.7-1.7-9-3.9-12.7-6.6-5.6-4.1-11.2-8.9-13.6-12.4-1.6-2.3-4.1-7-7.5-14 1.2-8.1 2.6-13.5 4.1-16.5 2.3-4.4 8-14.1 8.8-16.2.5-1.4 1.5-2.8 2.9-4.3l1.4.2C93.2 218.5 88.8 227 88 231c-1.1 6-2.7 8.6-2.1 11.3.6 2.7 3.1 7.9 4.5 9.9s13.6 14.8 18.3 17c4.7 2.2 9.7 4.5 11.6 3.5 1.3-.7 3.8-2.4 7.6-5.1 1.1-3.3 1.3-6.2.7-8.7-.6-2.6-1.6-6.2-3-10.9l-1.3-2.1c-6.4 2.7-10.2 3.7-11.4 3.2-1.7-.9-3-.3 1.4-1.7 2.9-.9 6.8-2.2 11.6-4 6-5.5 9.3-9.1 9.7-10.9.4-1.8 1.4-4.3 2.9-7.6l1.5-1.6c2.6 4.5 4.9 7.7 6.8 9.7 2.9 2.9 17.6 13.2 19.9 14.9 2.3 1.7 6.4 8.8 9.9 10.2 3.5 1.4 5 4.5 8.1 4 3.1-.5 9.6-1.6 10.7-3.7 1.1-2.1 2.5-4.7 2.3-8.1-.2-3.4.1-21.7-.5-24.4-.6-2.7-1.7-14.2-2.9-17.9-.8-2.5-1.7-7.2-2.7-14-.1-.5.2-1.4 1-2.7z"/>
  <path id="shape44" class="st8" d="M225.6 142.1l2-2.1 5.6 2 6.4 4c2.1 1.9 3.2 3.8 3.1 5.5-.1 2.7-.4 8.8-2.5 12.6-2.1 3.8-4.5 7.1-7.3 8.7-2.8 1.6-7.6 4.7-10 5.4-2.4.6-8.6.7-11.2-.8-2.7-1.5-3.7-1.6-4.6-3.5-.8-1.9-2.8-11.3-1.6-13.2.8-1.3 1.6-1.8 2.4-1.6-.7 5.2-.7 8.9 0 11.2 1.1 3.4 3.6 5.4 5.5 5.8 1.9.4 8 .5 11.3-1.2 3.3-1.7 11.3-5.9 12.5-9.1 1.2-3.2 3-6.6 3.1-10.2.1-3.6.9-5.3-1.3-7-2.2-1.7-5.5-4.5-7.9-5-2.3-.5-2.3-.5-5.5-1.5z"/>
  <path id="shape45" class="st8" d="M110.1 270.7l-13.9 9.5c-.7.7-1 1.5-1 2.3 0 .8.4 2.3 1.3 4.5l1.8 1.1 32.7-.3c2-1 3.1-1.9 3.5-2.7.5-1.2 1.7-5.5 1.6-7.4-.1-1.8-3.2-11.8-4.6-12.8-1-.7-1.6.1-2 2.4 1.7.5 2.7 1.4 3 2.8.5 2.1 1.7 6.5 1.3 8.5-.4 2 0 4.9-1.3 5.7s-1.5 2.3-2.8 2c-.9-.2-10.8-.1-29.8.4-2.7-1.8-3.6-3.3-2.6-4.4.9-1.2 3.1-2.8 6.4-4.8l8.3-5.7c-.2-.4-.7-.8-1.9-1.1z"/>
  <path id="shape46" class="st8" d="M180.6 262.1c-.5 1.6-2.4 7.8-3.3 10.5-.9 2.7-3.5 7.5-4 9.2-.3 1.2-.7 2.1-1.1 2.8l2.1 3 .9.3 6.8-.1 20.8-13.9c.1-3.6-.2-6.7-1-9.1-1.2-3.6-2.1-7-3.3-6.9-.8.1-1.2.4-1.2 1 2.3 4.4 3.5 7 3.5 8 .1.9-.1 2.9-.6 6l-17.8 13.3-4.9.7c-2.2-.7-3.3-1.5-3.2-2.4.2-1.4 4.4-10.4 5.1-13.2.5-1.9 1.3-4.4 2.3-7.7 0-.9-.4-1.3-1.1-1.5z"/>
  <path id="shape47" class="st8" d="M194.1 202.4c7 1.4 12.3 2.3 15.9 2.5 5.4.3 14 .8 26.9-4.3 12.9-5.1 25.6-13.5 29.6-18.1 4-4.6 9.7-9.6 13.4-18 3.7-8.4 6.9-17 7.2-24.8.4-7.9 1.3-6.9 0-18.1-1.3-11.2-6.1-24-8.6-28.1-2.5-4.1-7.6-13.4-18.4-21.6-10.8-8.1-19.3-12.1-27.5-14.2-8.2-2.1-9.8-2.2-11.7-1.6-1.9.5-3.1.4-5.4 2.7-1.6 1.6-3 2.9-4.2 4.1l-.5 1.5 7.5 1.3 11.3 8.8.7 2.4c2.2-2.1 3.9-3.4 5-3.9 1.2-.5 1.8-.7 1.8-.6.5 2.5.4 4.4-.4 5.6-.8 1.2-1.5 2.5-2.1 3.8l-.3.9c2.1 0 3.8.5 5.1 1.3s4.2 1.3 8.9 1.5l3.2-.5 4.9 9.7c.3 1.7-.6 3.1-2.8 4-3.3 1.4-5.4 2.7-7.5 2.4-1.4-.2-2.4-.3-3.1-.5 1 2.7 2.3 4.7 3.9 5.9 2.4 1.8 5.7 4.1 10 4 2.9-.1 4.5.1 5 .5 1.8 3.9 2.6 6.8 2.2 8.7-.4 1.9-.9 3.5-1.5 4.7-4.1 1.9-7.3 2.5-9.5 1.7s-3.8-1.6-4.7-2.5c-.5 1.2.1 2.7 1.6 4.6 2.3 2.8 2.2 6 5.3 7.7 2.1 1.1 3.9 2 5.5 2.8.2 1.5-.4 3-1.6 4.5-1.2 1.5-2.6 3-4.2 4.5l-4.3-.1c-2.2-1.4-3.5-3.5-4.1-6.1s-.8-5.1-.8-7.3c-1.2.6-2.1 1.7-2.9 3.3-.8 1.6-1.6 3.6-2.4 6l-.8 3.7c.8 2.2 1.2 2.7 1.4 1.5.2-1.8.8-5.8 1.9-8.1.7-1.5 1.5-2.7 2.2-3.3l1.4 8.2 3.9 3.5h5.3l7-9.6c-3.9-2.5-6.3-4.4-7.3-5.7-1-1.3-2.7-3.6-5.1-7 3.5 1.3 6.4 1.6 8.7.8 2.3-.8 4.1-1.9 5.5-3.4l.7-7.6-2.7-7.1c-2.7-.7-5.3-1.1-7.8-1.2-2.6-.1-4.8-1.1-6.6-2.8l-2.7-2.4c6.1-1.6 9.7-3.1 10.9-4.5 1.1-1.5 1.6-3 1.5-4.6l-5.1-9.3-2.3-1.4c-4.7.9-7.6 1.1-8.7.6-1.1-.5-2.8-1.2-4.8-2.2 1.4-2.6 2-4.7 1.9-6.2-.1-1.5-.3-3-.6-4.4-1.6.3-3.2.9-4.6 1.8-1.4.9-2.5 1.4-3.1 1.4-4.2-3.5-6.9-5.8-8-6.7-1.1-.9-3.1-2.1-6-3.7l-3.3-.5c3.1-3.8 6-5.7 8.7-5.7 4.1 0 17 3.9 20.8 6.1 3.8 2.2 14.4 5.7 21.1 13.7s14.2 14.7 18.2 31 5.1 15.9 2.7 30.2c-2.4 14.3-2.6 21.3-12.1 33.3-9.5 11.9-14.5 17.4-25.5 22.6-11 5.3-16.7 8.1-26.9 8.7-10.2.6-20.9-1.6-23.7-2-1.8-.3-2.8-.7-3-1.2 0 0 .1.8.5 2.4z"/>
  <path id="shape48" class="st8" d="M68.1 147.6c-1-.6-.9-1.8.1-3.5s1.8-2.8 2.3-3.4l-1.7-.8c-2.1 3.7-2.9 6-2.3 7 .8 1.6.8 1.6 1.6.7z"/>
  <path class="st9" d="M218.6 123.6l-8.8 7.8-.6-1.1-6.3-.3 5.5 9.5 16.4-14.7-1.3-2.6-5.9-.5zM207.6 91.4l-18.2 15.2 1.7 2.9 6.8.7-1.2-2.1 9.4-8 .7 1.3 6.3.7z"/>
  <path class="st9" d="M213.2 113.5l-27.8-2.6 10.8 7.4 5.7 9.8 6.3.4-5.5-9.7 25.6 2-9-6.8-5.2-9.9-6.3-.8z"/>
</svg>
