<?xml version="1.0" encoding="UTF-8"?>
<svg width="496px" height="200px" viewBox="0 0 496 200" version="1.1" xmlns="http://www.w3.org/2000/svg" xmlns:xlink="http://www.w3.org/1999/xlink">
    <!-- Generator: Sketch 53.2 (72643) - https://sketchapp.com -->
    <title>PEX</title>
    <desc>Created with Sketch.</desc>
    <g id="Brand-Basics" stroke="none" stroke-width="1" fill="none" fill-rule="evenodd">
        <path d="M71.6749307,0 L39.6218373,0 C17.7744703,0 -4.54747351e-13,17.2987538 -4.54747351e-13,38.5584372 L-4.54747351e-13,187.457056 C-4.54747351e-13,194.368474 5.78391596,200 12.8896781,200 C19.9954403,200 25.7793563,194.368474 25.7793563,187.457056 L25.7793563,148.332772 L71.6749307,148.332772 C113.705615,148.332772 147.89916,115.062311 147.89916,74.1731223 C147.89916,33.2704614 113.705615,0 71.6749307,0 L71.6749307,0 Z M71.6480491,122.689076 L25.210084,122.689076 L25.210084,38.5881107 C25.210084,31.210129 31.4968612,25.210084 39.2161545,25.210084 L71.6480491,25.210084 C99.7891844,25.210084 122.689076,47.0764687 122.689076,73.9529243 C122.689076,100.822691 99.7891844,122.689076 71.6480491,122.689076 L71.6480491,122.689076 Z M438.801106,75.6302521 L492.218583,21.2568838 C494.598934,18.8350427 495.86266,15.6508951 495.795796,12.2980956 C495.722246,8.94529607 494.318106,5.81511706 491.844146,3.49446709 C489.43705,1.24127789 486.281079,0 482.951263,0 C479.420855,0 476.124471,1.36945332 473.683943,3.86550124 L421.008654,57.4833091 L368.333365,3.86550124 C365.88615,1.36945332 362.596452,0 359.059358,0 C355.729541,0 352.573571,1.24127789 350.173161,3.49446709 C347.692514,5.81511706 346.295061,8.94529607 346.221511,12.2980956 C346.147961,15.6508951 347.418373,18.8350427 349.792037,21.2568838 L403.209514,75.6302521 L349.792037,130.00362 C347.418373,132.425461 346.147961,135.602863 346.221511,138.955663 C346.295061,142.315208 347.692514,145.438641 350.173161,147.766037 C352.573571,150.019226 355.729541,151.260504 359.059358,151.260504 C362.596452,151.260504 365.88615,149.884305 368.326678,147.395003 L421.008654,93.7771951 L473.677256,147.395003 C476.131157,149.884305 479.420855,151.260504 482.951263,151.260504 C486.281079,151.260504 489.43705,150.019226 491.844146,147.766037 C494.318106,145.438641 495.722246,142.315208 495.795796,138.955663 C495.86266,135.602863 494.598934,132.425461 492.218583,130.00362 L438.801106,75.6302521 Z M182.569867,25.210084 L282.976352,25.210084 C290.051461,25.210084 295.798319,19.557447 295.798319,12.605042 C295.798319,5.65263699 290.051461,0 282.976352,0 L182.569867,0 C175.501432,0 169.747899,5.65263699 169.747899,12.605042 C169.747899,19.557447 175.501432,25.210084 182.569867,25.210084 L182.569867,25.210084 Z M282.976352,122.689076 L182.569867,122.689076 C175.501432,122.689076 169.747899,128.341713 169.747899,135.294118 C169.747899,142.239753 175.501432,147.89916 182.569867,147.89916 L282.976352,147.89916 C290.051461,147.89916 295.798319,142.239753 295.798319,135.294118 C295.798319,128.341713 290.051461,122.689076 282.976352,122.689076 L282.976352,122.689076 Z M316.589797,60.5042017 L216.183312,60.5042017 C209.108202,60.5042017 203.361345,66.1568387 203.361345,73.1092437 C203.361345,80.0616487 209.108202,85.7142857 216.183312,85.7142857 L316.589797,85.7142857 C323.658232,85.7142857 329.411765,80.0616487 329.411765,73.1092437 C329.411765,66.1568387 323.658232,60.5042017 316.589797,60.5042017 L316.589797,60.5042017 Z" id="PEX" fill="#FFFFFF"></path>
    </g>
</svg>