<?xml version="1.0" encoding="UTF-8"?>
<svg width="496px" height="200px" viewBox="0 0 496 200" version="1.1" xmlns="http://www.w3.org/2000/svg" xmlns:xlink="http://www.w3.org/1999/xlink">
    <!-- Generator: Sketch 53.2 (72643) - https://sketchapp.com -->
    <title>PEX</title>
    <desc>Created with Sketch.</desc>
    <g id="Brand-Basics" stroke="none" stroke-width="1" fill="none" fill-rule="evenodd">
        <g id="Logo" transform="translate(-712.000000, -440.000000)" fill="#071E60">
            <path d="M783.674931,440 L751.621837,440 C729.77447,440 712,457.298754 712,478.558437 L712,627.457056 C712,634.368474 717.783916,640 724.889678,640 C731.99544,640 737.779356,634.368474 737.779356,627.457056 L737.779356,588.332772 L783.674931,588.332772 C825.705615,588.332772 859.89916,555.062311 859.89916,514.173122 C859.89916,473.270461 825.705615,440 783.674931,440 L783.674931,440 Z M783.648049,562.689076 L737.210084,562.689076 L737.210084,478.588111 C737.210084,471.210129 743.496861,465.210084 751.216154,465.210084 L783.648049,465.210084 C811.789184,465.210084 834.689076,487.076469 834.689076,513.952924 C834.689076,540.822691 811.789184,562.689076 783.648049,562.689076 L783.648049,562.689076 Z M1150.80111,515.630252 L1204.21858,461.256884 C1206.59893,458.835043 1207.86266,455.650895 1207.7958,452.298096 C1207.72225,448.945296 1206.31811,445.815117 1203.84415,443.494467 C1201.43705,441.241278 1198.28108,440 1194.95126,440 C1191.42086,440 1188.12447,441.369453 1185.68394,443.865501 L1133.00865,497.483309 L1080.33336,443.865501 C1077.88615,441.369453 1074.59645,440 1071.05936,440 C1067.72954,440 1064.57357,441.241278 1062.17316,443.494467 C1059.69251,445.815117 1058.29506,448.945296 1058.22151,452.298096 C1058.14796,455.650895 1059.41837,458.835043 1061.79204,461.256884 L1115.20951,515.630252 L1061.79204,570.00362 C1059.41837,572.425461 1058.14796,575.602863 1058.22151,578.955663 C1058.29506,582.315208 1059.69251,585.438641 1062.17316,587.766037 C1064.57357,590.019226 1067.72954,591.260504 1071.05936,591.260504 C1074.59645,591.260504 1077.88615,589.884305 1080.32668,587.395003 L1133.00865,533.777195 L1185.67726,587.395003 C1188.13116,589.884305 1191.42086,591.260504 1194.95126,591.260504 C1198.28108,591.260504 1201.43705,590.019226 1203.84415,587.766037 C1206.31811,585.438641 1207.72225,582.315208 1207.7958,578.955663 C1207.86266,575.602863 1206.59893,572.425461 1204.21858,570.00362 L1150.80111,515.630252 Z M894.569867,465.210084 L994.976352,465.210084 C1002.05146,465.210084 1007.79832,459.557447 1007.79832,452.605042 C1007.79832,445.652637 1002.05146,440 994.976352,440 L894.569867,440 C887.501432,440 881.747899,445.652637 881.747899,452.605042 C881.747899,459.557447 887.501432,465.210084 894.569867,465.210084 L894.569867,465.210084 Z M994.976352,562.689076 L894.569867,562.689076 C887.501432,562.689076 881.747899,568.341713 881.747899,575.294118 C881.747899,582.239753 887.501432,587.89916 894.569867,587.89916 L994.976352,587.89916 C1002.05146,587.89916 1007.79832,582.239753 1007.79832,575.294118 C1007.79832,568.341713 1002.05146,562.689076 994.976352,562.689076 L994.976352,562.689076 Z M1028.5898,500.504202 L928.183312,500.504202 C921.108202,500.504202 915.361345,506.156839 915.361345,513.109244 C915.361345,520.061649 921.108202,525.714286 928.183312,525.714286 L1028.5898,525.714286 C1035.65823,525.714286 1041.41176,520.061649 1041.41176,513.109244 C1041.41176,506.156839 1035.65823,500.504202 1028.5898,500.504202 L1028.5898,500.504202 Z" id="PEX"></path>
        </g>
    </g>
</svg>